G04 start of page 10 for group -4079 idx -4079 *
G04 Title: (unknown), topsilk *
G04 Creator: pcb 1.99z *
G04 CreationDate: Sun 01 Aug 2010 05:53:12 AM GMT UTC *
G04 For: jensen *
G04 Format: Gerber/RS-274X *
G04 PCB-Dimensions: 200000 250000 *
G04 PCB-Coordinate-Origin: lower left *
%MOIN*%
%FSLAX25Y25*%
%LNFRONTSILK*%
%ADD13C,0.0080*%
%ADD35C,0.0100*%
%ADD50C,0.0250*%
G54D13*X157000Y5000D02*X158500D01*
X156500Y5500D02*X157000Y5000D01*
X156500Y8500D02*Y5500D01*
Y8500D02*X157000Y9000D01*
X158500D01*
X159701Y6500D02*Y5500D01*
Y6500D02*X160201Y7000D01*
X161201D01*
X161701Y6500D01*
Y5500D01*
X161201Y5000D02*X161701Y5500D01*
X160201Y5000D02*X161201D01*
X159701Y5500D02*X160201Y5000D01*
X163402Y6500D02*Y3500D01*
X162902Y7000D02*X163402Y6500D01*
X163902Y7000D01*
X164902D01*
X165402Y6500D01*
Y5500D01*
X164902Y5000D02*X165402Y5500D01*
X163902Y5000D02*X164902D01*
X163402Y5500D02*X163902Y5000D01*
X166603Y7000D02*Y5500D01*
X167103Y5000D01*
X168603Y7000D02*Y4000D01*
X168103Y3500D02*X168603Y4000D01*
X167103Y3500D02*X168103D01*
X166603Y4000D02*X167103Y3500D01*
Y5000D02*X168103D01*
X168603Y5500D01*
X170304Y6500D02*Y5000D01*
Y6500D02*X170804Y7000D01*
X171804D01*
X169804D02*X170304Y6500D01*
X173005Y8000D02*Y7500D01*
Y6500D02*Y5000D01*
X175506Y7000D02*X176006Y6500D01*
X174506Y7000D02*X175506D01*
X174006Y6500D02*X174506Y7000D01*
X174006Y6500D02*Y5500D01*
X174506Y5000D01*
X175506D01*
X176006Y5500D01*
X174006Y4000D02*X174506Y3500D01*
X175506D01*
X176006Y4000D01*
Y7000D02*Y4000D01*
X177207Y9000D02*Y5000D01*
Y6500D02*X177707Y7000D01*
X178707D01*
X179207Y6500D01*
Y5000D01*
X180908Y9000D02*Y5500D01*
X181408Y5000D01*
X180408Y7500D02*X181408D01*
X184209Y8500D02*X184709Y9000D01*
X186209D01*
X186709Y8500D01*
Y7500D01*
X184209Y5000D02*X186709Y7500D01*
X184209Y5000D02*X186709D01*
X187910Y5500D02*X188410Y5000D01*
X187910Y8500D02*Y5500D01*
Y8500D02*X188410Y9000D01*
X189410D01*
X189910Y8500D01*
Y5500D01*
X189410Y5000D02*X189910Y5500D01*
X188410Y5000D02*X189410D01*
X187910Y6000D02*X189910Y8000D01*
X191611Y5000D02*X192611D01*
X192111Y9000D02*Y5000D01*
X191111Y8000D02*X192111Y9000D01*
X193812Y5500D02*X194312Y5000D01*
X193812Y8500D02*Y5500D01*
Y8500D02*X194312Y9000D01*
X195312D01*
X195812Y8500D01*
Y5500D01*
X195312Y5000D02*X195812Y5500D01*
X194312Y5000D02*X195312D01*
X193812Y6000D02*X195812Y8000D01*
X156500Y16000D02*Y12000D01*
Y16000D02*Y15500D01*
X159000Y13000D01*
Y16000D02*Y12000D01*
X160701D02*X162201D01*
X160201Y12500D02*X160701Y12000D01*
X160201Y13500D02*Y12500D01*
Y13500D02*X160701Y14000D01*
X161701D01*
X162201Y13500D01*
X160201Y13000D02*X162201D01*
Y13500D02*Y13000D01*
X163402Y14000D02*Y12500D01*
X163902Y12000D01*
X164402D01*
X164902Y12500D01*
Y14000D02*Y12500D01*
X165402Y12000D01*
X165902D01*
X166402Y12500D01*
Y14000D02*Y12500D01*
X168103Y12000D02*X169603D01*
X167603Y12500D02*X168103Y12000D01*
X167603Y13500D02*Y12500D01*
Y13500D02*X168103Y14000D01*
X169103D01*
X169603Y13500D01*
X167603Y13000D02*X169603D01*
Y13500D02*Y13000D01*
X170804Y16000D02*Y12500D01*
X171304Y12000D01*
X172305Y16000D02*Y12500D01*
X172805Y12000D01*
X175606Y16000D02*X177106D01*
Y12500D01*
X176606Y12000D02*X177106Y12500D01*
X176106Y12000D02*X176606D01*
X175606Y12500D02*X176106Y12000D01*
X178807D02*X180307D01*
X178307Y12500D02*X178807Y12000D01*
X178307Y13500D02*Y12500D01*
Y13500D02*X178807Y14000D01*
X179807D01*
X180307Y13500D01*
X178307Y13000D02*X180307D01*
Y13500D02*Y13000D01*
X182008Y13500D02*Y12000D01*
Y13500D02*X182508Y14000D01*
X183008D01*
X183508Y13500D01*
Y12000D01*
X181508Y14000D02*X182008Y13500D01*
X185209Y12000D02*X186709D01*
X187209Y12500D01*
X186709Y13000D02*X187209Y12500D01*
X185209Y13000D02*X186709D01*
X184709Y13500D02*X185209Y13000D01*
X184709Y13500D02*X185209Y14000D01*
X186709D01*
X187209Y13500D01*
X184709Y12500D02*X185209Y12000D01*
X188910D02*X190410D01*
X188410Y12500D02*X188910Y12000D01*
X188410Y13500D02*Y12500D01*
Y13500D02*X188910Y14000D01*
X189910D01*
X190410Y13500D01*
X188410Y13000D02*X190410D01*
Y13500D02*Y13000D01*
X192111Y13500D02*Y12000D01*
Y13500D02*X192611Y14000D01*
X193111D01*
X193611Y13500D01*
Y12000D01*
X191611Y14000D02*X192111Y13500D01*
G54D35*X17000Y109750D02*Y81250D01*
X49000D01*
Y109750D02*Y81250D01*
X17000Y109750D02*X30500D01*
X35500D02*X49000D01*
X30500D02*G75*G03X35500Y109750I2500J0D01*G01*
X6100Y178472D02*Y149972D01*
Y178472D02*X47500D01*
Y149972D01*
X6100D02*X47500D01*
G54D13*X57607Y131755D02*X58393D01*
X57607Y126245D02*X58393D01*
X57607Y166755D02*X58393D01*
X57607Y161245D02*X58393D01*
G54D35*X183000Y245000D02*Y235000D01*
X173000D02*X183000D01*
X173000Y245000D02*X193000D01*
Y115000D01*
X173000D02*X193000D01*
X173000Y245000D02*Y115000D01*
X6100Y143300D02*Y114800D01*
Y143300D02*X47500D01*
Y114800D01*
X6100D02*X47500D01*
X58818Y244716D02*X72204D01*
Y209283D01*
X58425D02*X72204D01*
X6063Y244716D02*X61181D01*
X6063Y209283D02*X61181D01*
X6063Y244716D02*Y209283D01*
X24000Y195000D02*X28000D01*
X54000Y197000D02*Y193000D01*
X52000Y195000D02*X56000D01*
X50000D02*G75*G03X50000Y195000I-10000J0D01*G01*
X92900Y245000D02*Y235000D01*
X82900D02*X92900D01*
X82900Y245000D02*X102900D01*
Y115000D01*
X82900D02*X102900D01*
X82900Y245000D02*Y115000D01*
X64000Y53000D02*X84000D01*
X64000Y43000D02*X84000D01*
X64000Y53000D02*G75*G03X64000Y43000I0J-5000D01*G01*
X84000D02*G75*G03X84000Y53000I0J5000D01*G01*
G54D50*X40500Y40500D02*X5500D01*
X40500Y5500D02*Y40500D01*
X5500Y5500D02*X40500D01*
X5500Y40500D02*Y5500D01*
G54D13*X113741Y49841D02*X110841Y52741D01*
X113741Y49841D02*X165159D01*
Y104159D02*Y49841D01*
X110841Y104159D02*X165159D01*
X110841D02*Y52741D01*
X113741Y51741D02*G75*G03X113741Y51741I0J1000D01*G01*
X126350Y31150D02*X127850D01*
X125850Y31650D02*X126350Y31150D01*
X125850Y34650D02*Y31650D01*
Y34650D02*X126350Y35150D01*
X127850D01*
X129051Y33150D02*X131051Y35150D01*
X129051Y33150D02*X131551D01*
X131051Y35150D02*Y31150D01*
X137350Y20650D02*X138850D01*
X136850Y21150D02*X137350Y20650D01*
X136850Y24150D02*Y21150D01*
Y24150D02*X137350Y24650D01*
X138850D01*
X140051D02*X142051D01*
X140051D02*Y22650D01*
X140551Y23150D01*
X141551D01*
X142051Y22650D01*
Y21150D01*
X141551Y20650D02*X142051Y21150D01*
X140551Y20650D02*X141551D01*
X140051Y21150D02*X140551Y20650D01*
X59350Y79650D02*X61350D01*
X61850Y79150D01*
Y78150D01*
X61350Y77650D02*X61850Y78150D01*
X59850Y77650D02*X61350D01*
X59850Y79650D02*Y75650D01*
Y77650D02*X61850Y75650D01*
X63051Y79650D02*X65051D01*
X63051D02*Y77650D01*
X63551Y78150D01*
X64551D01*
X65051Y77650D01*
Y76150D01*
X64551Y75650D02*X65051Y76150D01*
X63551Y75650D02*X64551D01*
X63051Y76150D02*X63551Y75650D01*
X70500Y66500D02*X72500D01*
X73000Y66000D01*
Y65000D01*
X72500Y64500D02*X73000Y65000D01*
X71000Y64500D02*X72500D01*
X71000Y66500D02*Y62500D01*
Y64500D02*X73000Y62500D01*
X74201D02*X76701Y65000D01*
Y66500D02*Y65000D01*
X74201Y66500D02*X76701D01*
X80850Y75650D02*X82850D01*
X83350Y75150D01*
Y74150D01*
X82850Y73650D02*X83350Y74150D01*
X81350Y73650D02*X82850D01*
X81350Y75650D02*Y71650D01*
Y73650D02*X83350Y71650D01*
X84551Y75150D02*X85051Y75650D01*
X86551D01*
X87051Y75150D01*
Y74150D01*
X84551Y71650D02*X87051Y74150D01*
X84551Y71650D02*X87051D01*
X71500Y34500D02*X73000D01*
X71000Y35000D02*X71500Y34500D01*
X71000Y38000D02*Y35000D01*
Y38000D02*X71500Y38500D01*
X73000D01*
X74201Y36500D02*X76201Y38500D01*
X74201Y36500D02*X76701D01*
X76201Y38500D02*Y34500D01*
X77902Y36500D02*X79902Y38500D01*
X77902Y36500D02*X80402D01*
X79902Y38500D02*Y34500D01*
X91350Y51650D02*X92850D01*
X90850Y52150D02*X91350Y51650D01*
X90850Y55150D02*Y52150D01*
Y55150D02*X91350Y55650D01*
X92850D01*
X94051Y53650D02*X96051Y55650D01*
X94051Y53650D02*X96551D01*
X96051Y55650D02*Y51650D01*
X97752Y55150D02*X98252Y55650D01*
X99752D01*
X100252Y55150D01*
Y54150D01*
X97752Y51650D02*X100252Y54150D01*
X97752Y51650D02*X100252D01*
X123000Y79000D02*Y75500D01*
X123500Y75000D01*
X124500D01*
X125000Y75500D01*
Y79000D02*Y75500D01*
X126701Y75000D02*X127701D01*
X127201Y79000D02*Y75000D01*
X126201Y78000D02*X127201Y79000D01*
X90850Y74650D02*X92850D01*
X93350Y74150D01*
Y73150D01*
X92850Y72650D02*X93350Y73150D01*
X91350Y72650D02*X92850D01*
X91350Y74650D02*Y70650D01*
Y72650D02*X93350Y70650D01*
X94551Y74150D02*X95051Y74650D01*
X96051D01*
X96551Y74150D01*
Y71150D01*
X96051Y70650D02*X96551Y71150D01*
X95051Y70650D02*X96051D01*
X94551Y71150D02*X95051Y70650D01*
Y72650D02*X96551D01*
X52000Y34500D02*X53500D01*
X51500Y35000D02*X52000Y34500D01*
X51500Y38000D02*Y35000D01*
Y38000D02*X52000Y38500D01*
X53500D01*
X54701Y36500D02*X56701Y38500D01*
X54701Y36500D02*X57201D01*
X56701Y38500D02*Y34500D01*
X58402Y38000D02*X58902Y38500D01*
X59902D01*
X60402Y38000D01*
Y35000D01*
X59902Y34500D02*X60402Y35000D01*
X58902Y34500D02*X59902D01*
X58402Y35000D02*X58902Y34500D01*
Y36500D02*X60402D01*
X44500Y6000D02*X46000D01*
X44000Y6500D02*X44500Y6000D01*
X44000Y9500D02*Y6500D01*
Y9500D02*X44500Y10000D01*
X46000D01*
X47201Y9500D02*Y6500D01*
Y9500D02*X47701Y10000D01*
X48701D01*
X49201Y9500D01*
Y6500D01*
X48701Y6000D02*X49201Y6500D01*
X47701Y6000D02*X48701D01*
X47201Y6500D02*X47701Y6000D01*
X50402Y10000D02*Y6000D01*
Y10000D02*Y9500D01*
X52902Y7000D01*
Y10000D02*Y6000D01*
X54103Y10000D02*Y6000D01*
Y10000D02*Y9500D01*
X56603Y7000D01*
Y10000D02*Y6000D01*
X57804Y9500D02*X58304Y10000D01*
X59804D01*
X60304Y9500D01*
Y8500D01*
X57804Y6000D02*X60304Y8500D01*
X57804Y6000D02*X60304D01*
X51000Y49500D02*Y49000D01*
X53500Y46500D01*
Y45500D01*
X51000Y46500D02*Y45500D01*
Y46500D02*X53500Y49000D01*
Y49500D02*Y49000D01*
X55201Y45500D02*X56201D01*
X55701Y49500D02*Y45500D01*
X54701Y48500D02*X55701Y49500D01*
X154350Y119150D02*X155850D01*
X153850Y119650D02*X154350Y119150D01*
X153850Y122650D02*Y119650D01*
Y122650D02*X154350Y123150D01*
X155850D01*
X157051Y119150D02*X159051Y121150D01*
Y122650D02*Y121150D01*
X158551Y123150D02*X159051Y122650D01*
X157551Y123150D02*X158551D01*
X157051Y122650D02*X157551Y123150D01*
X157051Y122650D02*Y121650D01*
X157551Y121150D01*
X159051D01*
X138350Y119150D02*X139850D01*
X137850Y119650D02*X138350Y119150D01*
X137850Y122650D02*Y119650D01*
Y122650D02*X138350Y123150D01*
X139850D01*
X141551Y119150D02*X142551D01*
X142051Y123150D02*Y119150D01*
X141051Y122150D02*X142051Y123150D01*
X143752Y119650D02*X144252Y119150D01*
X143752Y122650D02*Y119650D01*
Y122650D02*X144252Y123150D01*
X145252D01*
X145752Y122650D01*
Y119650D01*
X145252Y119150D02*X145752Y119650D01*
X144252Y119150D02*X145252D01*
X143752Y120150D02*X145752Y122150D01*
X180350Y82150D02*X181850D01*
X179850Y82650D02*X180350Y82150D01*
X179850Y85650D02*Y82650D01*
Y85650D02*X180350Y86150D01*
X181850D01*
X183051Y82650D02*X183551Y82150D01*
X183051Y83650D02*Y82650D01*
Y83650D02*X183551Y84150D01*
X184551D01*
X185051Y83650D01*
Y82650D01*
X184551Y82150D02*X185051Y82650D01*
X183551Y82150D02*X184551D01*
X183051Y84650D02*X183551Y84150D01*
X183051Y85650D02*Y84650D01*
Y85650D02*X183551Y86150D01*
X184551D01*
X185051Y85650D01*
Y84650D01*
X184551Y84150D02*X185051Y84650D01*
X178350Y98650D02*X179850D01*
X177850Y99150D02*X178350Y98650D01*
X177850Y102150D02*Y99150D01*
Y102150D02*X178350Y102650D01*
X179850D01*
X181051Y102150D02*X181551Y102650D01*
X183051D01*
X183551Y102150D01*
Y101150D01*
X181051Y98650D02*X183551Y101150D01*
X181051Y98650D02*X183551D01*
X184752Y102150D02*X185252Y102650D01*
X186752D01*
X187252Y102150D01*
Y101150D01*
X184752Y98650D02*X187252Y101150D01*
X184752Y98650D02*X187252D01*
X99500Y23500D02*X101000D01*
X99000Y24000D02*X99500Y23500D01*
X99000Y27000D02*Y24000D01*
Y27000D02*X99500Y27500D01*
X101000D01*
X102201Y25500D02*X104201Y27500D01*
X102201Y25500D02*X104701D01*
X104201Y27500D02*Y23500D01*
X105902Y24000D02*X106402Y23500D01*
X105902Y27000D02*Y24000D01*
Y27000D02*X106402Y27500D01*
X107402D01*
X107902Y27000D01*
Y24000D01*
X107402Y23500D02*X107902Y24000D01*
X106402Y23500D02*X107402D01*
X105902Y24500D02*X107902Y26500D01*
X106000Y45500D02*X108000D01*
X108500Y45000D01*
Y44000D01*
X108000Y43500D02*X108500Y44000D01*
X106500Y43500D02*X108000D01*
X106500Y45500D02*Y41500D01*
Y43500D02*X108500Y41500D01*
X111201Y45500D02*X111701Y45000D01*
X110201Y45500D02*X111201D01*
X109701Y45000D02*X110201Y45500D01*
X109701Y45000D02*Y42000D01*
X110201Y41500D01*
X111201Y43500D02*X111701Y43000D01*
X109701Y43500D02*X111201D01*
X110201Y41500D02*X111201D01*
X111701Y42000D01*
Y43000D02*Y42000D01*
X89350Y30650D02*X90850D01*
X88850Y31150D02*X89350Y30650D01*
X88850Y34150D02*Y31150D01*
Y34150D02*X89350Y34650D01*
X90850D01*
X92051Y32650D02*X94051Y34650D01*
X92051Y32650D02*X94551D01*
X94051Y34650D02*Y30650D01*
X96252D02*X97252D01*
X96752Y34650D02*Y30650D01*
X95752Y33650D02*X96752Y34650D01*
X178850Y66650D02*X180350D01*
X178350Y67150D02*X178850Y66650D01*
X178350Y70150D02*Y67150D01*
Y70150D02*X178850Y70650D01*
X180350D01*
X181551Y70150D02*X182051Y70650D01*
X183551D01*
X184051Y70150D01*
Y69150D01*
X181551Y66650D02*X184051Y69150D01*
X181551Y66650D02*X184051D01*
X185752D02*X186752D01*
X186252Y70650D02*Y66650D01*
X185252Y69650D02*X186252Y70650D01*
X179350Y49150D02*X180850D01*
X178850Y49650D02*X179350Y49150D01*
X178850Y52650D02*Y49650D01*
Y52650D02*X179350Y53150D01*
X180850D01*
X182051Y49150D02*X184551Y51650D01*
Y53150D02*Y51650D01*
X182051Y53150D02*X184551D01*
X154850Y20650D02*X156350D01*
X154350Y21150D02*X154850Y20650D01*
X154350Y24150D02*Y21150D01*
Y24150D02*X154850Y24650D01*
X156350D01*
X159051D02*X159551Y24150D01*
X158051Y24650D02*X159051D01*
X157551Y24150D02*X158051Y24650D01*
X157551Y24150D02*Y21150D01*
X158051Y20650D01*
X159051Y22650D02*X159551Y22150D01*
X157551Y22650D02*X159051D01*
X158051Y20650D02*X159051D01*
X159551Y21150D01*
Y22150D02*Y21150D01*
X164500Y31500D02*X166000D01*
X164000Y32000D02*X164500Y31500D01*
X164000Y35000D02*Y32000D01*
Y35000D02*X164500Y35500D01*
X166000D01*
X167201Y35000D02*X167701Y35500D01*
X169201D01*
X169701Y35000D01*
Y34000D01*
X167201Y31500D02*X169701Y34000D01*
X167201Y31500D02*X169701D01*
X170902Y32000D02*X171402Y31500D01*
X170902Y35000D02*Y32000D01*
Y35000D02*X171402Y35500D01*
X172402D01*
X172902Y35000D01*
Y32000D01*
X172402Y31500D02*X172902Y32000D01*
X171402Y31500D02*X172402D01*
X170902Y32500D02*X172902Y34500D01*
X144850Y20650D02*X146350D01*
X144350Y21150D02*X144850Y20650D01*
X144350Y24150D02*Y21150D01*
Y24150D02*X144850Y24650D01*
X146350D01*
X148051Y20650D02*X149051D01*
X148551Y24650D02*Y20650D01*
X147551Y23650D02*X148551Y24650D01*
X150252Y20650D02*X152252Y22650D01*
Y24150D02*Y22650D01*
X151752Y24650D02*X152252Y24150D01*
X150752Y24650D02*X151752D01*
X150252Y24150D02*X150752Y24650D01*
X150252Y24150D02*Y23150D01*
X150752Y22650D01*
X152252D01*
X165000Y242500D02*X166500D01*
Y239000D01*
X166000Y238500D02*X166500Y239000D01*
X165500Y238500D02*X166000D01*
X165000Y239000D02*X165500Y238500D01*
X167701Y242000D02*X168201Y242500D01*
X169701D01*
X170201Y242000D01*
Y241000D01*
X167701Y238500D02*X170201Y241000D01*
X167701Y238500D02*X170201D01*
X105000Y241900D02*X106500D01*
Y238400D01*
X106000Y237900D02*X106500Y238400D01*
X105500Y237900D02*X106000D01*
X105000Y238400D02*X105500Y237900D01*
X108201D02*X109201D01*
X108701Y241900D02*Y237900D01*
X107701Y240900D02*X108701Y241900D01*
X99000Y102500D02*X100500D01*
X98500Y103000D02*X99000Y102500D01*
X98500Y106000D02*Y103000D01*
Y106000D02*X99000Y106500D01*
X100500D01*
X102201Y102500D02*X103201D01*
X102701Y106500D02*Y102500D01*
X101701Y105500D02*X102701Y106500D01*
X104402Y106000D02*X104902Y106500D01*
X106402D01*
X106902Y106000D01*
Y105000D01*
X104402Y102500D02*X106902Y105000D01*
X104402Y102500D02*X106902D01*
X53850Y119650D02*X55350D01*
X53350Y120150D02*X53850Y119650D01*
X53350Y123150D02*Y120150D01*
Y123150D02*X53850Y123650D01*
X55350D01*
X57051Y119650D02*X58051D01*
X57551Y123650D02*Y119650D01*
X56551Y122650D02*X57551Y123650D01*
X59252Y120150D02*X59752Y119650D01*
X59252Y121150D02*Y120150D01*
Y121150D02*X59752Y121650D01*
X60752D01*
X61252Y121150D01*
Y120150D01*
X60752Y119650D02*X61252Y120150D01*
X59752Y119650D02*X60752D01*
X59252Y122150D02*X59752Y121650D01*
X59252Y123150D02*Y122150D01*
Y123150D02*X59752Y123650D01*
X60752D01*
X61252Y123150D01*
Y122150D01*
X60752Y121650D02*X61252Y122150D01*
X55350Y67650D02*X57350D01*
X57850Y67150D01*
Y66150D01*
X57350Y65650D02*X57850Y66150D01*
X55850Y65650D02*X57350D01*
X55850Y67650D02*Y63650D01*
Y65650D02*X57850Y63650D01*
X59551D02*X60551D01*
X60051Y67650D02*Y63650D01*
X59051Y66650D02*X60051Y67650D01*
X31000Y100500D02*X33000D01*
X32000D02*Y96500D01*
X34701D02*X35701D01*
X35201Y100500D02*Y96500D01*
X34201Y99500D02*X35201Y100500D01*
X24100Y173472D02*Y169972D01*
X24600Y169472D01*
X25600D01*
X26100Y169972D01*
Y173472D02*Y169972D01*
X27301Y172972D02*X27801Y173472D01*
X29301D01*
X29801Y172972D01*
Y171972D01*
X27301Y169472D02*X29801Y171972D01*
X27301Y169472D02*X29801D01*
X8877Y212500D02*X10377D01*
X8377Y213000D02*X8877Y212500D01*
X8377Y216000D02*Y213000D01*
Y216000D02*X8877Y216500D01*
X10377D01*
X11578Y216000D02*Y213000D01*
Y216000D02*X12078Y216500D01*
X13078D01*
X13578Y216000D01*
Y213000D01*
X13078Y212500D02*X13578Y213000D01*
X12078Y212500D02*X13078D01*
X11578Y213000D02*X12078Y212500D01*
X14779Y216500D02*Y212500D01*
Y216500D02*Y216000D01*
X17279Y213500D01*
Y216500D02*Y212500D01*
X18480Y216500D02*Y212500D01*
Y216500D02*Y216000D01*
X20980Y213500D01*
Y216500D02*Y212500D01*
X22681D02*X23681D01*
X23181Y216500D02*Y212500D01*
X22181Y215500D02*X23181Y216500D01*
X56350Y154650D02*X57850D01*
X55850Y155150D02*X56350Y154650D01*
X55850Y158150D02*Y155150D01*
Y158150D02*X56350Y158650D01*
X57850D01*
X59051Y158150D02*X59551Y158650D01*
X60551D01*
X61051Y158150D01*
Y155150D01*
X60551Y154650D02*X61051Y155150D01*
X59551Y154650D02*X60551D01*
X59051Y155150D02*X59551Y154650D01*
Y156650D02*X61051D01*
X52350Y141650D02*X53850D01*
X51850Y142150D02*X52350Y141650D01*
X51850Y145150D02*Y142150D01*
Y145150D02*X52350Y145650D01*
X53850D01*
X55551Y141650D02*X56551D01*
X56051Y145650D02*Y141650D01*
X55051Y144650D02*X56051Y145650D01*
X57752Y141650D02*X60252Y144150D01*
Y145650D02*Y144150D01*
X57752Y145650D02*X60252D01*
X24100Y138800D02*Y135300D01*
X24600Y134800D01*
X25600D01*
X26100Y135300D01*
Y138800D02*Y135300D01*
X27301Y138300D02*X27801Y138800D01*
X28801D01*
X29301Y138300D01*
Y135300D01*
X28801Y134800D02*X29301Y135300D01*
X27801Y134800D02*X28801D01*
X27301Y135300D02*X27801Y134800D01*
Y136800D02*X29301D01*
X53350Y177150D02*X54850D01*
X52850Y177650D02*X53350Y177150D01*
X52850Y180650D02*Y177650D01*
Y180650D02*X53350Y181150D01*
X54850D01*
X56051Y180650D02*X56551Y181150D01*
X58051D01*
X58551Y180650D01*
Y179650D01*
X56051Y177150D02*X58551Y179650D01*
X56051Y177150D02*X58551D01*
X25500Y183000D02*X27000D01*
X25000Y183500D02*X25500Y183000D01*
X25000Y186500D02*Y183500D01*
Y186500D02*X25500Y187000D01*
X27000D01*
X28701Y183000D02*X29701D01*
X29201Y187000D02*Y183000D01*
X28201Y186000D02*X29201Y187000D01*
X90000Y88500D02*X91500D01*
X89500Y89000D02*X90000Y88500D01*
X89500Y92000D02*Y89000D01*
Y92000D02*X90000Y92500D01*
X91500D01*
X93201Y88500D02*X94201D01*
X93701Y92500D02*Y88500D01*
X92701Y91500D02*X93701Y92500D01*
X95402D02*X97402D01*
X95402D02*Y90500D01*
X95902Y91000D01*
X96902D01*
X97402Y90500D01*
Y89000D01*
X96902Y88500D02*X97402Y89000D01*
X95902Y88500D02*X96902D01*
X95402Y89000D02*X95902Y88500D01*
X59350Y96650D02*X61350D01*
X61850Y96150D01*
Y95150D01*
X61350Y94650D02*X61850Y95150D01*
X59850Y94650D02*X61350D01*
X59850Y96650D02*Y92650D01*
Y94650D02*X61850Y92650D01*
X63051Y94650D02*X65051Y96650D01*
X63051Y94650D02*X65551D01*
X65051Y96650D02*Y92650D01*
X85500Y105500D02*X87000D01*
X85000Y106000D02*X85500Y105500D01*
X85000Y109000D02*Y106000D01*
Y109000D02*X85500Y109500D01*
X87000D01*
X88701Y105500D02*X89701D01*
X89201Y109500D02*Y105500D01*
X88201Y108500D02*X89201Y109500D01*
X90902Y107500D02*X92902Y109500D01*
X90902Y107500D02*X93402D01*
X92902Y109500D02*Y105500D01*
M02*
