M48
INCH
T14C0.030
T15C0.060
T28C0.038
T31C0.028
T33C0.014
T34C0.100
T36C0.102
T37C0.122
%
T33
X002700Y015500
X002700Y016400
X006200Y013800
X006200Y017300
X006600Y012900
X006600Y016400
X008100Y014000
X008100Y019000
X001500Y009550
X002700Y012900
X002700Y012000
X001500Y010550
X007100Y009900
X008300Y009600
X008300Y010200
X006000Y010700
X005550Y008950
X009100Y007900
X008700Y008800
X008400Y003100
X007900Y006700
X009100Y006300
X005550Y007250
X006400Y008200
X003700Y004600
X003350Y004200
X003350Y006000
X003350Y005100
X003700Y005600
X004100Y006000
X006400Y003100
X004100Y005100
X004100Y004200
X003700Y006400
X003350Y007800
X003350Y006900
X004100Y006900
X004100Y007800
X003700Y007400
X001250Y007800
X001250Y006900
X000900Y007400
X000500Y007800
X000500Y006900
X001250Y005100
X000900Y004600
X001250Y004200
X000900Y005600
X001250Y006000
X000900Y006400
X000500Y005100
X000500Y006000
X000500Y004200
X015000Y012700
X019300Y013550
X015100Y010400
X015000Y011500
X013700Y010400
X013500Y003900
X013500Y002700
X013700Y009200
X015900Y005000
X015400Y003900
X015100Y005000
X016000Y003900
X014200Y003900
X014800Y003900
X014700Y005000
X014100Y005000
X012100Y003900
X014200Y002700
X016000Y002700
X015400Y002700
X014800Y002700
X011700Y003600
X012400Y003600
X013400Y011500
X011600Y011700
X013400Y012700
X010000Y006000
X010000Y008000
X010000Y008800
X010000Y006700
X009500Y005000
X010400Y004600
X010000Y009600
X009600Y010100
X009600Y009700
X011000Y011600
X011050Y008850
X011050Y007500
X011050Y008250
X010700Y001100
X012300Y000600
X011100Y010900
X009600Y010900
X009600Y010500
X019500Y019000
X018800Y006300
X018800Y005700
X017600Y006300
X017600Y005700
X017600Y009000
X017600Y009500
X015100Y009200
X018800Y009000
X018800Y009500
X018300Y011000
X018300Y010600
X018300Y010200
X018100Y002000
X018700Y002000
X019300Y002000
T31
X008400Y004800
X006400Y004800
T14
X004500Y019500
X003500Y019500
T28
X008790Y019000
X008790Y018000
X008790Y017000
X009790Y019000
X009790Y018000
X009790Y017000
X009790Y016000
X009790Y015000
X009790Y014000
X008790Y016000
X008790Y015000
X008790Y014000
X008790Y013000
X009790Y013000
X008790Y012000
X009790Y012000
X008790Y022000
X009790Y022000
X008790Y021000
X009790Y021000
X008790Y024000
X009790Y024000
X008790Y023000
X009790Y023000
X008790Y020000
X009790Y020000
X017800Y024000
X018800Y024000
X017800Y023000
X018800Y023000
X017800Y022000
X018800Y022000
X017800Y021000
X018800Y021000
X018800Y020000
X018800Y019000
X017800Y020000
X017800Y019000
X017800Y018000
X017800Y017000
X017800Y016000
X017800Y015000
X018800Y018000
X018800Y017000
X018800Y016000
X018800Y015000
X017800Y014000
X018800Y014000
X018800Y013000
X018800Y012000
X017800Y013000
X017800Y012000
T15
X001300Y003300
X003300Y003300
X002300Y002300
X001300Y001300
X003300Y001300
T34
X013800Y007700
T36
X003637Y022700
T37
X006000Y022700
M30
