G04 start of page 5 for group 3 idx 3 *
G04 Title: (unknown), solder *
G04 Creator: pcb 1.99z *
G04 CreationDate: Sun 01 Aug 2010 05:53:12 AM GMT UTC *
G04 For: jensen *
G04 Format: Gerber/RS-274X *
G04 PCB-Dimensions: 200000 250000 *
G04 PCB-Coordinate-Origin: lower left *
%MOIN*%
%FSLAX25Y25*%
%LNBACK*%
%ADD11C,0.0200*%
%ADD13C,0.0080*%
%ADD14C,0.0300*%
%ADD15C,0.0600*%
%ADD16C,0.1811*%
%ADD17C,0.2008*%
%ADD18C,0.1000*%
%ADD19C,0.0260*%
%ADD20C,0.1250*%
%ADD23R,0.0295X0.0295*%
%ADD24R,0.0512X0.0512*%
%ADD28C,0.0380*%
%ADD29C,0.1024*%
%ADD30C,0.1220*%
%ADD31C,0.0280*%
%ADD32C,0.0600*%
%ADD33C,0.0140*%
%ADD34C,0.1000*%
G54D11*G36*
X28530Y133000D02*X54000D01*
Y130000D01*
X48000D01*
Y103000D01*
X54000D01*
Y90661D01*
X53963Y90617D01*
X53807Y90363D01*
X53693Y90087D01*
X53623Y89797D01*
X53600Y89500D01*
X53623Y89203D01*
X53693Y88913D01*
X53807Y88637D01*
X53963Y88383D01*
X54000Y88339D01*
Y85000D01*
X28530D01*
Y118875D01*
X28537Y118883D01*
X28693Y119137D01*
X28807Y119413D01*
X28877Y119703D01*
X28900Y120000D01*
X28877Y120297D01*
X28807Y120587D01*
X28693Y120863D01*
X28537Y121117D01*
X28530Y121125D01*
Y128082D01*
X28540Y128083D01*
X28584Y128097D01*
X28627Y128118D01*
X28665Y128145D01*
X28698Y128178D01*
X28726Y128216D01*
X28748Y128258D01*
X28809Y128420D01*
X28854Y128587D01*
X28884Y128758D01*
X28898Y128931D01*
X28897Y129104D01*
X28879Y129276D01*
X28847Y129446D01*
X28798Y129612D01*
X28735Y129773D01*
X28713Y129814D01*
X28684Y129852D01*
X28650Y129884D01*
X28611Y129911D01*
X28568Y129931D01*
X28530Y129942D01*
Y133000D01*
G37*
G36*
Y85000D02*X27000D01*
Y118100D01*
X27297Y118123D01*
X27587Y118193D01*
X27863Y118307D01*
X28117Y118463D01*
X28344Y118656D01*
X28530Y118875D01*
Y85000D01*
G37*
G36*
X27000Y133000D02*X28530D01*
Y129942D01*
X28523Y129944D01*
X28477Y129951D01*
X28430Y129949D01*
X28383Y129941D01*
X28339Y129925D01*
X28298Y129903D01*
X28260Y129874D01*
X28228Y129840D01*
X28201Y129801D01*
X28181Y129758D01*
X28168Y129713D01*
X28161Y129667D01*
X28163Y129620D01*
X28171Y129573D01*
X28187Y129529D01*
X28230Y129419D01*
X28263Y129305D01*
X28286Y129189D01*
X28298Y129071D01*
X28299Y128953D01*
X28289Y128835D01*
X28268Y128718D01*
X28237Y128604D01*
X28196Y128493D01*
X28181Y128447D01*
X28173Y128401D01*
Y128354D01*
X28180Y128307D01*
X28194Y128263D01*
X28215Y128220D01*
X28242Y128182D01*
X28275Y128149D01*
X28313Y128121D01*
X28355Y128099D01*
X28400Y128084D01*
X28446Y128076D01*
X28493D01*
X28530Y128082D01*
Y121125D01*
X28344Y121344D01*
X28117Y121537D01*
X27863Y121693D01*
X27587Y121807D01*
X27297Y121877D01*
X27000Y121900D01*
Y127102D01*
X27103Y127103D01*
X27275Y127121D01*
X27445Y127153D01*
X27611Y127202D01*
X27772Y127265D01*
X27813Y127287D01*
X27851Y127316D01*
X27883Y127350D01*
X27910Y127389D01*
X27930Y127432D01*
X27943Y127477D01*
X27950Y127523D01*
X27948Y127570D01*
X27940Y127617D01*
X27924Y127661D01*
X27902Y127702D01*
X27873Y127740D01*
X27839Y127772D01*
X27800Y127799D01*
X27757Y127819D01*
X27712Y127832D01*
X27666Y127839D01*
X27619Y127837D01*
X27572Y127829D01*
X27528Y127813D01*
X27418Y127770D01*
X27304Y127737D01*
X27188Y127714D01*
X27070Y127702D01*
X27000Y127701D01*
Y130300D01*
X27047D01*
X27165Y130290D01*
X27282Y130269D01*
X27396Y130238D01*
X27507Y130197D01*
X27553Y130182D01*
X27599Y130174D01*
X27646D01*
X27693Y130181D01*
X27737Y130195D01*
X27780Y130216D01*
X27818Y130243D01*
X27851Y130276D01*
X27879Y130314D01*
X27901Y130356D01*
X27916Y130401D01*
X27924Y130447D01*
Y130494D01*
X27917Y130541D01*
X27903Y130585D01*
X27882Y130628D01*
X27855Y130666D01*
X27822Y130699D01*
X27784Y130727D01*
X27742Y130749D01*
X27580Y130810D01*
X27413Y130855D01*
X27242Y130885D01*
X27069Y130899D01*
X27000D01*
Y133000D01*
G37*
G36*
X25470Y118875D02*X25656Y118656D01*
X25883Y118463D01*
X26137Y118307D01*
X26413Y118193D01*
X26703Y118123D01*
X27000Y118100D01*
Y85000D01*
X25470D01*
Y118875D01*
G37*
G36*
Y133000D02*X27000D01*
Y130899D01*
X26896Y130898D01*
X26724Y130880D01*
X26554Y130848D01*
X26388Y130799D01*
X26227Y130736D01*
X26186Y130714D01*
X26148Y130685D01*
X26116Y130651D01*
X26089Y130612D01*
X26069Y130569D01*
X26056Y130524D01*
X26049Y130478D01*
X26051Y130431D01*
X26059Y130384D01*
X26075Y130340D01*
X26097Y130299D01*
X26126Y130261D01*
X26160Y130229D01*
X26199Y130202D01*
X26242Y130182D01*
X26287Y130169D01*
X26333Y130162D01*
X26380Y130164D01*
X26427Y130172D01*
X26471Y130188D01*
X26581Y130231D01*
X26695Y130264D01*
X26811Y130287D01*
X26929Y130299D01*
X27000Y130300D01*
Y127701D01*
X26952D01*
X26834Y127711D01*
X26717Y127732D01*
X26603Y127763D01*
X26492Y127804D01*
X26446Y127819D01*
X26400Y127827D01*
X26353D01*
X26306Y127820D01*
X26262Y127806D01*
X26219Y127785D01*
X26181Y127758D01*
X26148Y127725D01*
X26120Y127687D01*
X26098Y127645D01*
X26083Y127600D01*
X26075Y127554D01*
Y127507D01*
X26082Y127460D01*
X26096Y127416D01*
X26117Y127373D01*
X26144Y127335D01*
X26177Y127302D01*
X26215Y127274D01*
X26257Y127252D01*
X26419Y127191D01*
X26586Y127146D01*
X26757Y127116D01*
X26930Y127102D01*
X27000D01*
Y121900D01*
X26703Y121877D01*
X26413Y121807D01*
X26137Y121693D01*
X25883Y121537D01*
X25656Y121344D01*
X25470Y121125D01*
Y128059D01*
X25476Y128057D01*
X25522Y128050D01*
X25569Y128052D01*
X25616Y128060D01*
X25660Y128076D01*
X25701Y128098D01*
X25739Y128127D01*
X25771Y128161D01*
X25798Y128200D01*
X25818Y128243D01*
X25831Y128288D01*
X25838Y128334D01*
X25836Y128381D01*
X25828Y128428D01*
X25812Y128472D01*
X25769Y128582D01*
X25736Y128696D01*
X25713Y128812D01*
X25701Y128930D01*
X25700Y129048D01*
X25710Y129166D01*
X25731Y129283D01*
X25762Y129397D01*
X25803Y129508D01*
X25818Y129554D01*
X25826Y129600D01*
Y129647D01*
X25819Y129694D01*
X25805Y129738D01*
X25784Y129781D01*
X25757Y129819D01*
X25724Y129852D01*
X25686Y129880D01*
X25644Y129902D01*
X25599Y129917D01*
X25553Y129925D01*
X25506D01*
X25470Y129920D01*
Y133000D01*
G37*
G36*
X15000Y85000D02*Y93400D01*
X15329Y93426D01*
X15649Y93503D01*
X15953Y93629D01*
X16234Y93801D01*
X16485Y94015D01*
X16699Y94266D01*
X16871Y94547D01*
X16997Y94851D01*
X17074Y95171D01*
X17100Y95500D01*
X17074Y95829D01*
X16997Y96149D01*
X16871Y96453D01*
X16699Y96734D01*
X16485Y96985D01*
X16234Y97199D01*
X15953Y97371D01*
X15649Y97497D01*
X15329Y97574D01*
X15000Y97600D01*
Y103400D01*
X15329Y103426D01*
X15649Y103503D01*
X15953Y103629D01*
X16234Y103801D01*
X16485Y104015D01*
X16699Y104266D01*
X16871Y104547D01*
X16997Y104851D01*
X17074Y105171D01*
X17100Y105500D01*
X17074Y105829D01*
X16997Y106149D01*
X16871Y106453D01*
X16699Y106734D01*
X16485Y106985D01*
X16234Y107199D01*
X15953Y107371D01*
X15649Y107497D01*
X15329Y107574D01*
X15000Y107600D01*
Y133000D01*
X25470D01*
Y129920D01*
X25459Y129918D01*
X25415Y129904D01*
X25372Y129883D01*
X25334Y129856D01*
X25301Y129823D01*
X25273Y129785D01*
X25251Y129743D01*
X25190Y129581D01*
X25145Y129414D01*
X25115Y129243D01*
X25101Y129070D01*
X25102Y128897D01*
X25120Y128725D01*
X25152Y128555D01*
X25201Y128389D01*
X25264Y128228D01*
X25286Y128187D01*
X25315Y128149D01*
X25349Y128117D01*
X25388Y128090D01*
X25431Y128070D01*
X25470Y128059D01*
Y121125D01*
X25463Y121117D01*
X25307Y120863D01*
X25193Y120587D01*
X25123Y120297D01*
X25100Y120000D01*
X25123Y119703D01*
X25193Y119413D01*
X25307Y119137D01*
X25463Y118883D01*
X25470Y118875D01*
Y85000D01*
X15000D01*
G37*
G36*
X101657Y101845D02*X102105Y101847D01*
X102288Y101891D01*
X102462Y101963D01*
X102622Y102061D01*
X102766Y102183D01*
X102888Y102327D01*
X102986Y102487D01*
X103000Y102521D01*
X103014Y102487D01*
X103112Y102327D01*
X103234Y102183D01*
X103378Y102061D01*
X103538Y101963D01*
X103712Y101891D01*
X103895Y101847D01*
X104083Y101832D01*
X107223Y101847D01*
X107406Y101891D01*
X107580Y101963D01*
X107740Y102061D01*
X107884Y102183D01*
X108006Y102327D01*
X108104Y102487D01*
X108176Y102661D01*
X108220Y102844D01*
X108235Y103032D01*
X108220Y107156D01*
X108176Y107339D01*
X108104Y107513D01*
X108006Y107673D01*
X107884Y107817D01*
X107740Y107939D01*
X107580Y108037D01*
X107406Y108109D01*
X107223Y108153D01*
X107035Y108168D01*
X103895Y108153D01*
X103712Y108109D01*
X103538Y108037D01*
X103378Y107939D01*
X103234Y107817D01*
X103112Y107673D01*
X103014Y107513D01*
X103000Y107479D01*
X102986Y107513D01*
X102888Y107673D01*
X102766Y107817D01*
X102622Y107939D01*
X102462Y108037D01*
X102288Y108109D01*
X102105Y108153D01*
X101917Y108168D01*
X101657Y108167D01*
Y111000D01*
X109000D01*
Y109642D01*
X108952Y109468D01*
X108919Y109282D01*
X108902Y109095D01*
Y108906D01*
X108919Y108719D01*
X108952Y108533D01*
X109000Y108359D01*
Y92519D01*
X108548Y92331D01*
X107973Y91979D01*
X107459Y91541D01*
X107021Y91027D01*
X106669Y90452D01*
X106410Y89829D01*
X106253Y89173D01*
X106200Y88500D01*
X106253Y87827D01*
X106410Y87171D01*
X106669Y86548D01*
X107021Y85973D01*
X107424Y85500D01*
X107021Y85027D01*
X107004Y85000D01*
X101657D01*
Y87078D01*
X101679Y87080D01*
X101740Y87094D01*
X101798Y87119D01*
X101852Y87152D01*
X101900Y87192D01*
X101940Y87240D01*
X101973Y87294D01*
X101997Y87352D01*
X102047Y87533D01*
X102080Y87719D01*
X102097Y87906D01*
Y88095D01*
X102080Y88282D01*
X102047Y88468D01*
X101997Y88649D01*
X101972Y88708D01*
X101939Y88761D01*
X101898Y88809D01*
X101851Y88850D01*
X101797Y88882D01*
X101739Y88906D01*
X101678Y88921D01*
X101657Y88923D01*
Y95078D01*
X101693Y95137D01*
X101807Y95413D01*
X101877Y95703D01*
X101900Y96000D01*
X101877Y96297D01*
X101807Y96587D01*
X101693Y96863D01*
X101657Y96922D01*
Y101845D01*
G37*
G36*
Y85000D02*X100000D01*
Y85903D01*
X100094D01*
X100281Y85920D01*
X100467Y85953D01*
X100648Y86003D01*
X100707Y86028D01*
X100760Y86061D01*
X100808Y86102D01*
X100849Y86149D01*
X100881Y86203D01*
X100905Y86261D01*
X100920Y86322D01*
X100925Y86385D01*
X100920Y86447D01*
X100905Y86508D01*
X100881Y86566D01*
X100848Y86619D01*
X100807Y86667D01*
X100760Y86708D01*
X100706Y86740D01*
X100648Y86764D01*
X100587Y86779D01*
X100524Y86784D01*
X100462Y86779D01*
X100401Y86764D01*
X100289Y86733D01*
X100174Y86712D01*
X100058Y86702D01*
X100000D01*
Y89299D01*
X100058D01*
X100174Y89289D01*
X100289Y89268D01*
X100401Y89237D01*
X100463Y89221D01*
X100526Y89217D01*
X100588Y89222D01*
X100649Y89236D01*
X100707Y89261D01*
X100761Y89294D01*
X100809Y89334D01*
X100849Y89382D01*
X100882Y89436D01*
X100906Y89494D01*
X100921Y89555D01*
X100925Y89618D01*
X100920Y89680D01*
X100906Y89741D01*
X100881Y89799D01*
X100848Y89853D01*
X100808Y89901D01*
X100760Y89941D01*
X100706Y89974D01*
X100648Y89998D01*
X100467Y90048D01*
X100281Y90081D01*
X100094Y90098D01*
X100000D01*
Y94100D01*
X100297Y94123D01*
X100587Y94193D01*
X100863Y94307D01*
X101117Y94463D01*
X101344Y94656D01*
X101537Y94883D01*
X101657Y95078D01*
Y88923D01*
X101615Y88926D01*
X101553Y88921D01*
X101492Y88906D01*
X101434Y88882D01*
X101381Y88849D01*
X101333Y88808D01*
X101292Y88761D01*
X101260Y88707D01*
X101236Y88649D01*
X101221Y88588D01*
X101216Y88525D01*
X101221Y88463D01*
X101236Y88402D01*
X101267Y88290D01*
X101288Y88175D01*
X101298Y88059D01*
Y87942D01*
X101288Y87826D01*
X101267Y87711D01*
X101236Y87599D01*
X101220Y87537D01*
X101216Y87474D01*
X101221Y87412D01*
X101235Y87351D01*
X101260Y87293D01*
X101293Y87239D01*
X101333Y87191D01*
X101381Y87151D01*
X101435Y87118D01*
X101493Y87094D01*
X101554Y87079D01*
X101617Y87075D01*
X101657Y87078D01*
Y85000D01*
G37*
G36*
Y108167D02*X100000Y108159D01*
Y111000D01*
X101657D01*
Y108167D01*
G37*
G36*
X100000Y101837D02*X101657Y101845D01*
Y96922D01*
X101537Y97117D01*
X101344Y97344D01*
X101117Y97537D01*
X100863Y97693D01*
X100587Y97807D01*
X100297Y97877D01*
X100000Y97900D01*
Y101837D01*
G37*
G36*
Y108159D02*X98777Y108153D01*
X98594Y108109D01*
X98420Y108037D01*
X98260Y107939D01*
X98116Y107817D01*
X97994Y107673D01*
X97896Y107513D01*
X97891Y107501D01*
X97657D01*
Y107717D01*
X97699Y107766D01*
X97871Y108047D01*
X97997Y108351D01*
X98074Y108671D01*
X98100Y109000D01*
X98074Y109329D01*
X97997Y109649D01*
X97871Y109953D01*
X97699Y110234D01*
X97657Y110283D01*
Y111000D01*
X100000D01*
Y108159D01*
G37*
G36*
X97657Y102500D02*X97891D01*
X97896Y102487D01*
X97994Y102327D01*
X98116Y102183D01*
X98260Y102061D01*
X98420Y101963D01*
X98594Y101891D01*
X98777Y101847D01*
X98965Y101832D01*
X100000Y101837D01*
Y97900D01*
X99703Y97877D01*
X99413Y97807D01*
X99137Y97693D01*
X98883Y97537D01*
X98656Y97344D01*
X98463Y97117D01*
X98307Y96863D01*
X98193Y96587D01*
X98123Y96297D01*
X98100Y96000D01*
X98123Y95703D01*
X98193Y95413D01*
X98307Y95137D01*
X98463Y94883D01*
X98656Y94656D01*
X98883Y94463D01*
X99137Y94307D01*
X99413Y94193D01*
X99703Y94123D01*
X100000Y94100D01*
Y90098D01*
X99905D01*
X99718Y90081D01*
X99532Y90048D01*
X99351Y89998D01*
X99292Y89973D01*
X99239Y89940D01*
X99191Y89899D01*
X99150Y89852D01*
X99118Y89798D01*
X99094Y89740D01*
X99079Y89679D01*
X99074Y89616D01*
X99079Y89554D01*
X99094Y89493D01*
X99118Y89435D01*
X99151Y89382D01*
X99192Y89334D01*
X99239Y89293D01*
X99293Y89261D01*
X99351Y89237D01*
X99412Y89222D01*
X99475Y89217D01*
X99537Y89222D01*
X99598Y89237D01*
X99710Y89268D01*
X99825Y89289D01*
X99941Y89299D01*
X100000D01*
Y86702D01*
X99941D01*
X99825Y86712D01*
X99710Y86733D01*
X99598Y86764D01*
X99536Y86780D01*
X99473Y86784D01*
X99411Y86779D01*
X99350Y86765D01*
X99292Y86740D01*
X99238Y86707D01*
X99190Y86667D01*
X99150Y86619D01*
X99117Y86565D01*
X99093Y86507D01*
X99078Y86446D01*
X99074Y86383D01*
X99079Y86321D01*
X99093Y86260D01*
X99118Y86202D01*
X99151Y86148D01*
X99191Y86100D01*
X99239Y86060D01*
X99293Y86027D01*
X99351Y86003D01*
X99532Y85953D01*
X99718Y85920D01*
X99905Y85903D01*
X100000D01*
Y85000D01*
X98140D01*
X98240Y85061D01*
X98384Y85183D01*
X98506Y85327D01*
X98604Y85487D01*
X98676Y85661D01*
X98720Y85844D01*
X98735Y86032D01*
X98730Y87280D01*
X98739Y87294D01*
X98763Y87352D01*
X98778Y87413D01*
X98783Y87476D01*
X98778Y87538D01*
X98763Y87599D01*
X98732Y87711D01*
X98728Y87731D01*
X98726Y88259D01*
X98732Y88290D01*
X98763Y88402D01*
X98779Y88464D01*
X98783Y88527D01*
X98778Y88589D01*
X98764Y88650D01*
X98739Y88708D01*
X98725Y88732D01*
X98720Y90156D01*
X98676Y90339D01*
X98604Y90513D01*
X98506Y90673D01*
X98384Y90817D01*
X98240Y90939D01*
X98080Y91037D01*
X97906Y91109D01*
X97723Y91153D01*
X97657Y91158D01*
Y96078D01*
X97679Y96080D01*
X97740Y96094D01*
X97798Y96119D01*
X97852Y96152D01*
X97900Y96192D01*
X97940Y96240D01*
X97973Y96294D01*
X97997Y96352D01*
X98047Y96533D01*
X98080Y96719D01*
X98097Y96906D01*
Y97095D01*
X98080Y97282D01*
X98047Y97468D01*
X97997Y97649D01*
X97972Y97708D01*
X97939Y97761D01*
X97898Y97809D01*
X97851Y97850D01*
X97797Y97882D01*
X97739Y97906D01*
X97678Y97921D01*
X97657Y97923D01*
Y100078D01*
X97679Y100080D01*
X97740Y100094D01*
X97798Y100119D01*
X97852Y100152D01*
X97900Y100192D01*
X97940Y100240D01*
X97973Y100294D01*
X97997Y100352D01*
X98047Y100533D01*
X98080Y100719D01*
X98097Y100906D01*
Y101095D01*
X98080Y101282D01*
X98047Y101468D01*
X97997Y101649D01*
X97972Y101708D01*
X97939Y101761D01*
X97898Y101809D01*
X97851Y101850D01*
X97797Y101882D01*
X97739Y101906D01*
X97678Y101921D01*
X97657Y101923D01*
Y102500D01*
G37*
G36*
Y110283D02*X97485Y110485D01*
X97234Y110699D01*
X96953Y110871D01*
X96649Y110997D01*
X96637Y111000D01*
X97657D01*
Y110283D01*
G37*
G36*
Y107501D02*X97469D01*
X97485Y107515D01*
X97657Y107717D01*
Y107501D01*
G37*
G36*
X96000Y102299D02*X96058D01*
X96174Y102289D01*
X96289Y102268D01*
X96401Y102237D01*
X96463Y102221D01*
X96526Y102217D01*
X96588Y102222D01*
X96649Y102236D01*
X96707Y102261D01*
X96761Y102294D01*
X96809Y102334D01*
X96849Y102382D01*
X96882Y102436D01*
X96906Y102494D01*
X96907Y102500D01*
X97657D01*
Y101923D01*
X97615Y101926D01*
X97553Y101921D01*
X97492Y101906D01*
X97434Y101882D01*
X97381Y101849D01*
X97333Y101808D01*
X97292Y101761D01*
X97260Y101707D01*
X97236Y101649D01*
X97221Y101588D01*
X97216Y101525D01*
X97221Y101463D01*
X97236Y101402D01*
X97267Y101290D01*
X97288Y101175D01*
X97298Y101059D01*
Y100942D01*
X97288Y100826D01*
X97267Y100711D01*
X97236Y100599D01*
X97220Y100537D01*
X97216Y100474D01*
X97221Y100412D01*
X97235Y100351D01*
X97260Y100293D01*
X97293Y100239D01*
X97333Y100191D01*
X97381Y100151D01*
X97435Y100118D01*
X97493Y100094D01*
X97554Y100079D01*
X97617Y100075D01*
X97657Y100078D01*
Y97923D01*
X97615Y97926D01*
X97553Y97921D01*
X97492Y97906D01*
X97434Y97882D01*
X97381Y97849D01*
X97333Y97808D01*
X97292Y97761D01*
X97260Y97707D01*
X97236Y97649D01*
X97221Y97588D01*
X97216Y97525D01*
X97221Y97463D01*
X97236Y97402D01*
X97267Y97290D01*
X97288Y97175D01*
X97298Y97059D01*
Y96942D01*
X97288Y96826D01*
X97267Y96711D01*
X97236Y96599D01*
X97220Y96537D01*
X97216Y96474D01*
X97221Y96412D01*
X97235Y96351D01*
X97260Y96293D01*
X97293Y96239D01*
X97333Y96191D01*
X97381Y96151D01*
X97435Y96118D01*
X97493Y96094D01*
X97554Y96079D01*
X97617Y96075D01*
X97657Y96078D01*
Y91158D01*
X97535Y91168D01*
X96000Y91161D01*
Y94903D01*
X96094D01*
X96281Y94920D01*
X96467Y94953D01*
X96648Y95003D01*
X96707Y95028D01*
X96760Y95061D01*
X96808Y95102D01*
X96849Y95149D01*
X96881Y95203D01*
X96905Y95261D01*
X96920Y95322D01*
X96925Y95385D01*
X96920Y95447D01*
X96905Y95508D01*
X96881Y95566D01*
X96848Y95619D01*
X96807Y95667D01*
X96760Y95708D01*
X96706Y95740D01*
X96648Y95764D01*
X96587Y95779D01*
X96524Y95784D01*
X96462Y95779D01*
X96401Y95764D01*
X96289Y95733D01*
X96174Y95712D01*
X96058Y95702D01*
X96000D01*
Y98299D01*
X96058D01*
X96174Y98289D01*
X96289Y98268D01*
X96401Y98237D01*
X96463Y98221D01*
X96526Y98217D01*
X96588Y98222D01*
X96649Y98236D01*
X96707Y98261D01*
X96761Y98294D01*
X96809Y98334D01*
X96849Y98382D01*
X96882Y98436D01*
X96906Y98494D01*
X96921Y98555D01*
X96925Y98618D01*
X96920Y98680D01*
X96906Y98741D01*
X96881Y98799D01*
X96848Y98853D01*
X96808Y98901D01*
X96760Y98941D01*
X96706Y98974D01*
X96648Y98998D01*
X96639Y99001D01*
X96648Y99003D01*
X96707Y99028D01*
X96760Y99061D01*
X96808Y99102D01*
X96849Y99149D01*
X96881Y99203D01*
X96905Y99261D01*
X96920Y99322D01*
X96925Y99385D01*
X96920Y99447D01*
X96905Y99508D01*
X96881Y99566D01*
X96848Y99619D01*
X96807Y99667D01*
X96760Y99708D01*
X96706Y99740D01*
X96648Y99764D01*
X96587Y99779D01*
X96524Y99784D01*
X96462Y99779D01*
X96401Y99764D01*
X96289Y99733D01*
X96174Y99712D01*
X96058Y99702D01*
X96000D01*
Y102299D01*
G37*
G36*
X94343Y103137D02*X94531Y102977D01*
X94865Y102772D01*
X95080Y102683D01*
X95079Y102679D01*
X95074Y102616D01*
X95079Y102554D01*
X95094Y102493D01*
X95118Y102435D01*
X95151Y102382D01*
X95192Y102334D01*
X95239Y102293D01*
X95293Y102261D01*
X95351Y102237D01*
X95412Y102222D01*
X95475Y102217D01*
X95537Y102222D01*
X95598Y102237D01*
X95710Y102268D01*
X95825Y102289D01*
X95941Y102299D01*
X96000D01*
Y99702D01*
X95941D01*
X95825Y99712D01*
X95710Y99733D01*
X95598Y99764D01*
X95536Y99780D01*
X95473Y99784D01*
X95411Y99779D01*
X95350Y99765D01*
X95292Y99740D01*
X95238Y99707D01*
X95190Y99667D01*
X95150Y99619D01*
X95117Y99565D01*
X95093Y99507D01*
X95078Y99446D01*
X95074Y99383D01*
X95079Y99321D01*
X95093Y99260D01*
X95118Y99202D01*
X95151Y99148D01*
X95191Y99100D01*
X95239Y99060D01*
X95293Y99027D01*
X95351Y99003D01*
X95360Y99000D01*
X95351Y98998D01*
X95292Y98973D01*
X95239Y98940D01*
X95191Y98899D01*
X95150Y98852D01*
X95118Y98798D01*
X95094Y98740D01*
X95079Y98679D01*
X95074Y98616D01*
X95079Y98554D01*
X95094Y98493D01*
X95118Y98435D01*
X95151Y98382D01*
X95192Y98334D01*
X95239Y98293D01*
X95293Y98261D01*
X95351Y98237D01*
X95412Y98222D01*
X95475Y98217D01*
X95537Y98222D01*
X95598Y98237D01*
X95710Y98268D01*
X95825Y98289D01*
X95941Y98299D01*
X96000D01*
Y95702D01*
X95941D01*
X95825Y95712D01*
X95710Y95733D01*
X95598Y95764D01*
X95536Y95780D01*
X95473Y95784D01*
X95411Y95779D01*
X95350Y95765D01*
X95292Y95740D01*
X95238Y95707D01*
X95190Y95667D01*
X95150Y95619D01*
X95117Y95565D01*
X95093Y95507D01*
X95078Y95446D01*
X95074Y95383D01*
X95079Y95321D01*
X95093Y95260D01*
X95118Y95202D01*
X95151Y95148D01*
X95191Y95100D01*
X95239Y95060D01*
X95293Y95027D01*
X95351Y95003D01*
X95532Y94953D01*
X95718Y94920D01*
X95905Y94903D01*
X96000D01*
Y91161D01*
X94395Y91153D01*
X94343Y91140D01*
Y96078D01*
X94384Y96075D01*
X94446Y96080D01*
X94507Y96095D01*
X94565Y96119D01*
X94618Y96152D01*
X94666Y96193D01*
X94707Y96240D01*
X94739Y96294D01*
X94763Y96352D01*
X94778Y96413D01*
X94783Y96476D01*
X94778Y96538D01*
X94763Y96599D01*
X94732Y96711D01*
X94711Y96826D01*
X94701Y96942D01*
Y97059D01*
X94711Y97175D01*
X94732Y97290D01*
X94763Y97402D01*
X94779Y97464D01*
X94783Y97527D01*
X94778Y97589D01*
X94764Y97650D01*
X94739Y97708D01*
X94706Y97762D01*
X94666Y97810D01*
X94618Y97850D01*
X94564Y97883D01*
X94506Y97907D01*
X94445Y97922D01*
X94382Y97926D01*
X94343Y97923D01*
Y100078D01*
X94384Y100075D01*
X94446Y100080D01*
X94507Y100095D01*
X94565Y100119D01*
X94618Y100152D01*
X94666Y100193D01*
X94707Y100240D01*
X94739Y100294D01*
X94763Y100352D01*
X94778Y100413D01*
X94783Y100476D01*
X94778Y100538D01*
X94763Y100599D01*
X94732Y100711D01*
X94711Y100826D01*
X94701Y100942D01*
Y101059D01*
X94711Y101175D01*
X94732Y101290D01*
X94763Y101402D01*
X94779Y101464D01*
X94783Y101527D01*
X94778Y101589D01*
X94764Y101650D01*
X94739Y101708D01*
X94706Y101762D01*
X94666Y101810D01*
X94618Y101850D01*
X94564Y101883D01*
X94506Y101907D01*
X94445Y101922D01*
X94382Y101926D01*
X94343Y101923D01*
Y103137D01*
G37*
G36*
Y107717D02*X94515Y107515D01*
X94766Y107301D01*
X94877Y107233D01*
X94865Y107228D01*
X94531Y107023D01*
X94343Y106863D01*
Y107717D01*
G37*
G36*
Y111000D02*X95363D01*
X95351Y110997D01*
X95047Y110871D01*
X94766Y110699D01*
X94515Y110485D01*
X94343Y110283D01*
Y111000D01*
G37*
G36*
X83000Y85000D02*Y93900D01*
X83329Y93926D01*
X83649Y94003D01*
X83953Y94129D01*
X84234Y94301D01*
X84485Y94515D01*
X84699Y94766D01*
X84871Y95047D01*
X84997Y95351D01*
X85074Y95671D01*
X85100Y96000D01*
X85074Y96329D01*
X84997Y96649D01*
X84871Y96953D01*
X84699Y97234D01*
X84485Y97485D01*
X84234Y97699D01*
X83953Y97871D01*
X83649Y97997D01*
X83329Y98074D01*
X83000Y98100D01*
Y99900D01*
X83329Y99926D01*
X83649Y100003D01*
X83953Y100129D01*
X84234Y100301D01*
X84485Y100515D01*
X84699Y100766D01*
X84871Y101047D01*
X84997Y101351D01*
X85074Y101671D01*
X85100Y102000D01*
X85074Y102329D01*
X84997Y102649D01*
X84871Y102953D01*
X84699Y103234D01*
X84485Y103485D01*
X84234Y103699D01*
X83953Y103871D01*
X83649Y103997D01*
X83329Y104074D01*
X83000Y104100D01*
Y111000D01*
X94343D01*
Y110283D01*
X94301Y110234D01*
X94129Y109953D01*
X94003Y109649D01*
X93926Y109329D01*
X93900Y109000D01*
X93926Y108671D01*
X94003Y108351D01*
X94129Y108047D01*
X94301Y107766D01*
X94343Y107717D01*
Y106863D01*
X94232Y106768D01*
X93977Y106469D01*
X93772Y106135D01*
X93622Y105773D01*
X93531Y105391D01*
X93500Y105000D01*
X93531Y104609D01*
X93622Y104227D01*
X93772Y103865D01*
X93977Y103531D01*
X94232Y103232D01*
X94343Y103137D01*
Y101923D01*
X94320Y101921D01*
X94259Y101907D01*
X94201Y101882D01*
X94147Y101849D01*
X94099Y101809D01*
X94059Y101761D01*
X94026Y101707D01*
X94002Y101649D01*
X93952Y101468D01*
X93919Y101282D01*
X93902Y101095D01*
Y100906D01*
X93919Y100719D01*
X93952Y100533D01*
X94002Y100352D01*
X94027Y100293D01*
X94060Y100240D01*
X94101Y100192D01*
X94148Y100151D01*
X94202Y100119D01*
X94260Y100095D01*
X94321Y100080D01*
X94343Y100078D01*
Y97923D01*
X94320Y97921D01*
X94259Y97907D01*
X94201Y97882D01*
X94147Y97849D01*
X94099Y97809D01*
X94059Y97761D01*
X94026Y97707D01*
X94002Y97649D01*
X93952Y97468D01*
X93919Y97282D01*
X93902Y97095D01*
Y96906D01*
X93919Y96719D01*
X93952Y96533D01*
X94002Y96352D01*
X94027Y96293D01*
X94060Y96240D01*
X94101Y96192D01*
X94148Y96151D01*
X94202Y96119D01*
X94260Y96095D01*
X94321Y96080D01*
X94343Y96078D01*
Y91140D01*
X94212Y91109D01*
X94038Y91037D01*
X93878Y90939D01*
X93734Y90817D01*
X93612Y90673D01*
X93514Y90513D01*
X93500Y90479D01*
X93486Y90513D01*
X93388Y90673D01*
X93266Y90817D01*
X93122Y90939D01*
X92962Y91037D01*
X92788Y91109D01*
X92605Y91153D01*
X92417Y91168D01*
X89277Y91153D01*
X89094Y91109D01*
X88920Y91037D01*
X88760Y90939D01*
X88616Y90817D01*
X88494Y90673D01*
X88396Y90513D01*
X88391Y90500D01*
X87000D01*
X86609Y90469D01*
X86227Y90378D01*
X85865Y90228D01*
X85531Y90023D01*
X85232Y89768D01*
X84977Y89469D01*
X84772Y89135D01*
X84622Y88773D01*
X84531Y88391D01*
X84500Y88000D01*
X84531Y87609D01*
X84622Y87227D01*
X84772Y86865D01*
X84977Y86531D01*
X85232Y86232D01*
X85531Y85977D01*
X85865Y85772D01*
X86227Y85622D01*
X86609Y85531D01*
X87000Y85500D01*
X88391D01*
X88396Y85487D01*
X88494Y85327D01*
X88616Y85183D01*
X88760Y85061D01*
X88860Y85000D01*
X83000D01*
G37*
G36*
X55500Y87600D02*X55797Y87623D01*
X56087Y87693D01*
X56363Y87807D01*
X56617Y87963D01*
X56844Y88156D01*
X57037Y88383D01*
X57193Y88637D01*
X57307Y88913D01*
X57377Y89203D01*
X57400Y89500D01*
X57377Y89797D01*
X57328Y90000D01*
X62000D01*
Y82637D01*
X61926Y82329D01*
X61900Y82000D01*
X61926Y81671D01*
X62000Y81363D01*
Y52028D01*
X61957Y52010D01*
X61355Y51641D01*
X60818Y51182D01*
X60359Y50645D01*
X59990Y50043D01*
X59720Y49391D01*
X59555Y48704D01*
X59500Y48000D01*
X59555Y47296D01*
X59720Y46609D01*
X59990Y45957D01*
X60359Y45355D01*
X60818Y44818D01*
X61355Y44359D01*
X61957Y43990D01*
X62000Y43972D01*
Y31637D01*
X61926Y31329D01*
X61900Y31000D01*
X61926Y30671D01*
X62000Y30363D01*
Y17000D01*
X55500D01*
Y70400D01*
X55829Y70426D01*
X56149Y70503D01*
X56453Y70629D01*
X56734Y70801D01*
X56985Y71015D01*
X57199Y71266D01*
X57371Y71547D01*
X57497Y71851D01*
X57574Y72171D01*
X57600Y72500D01*
X57574Y72829D01*
X57497Y73149D01*
X57371Y73453D01*
X57199Y73734D01*
X56985Y73985D01*
X56734Y74199D01*
X56453Y74371D01*
X56149Y74497D01*
X55829Y74574D01*
X55500Y74600D01*
Y87600D01*
G37*
G36*
X49118Y17000D02*Y90000D01*
X53672D01*
X53623Y89797D01*
X53600Y89500D01*
X53623Y89203D01*
X53693Y88913D01*
X53807Y88637D01*
X53963Y88383D01*
X54156Y88156D01*
X54383Y87963D01*
X54637Y87807D01*
X54913Y87693D01*
X55203Y87623D01*
X55500Y87600D01*
Y74600D01*
X55171Y74574D01*
X54851Y74497D01*
X54547Y74371D01*
X54266Y74199D01*
X54015Y73985D01*
X53801Y73734D01*
X53629Y73453D01*
X53503Y73149D01*
X53426Y72829D01*
X53400Y72500D01*
X53426Y72171D01*
X53503Y71851D01*
X53629Y71547D01*
X53801Y71266D01*
X54015Y71015D01*
X54266Y70801D01*
X54547Y70629D01*
X54851Y70503D01*
X55171Y70426D01*
X55500Y70400D01*
Y17000D01*
X49118D01*
G37*
G36*
X49000Y5000D02*Y20000D01*
X93000D01*
Y5000D01*
X49000D01*
G37*
G36*
X101657Y73500D02*X102285D01*
X102288Y72777D01*
X102332Y72594D01*
X102404Y72420D01*
X102502Y72260D01*
X102624Y72116D01*
X102768Y71994D01*
X102928Y71896D01*
X103102Y71824D01*
X103285Y71780D01*
X103473Y71765D01*
X107597Y71780D01*
X107653Y71794D01*
X107973Y71521D01*
X108548Y71169D01*
X109000Y70981D01*
Y57000D01*
X101657D01*
Y59078D01*
X101693Y59137D01*
X101807Y59413D01*
X101877Y59703D01*
X101900Y60000D01*
X101877Y60297D01*
X101807Y60587D01*
X101693Y60863D01*
X101657Y60922D01*
Y66078D01*
X101679Y66080D01*
X101740Y66094D01*
X101798Y66119D01*
X101852Y66152D01*
X101900Y66192D01*
X101940Y66240D01*
X101973Y66294D01*
X101997Y66352D01*
X102047Y66533D01*
X102080Y66719D01*
X102097Y66906D01*
Y67095D01*
X102080Y67282D01*
X102047Y67468D01*
X101997Y67649D01*
X101972Y67708D01*
X101939Y67761D01*
X101898Y67809D01*
X101851Y67850D01*
X101797Y67882D01*
X101739Y67906D01*
X101678Y67921D01*
X101657Y67923D01*
Y73500D01*
G37*
G36*
Y57000D02*X100000D01*
Y58100D01*
X100297Y58123D01*
X100587Y58193D01*
X100863Y58307D01*
X101117Y58463D01*
X101344Y58656D01*
X101537Y58883D01*
X101657Y59078D01*
Y57000D01*
G37*
G36*
X100000Y73500D02*X101657D01*
Y67923D01*
X101615Y67926D01*
X101553Y67921D01*
X101492Y67906D01*
X101434Y67882D01*
X101381Y67849D01*
X101333Y67808D01*
X101292Y67761D01*
X101260Y67707D01*
X101236Y67649D01*
X101221Y67588D01*
X101216Y67525D01*
X101221Y67463D01*
X101236Y67402D01*
X101267Y67290D01*
X101288Y67175D01*
X101298Y67059D01*
Y66942D01*
X101288Y66826D01*
X101267Y66711D01*
X101236Y66599D01*
X101220Y66537D01*
X101216Y66474D01*
X101221Y66412D01*
X101235Y66351D01*
X101260Y66293D01*
X101293Y66239D01*
X101333Y66191D01*
X101381Y66151D01*
X101435Y66118D01*
X101493Y66094D01*
X101554Y66079D01*
X101617Y66075D01*
X101657Y66078D01*
Y60922D01*
X101537Y61117D01*
X101344Y61344D01*
X101117Y61537D01*
X100863Y61693D01*
X100587Y61807D01*
X100297Y61877D01*
X100000Y61900D01*
Y64903D01*
X100094D01*
X100281Y64920D01*
X100467Y64953D01*
X100648Y65003D01*
X100707Y65028D01*
X100760Y65061D01*
X100808Y65102D01*
X100849Y65149D01*
X100881Y65203D01*
X100905Y65261D01*
X100920Y65322D01*
X100925Y65385D01*
X100920Y65447D01*
X100905Y65508D01*
X100881Y65566D01*
X100848Y65619D01*
X100807Y65667D01*
X100760Y65708D01*
X100706Y65740D01*
X100648Y65764D01*
X100587Y65779D01*
X100524Y65784D01*
X100462Y65779D01*
X100401Y65764D01*
X100289Y65733D01*
X100174Y65712D01*
X100058Y65702D01*
X100000D01*
Y68299D01*
X100058D01*
X100174Y68289D01*
X100289Y68268D01*
X100401Y68237D01*
X100463Y68221D01*
X100526Y68217D01*
X100588Y68222D01*
X100649Y68236D01*
X100707Y68261D01*
X100761Y68294D01*
X100809Y68334D01*
X100849Y68382D01*
X100882Y68436D01*
X100906Y68494D01*
X100921Y68555D01*
X100925Y68618D01*
X100920Y68680D01*
X100906Y68741D01*
X100881Y68799D01*
X100848Y68853D01*
X100808Y68901D01*
X100760Y68941D01*
X100706Y68974D01*
X100648Y68998D01*
X100467Y69048D01*
X100281Y69081D01*
X100094Y69098D01*
X100000D01*
Y73500D01*
G37*
G36*
X93524D02*X100000D01*
Y69098D01*
X99905D01*
X99718Y69081D01*
X99532Y69048D01*
X99351Y68998D01*
X99292Y68973D01*
X99239Y68940D01*
X99191Y68899D01*
X99150Y68852D01*
X99118Y68798D01*
X99094Y68740D01*
X99079Y68679D01*
X99074Y68616D01*
X99079Y68554D01*
X99094Y68493D01*
X99118Y68435D01*
X99151Y68382D01*
X99192Y68334D01*
X99239Y68293D01*
X99293Y68261D01*
X99351Y68237D01*
X99412Y68222D01*
X99475Y68217D01*
X99537Y68222D01*
X99598Y68237D01*
X99710Y68268D01*
X99825Y68289D01*
X99941Y68299D01*
X100000D01*
Y65702D01*
X99941D01*
X99825Y65712D01*
X99710Y65733D01*
X99598Y65764D01*
X99536Y65780D01*
X99473Y65784D01*
X99411Y65779D01*
X99350Y65765D01*
X99292Y65740D01*
X99238Y65707D01*
X99190Y65667D01*
X99150Y65619D01*
X99117Y65565D01*
X99093Y65507D01*
X99078Y65446D01*
X99074Y65383D01*
X99079Y65321D01*
X99093Y65260D01*
X99118Y65202D01*
X99151Y65148D01*
X99191Y65100D01*
X99239Y65060D01*
X99293Y65027D01*
X99351Y65003D01*
X99532Y64953D01*
X99718Y64920D01*
X99905Y64903D01*
X100000D01*
Y61900D01*
X99703Y61877D01*
X99413Y61807D01*
X99137Y61693D01*
X98883Y61537D01*
X98656Y61344D01*
X98463Y61117D01*
X98307Y60863D01*
X98193Y60587D01*
X98123Y60297D01*
X98100Y60000D01*
X98123Y59703D01*
X98193Y59413D01*
X98307Y59137D01*
X98463Y58883D01*
X98656Y58656D01*
X98883Y58463D01*
X99137Y58307D01*
X99413Y58193D01*
X99703Y58123D01*
X100000Y58100D01*
Y57000D01*
X93524D01*
Y64471D01*
X93612Y64327D01*
X93734Y64183D01*
X93878Y64061D01*
X94038Y63963D01*
X94212Y63891D01*
X94395Y63847D01*
X94583Y63832D01*
X97723Y63847D01*
X97906Y63891D01*
X98080Y63963D01*
X98240Y64061D01*
X98384Y64183D01*
X98506Y64327D01*
X98604Y64487D01*
X98676Y64661D01*
X98720Y64844D01*
X98735Y65032D01*
X98730Y66280D01*
X98739Y66294D01*
X98763Y66352D01*
X98778Y66413D01*
X98783Y66476D01*
X98778Y66538D01*
X98763Y66599D01*
X98732Y66711D01*
X98728Y66731D01*
X98726Y67259D01*
X98732Y67290D01*
X98763Y67402D01*
X98779Y67464D01*
X98783Y67527D01*
X98778Y67589D01*
X98764Y67650D01*
X98739Y67708D01*
X98725Y67732D01*
X98720Y69156D01*
X98676Y69339D01*
X98604Y69513D01*
X98506Y69673D01*
X98384Y69817D01*
X98240Y69939D01*
X98080Y70037D01*
X97906Y70109D01*
X97723Y70153D01*
X97535Y70168D01*
X94395Y70153D01*
X94212Y70109D01*
X94038Y70037D01*
X93878Y69939D01*
X93734Y69817D01*
X93612Y69673D01*
X93524Y69529D01*
Y73500D01*
G37*
G36*
X85500Y57000D02*Y73500D01*
X93524D01*
Y69529D01*
X93514Y69513D01*
X93500Y69479D01*
X93486Y69513D01*
X93388Y69673D01*
X93266Y69817D01*
X93122Y69939D01*
X92962Y70037D01*
X92788Y70109D01*
X92605Y70153D01*
X92417Y70168D01*
X89277Y70153D01*
X89094Y70109D01*
X88920Y70037D01*
X88760Y69939D01*
X88616Y69817D01*
X88494Y69673D01*
X88396Y69513D01*
X88324Y69339D01*
X88280Y69156D01*
X88265Y68968D01*
X88280Y64844D01*
X88324Y64661D01*
X88396Y64487D01*
X88494Y64327D01*
X88616Y64183D01*
X88760Y64061D01*
X88920Y63963D01*
X89094Y63891D01*
X89102Y63889D01*
X89003Y63649D01*
X88926Y63329D01*
X88900Y63000D01*
X88926Y62671D01*
X89003Y62351D01*
X89129Y62047D01*
X89301Y61766D01*
X89515Y61515D01*
X89766Y61301D01*
X90047Y61129D01*
X90351Y61003D01*
X90671Y60926D01*
X91000Y60900D01*
X91329Y60926D01*
X91649Y61003D01*
X91953Y61129D01*
X92234Y61301D01*
X92485Y61515D01*
X92699Y61766D01*
X92871Y62047D01*
X92997Y62351D01*
X93074Y62671D01*
X93100Y63000D01*
X93074Y63329D01*
X92997Y63649D01*
X92881Y63929D01*
X92962Y63963D01*
X93122Y64061D01*
X93266Y64183D01*
X93388Y64327D01*
X93486Y64487D01*
X93500Y64521D01*
X93514Y64487D01*
X93524Y64471D01*
Y57000D01*
X85500D01*
G37*
G36*
X112657Y119000D02*X115363D01*
X115351Y118997D01*
X115047Y118871D01*
X114766Y118699D01*
X114515Y118485D01*
X114301Y118234D01*
X114129Y117953D01*
X114003Y117649D01*
X113926Y117329D01*
X113900Y117000D01*
X113926Y116671D01*
X114003Y116351D01*
X114129Y116047D01*
X114301Y115766D01*
X114515Y115515D01*
X114766Y115301D01*
X115047Y115129D01*
X115351Y115003D01*
X115671Y114926D01*
X116000Y114900D01*
X116329Y114926D01*
X116649Y115003D01*
X116953Y115129D01*
X117234Y115301D01*
X117485Y115515D01*
X117699Y115766D01*
X117871Y116047D01*
X117997Y116351D01*
X118074Y116671D01*
X118100Y117000D01*
X118074Y117329D01*
X117997Y117649D01*
X117871Y117953D01*
X117699Y118234D01*
X117485Y118485D01*
X117234Y118699D01*
X116953Y118871D01*
X116649Y118997D01*
X116637Y119000D01*
X119000D01*
Y106000D01*
X112657D01*
Y108078D01*
X112679Y108080D01*
X112740Y108094D01*
X112798Y108119D01*
X112852Y108152D01*
X112900Y108192D01*
X112940Y108240D01*
X112973Y108294D01*
X112997Y108352D01*
X113047Y108533D01*
X113080Y108719D01*
X113097Y108906D01*
Y109095D01*
X113080Y109282D01*
X113047Y109468D01*
X112997Y109649D01*
X112972Y109708D01*
X112939Y109761D01*
X112898Y109809D01*
X112851Y109850D01*
X112797Y109882D01*
X112739Y109906D01*
X112678Y109921D01*
X112657Y109923D01*
Y119000D01*
G37*
G36*
X111657D02*X112657D01*
Y109923D01*
X112615Y109926D01*
X112553Y109921D01*
X112492Y109906D01*
X112434Y109882D01*
X112381Y109849D01*
X112333Y109808D01*
X112292Y109761D01*
X112260Y109707D01*
X112236Y109649D01*
X112221Y109588D01*
X112216Y109525D01*
X112221Y109463D01*
X112236Y109402D01*
X112267Y109290D01*
X112288Y109175D01*
X112298Y109059D01*
Y108942D01*
X112288Y108826D01*
X112267Y108711D01*
X112236Y108599D01*
X112220Y108537D01*
X112216Y108474D01*
X112221Y108412D01*
X112235Y108351D01*
X112260Y108293D01*
X112293Y108239D01*
X112333Y108191D01*
X112381Y108151D01*
X112435Y108118D01*
X112493Y108094D01*
X112554Y108079D01*
X112617Y108075D01*
X112657Y108078D01*
Y106000D01*
X111657D01*
Y107007D01*
X111707Y107028D01*
X111760Y107061D01*
X111808Y107102D01*
X111849Y107149D01*
X111881Y107203D01*
X111905Y107261D01*
X111920Y107322D01*
X111925Y107385D01*
X111920Y107447D01*
X111905Y107508D01*
X111881Y107566D01*
X111848Y107619D01*
X111807Y107667D01*
X111760Y107708D01*
X111706Y107740D01*
X111657Y107760D01*
Y110239D01*
X111707Y110261D01*
X111761Y110294D01*
X111809Y110334D01*
X111849Y110382D01*
X111882Y110436D01*
X111906Y110494D01*
X111921Y110555D01*
X111925Y110618D01*
X111920Y110680D01*
X111906Y110741D01*
X111881Y110799D01*
X111848Y110853D01*
X111808Y110901D01*
X111760Y110941D01*
X111706Y110974D01*
X111657Y110994D01*
Y115078D01*
X111679Y115080D01*
X111740Y115094D01*
X111798Y115119D01*
X111852Y115152D01*
X111900Y115192D01*
X111940Y115240D01*
X111973Y115294D01*
X111997Y115352D01*
X112047Y115533D01*
X112080Y115719D01*
X112097Y115906D01*
Y116095D01*
X112080Y116282D01*
X112047Y116468D01*
X111997Y116649D01*
X111972Y116708D01*
X111939Y116761D01*
X111898Y116809D01*
X111851Y116850D01*
X111797Y116882D01*
X111739Y116906D01*
X111678Y116921D01*
X111657Y116923D01*
Y119000D01*
G37*
G36*
X110000D02*X111657D01*
Y116923D01*
X111615Y116926D01*
X111553Y116921D01*
X111492Y116906D01*
X111434Y116882D01*
X111381Y116849D01*
X111333Y116808D01*
X111292Y116761D01*
X111260Y116707D01*
X111236Y116649D01*
X111221Y116588D01*
X111216Y116525D01*
X111221Y116463D01*
X111236Y116402D01*
X111267Y116290D01*
X111288Y116175D01*
X111298Y116059D01*
Y115942D01*
X111288Y115826D01*
X111267Y115711D01*
X111236Y115599D01*
X111220Y115537D01*
X111216Y115474D01*
X111221Y115412D01*
X111235Y115351D01*
X111260Y115293D01*
X111293Y115239D01*
X111333Y115191D01*
X111381Y115151D01*
X111435Y115118D01*
X111493Y115094D01*
X111554Y115079D01*
X111617Y115075D01*
X111657Y115078D01*
Y110994D01*
X111648Y110998D01*
X111467Y111048D01*
X111281Y111081D01*
X111094Y111098D01*
X110905D01*
X110718Y111081D01*
X110532Y111048D01*
X110351Y110998D01*
X110292Y110973D01*
X110239Y110940D01*
X110191Y110899D01*
X110150Y110852D01*
X110118Y110798D01*
X110094Y110740D01*
X110079Y110679D01*
X110074Y110616D01*
X110079Y110554D01*
X110094Y110493D01*
X110118Y110435D01*
X110151Y110382D01*
X110192Y110334D01*
X110239Y110293D01*
X110293Y110261D01*
X110351Y110237D01*
X110412Y110222D01*
X110475Y110217D01*
X110537Y110222D01*
X110598Y110237D01*
X110710Y110268D01*
X110825Y110289D01*
X110941Y110299D01*
X111058D01*
X111174Y110289D01*
X111289Y110268D01*
X111401Y110237D01*
X111463Y110221D01*
X111526Y110217D01*
X111588Y110222D01*
X111649Y110236D01*
X111657Y110239D01*
Y107760D01*
X111648Y107764D01*
X111587Y107779D01*
X111524Y107784D01*
X111462Y107779D01*
X111401Y107764D01*
X111289Y107733D01*
X111174Y107712D01*
X111058Y107702D01*
X110941D01*
X110825Y107712D01*
X110710Y107733D01*
X110598Y107764D01*
X110536Y107780D01*
X110473Y107784D01*
X110411Y107779D01*
X110350Y107765D01*
X110292Y107740D01*
X110238Y107707D01*
X110190Y107667D01*
X110150Y107619D01*
X110117Y107565D01*
X110093Y107507D01*
X110078Y107446D01*
X110074Y107383D01*
X110079Y107321D01*
X110093Y107260D01*
X110118Y107202D01*
X110151Y107148D01*
X110191Y107100D01*
X110239Y107060D01*
X110293Y107027D01*
X110351Y107003D01*
X110532Y106953D01*
X110718Y106920D01*
X110905Y106903D01*
X111094D01*
X111281Y106920D01*
X111467Y106953D01*
X111648Y107003D01*
X111657Y107007D01*
Y106000D01*
X110000D01*
Y113903D01*
X110094D01*
X110281Y113920D01*
X110467Y113953D01*
X110648Y114003D01*
X110707Y114028D01*
X110760Y114061D01*
X110808Y114102D01*
X110849Y114149D01*
X110881Y114203D01*
X110905Y114261D01*
X110920Y114322D01*
X110925Y114385D01*
X110920Y114447D01*
X110905Y114508D01*
X110881Y114566D01*
X110848Y114619D01*
X110807Y114667D01*
X110760Y114708D01*
X110706Y114740D01*
X110648Y114764D01*
X110587Y114779D01*
X110524Y114784D01*
X110462Y114779D01*
X110401Y114764D01*
X110289Y114733D01*
X110174Y114712D01*
X110058Y114702D01*
X110000D01*
Y117299D01*
X110058D01*
X110174Y117289D01*
X110289Y117268D01*
X110401Y117237D01*
X110463Y117221D01*
X110526Y117217D01*
X110588Y117222D01*
X110649Y117236D01*
X110707Y117261D01*
X110761Y117294D01*
X110809Y117334D01*
X110849Y117382D01*
X110882Y117436D01*
X110906Y117494D01*
X110921Y117555D01*
X110925Y117618D01*
X110920Y117680D01*
X110906Y117741D01*
X110881Y117799D01*
X110848Y117853D01*
X110808Y117901D01*
X110760Y117941D01*
X110706Y117974D01*
X110648Y117998D01*
X110467Y118048D01*
X110281Y118081D01*
X110094Y118098D01*
X110000D01*
Y119000D01*
G37*
G36*
X109343Y114006D02*X109351Y114003D01*
X109532Y113953D01*
X109718Y113920D01*
X109905Y113903D01*
X110000D01*
Y106000D01*
X109343D01*
Y108078D01*
X109384Y108075D01*
X109446Y108080D01*
X109507Y108095D01*
X109565Y108119D01*
X109618Y108152D01*
X109666Y108193D01*
X109707Y108240D01*
X109739Y108294D01*
X109763Y108352D01*
X109778Y108413D01*
X109783Y108476D01*
X109778Y108538D01*
X109763Y108599D01*
X109732Y108711D01*
X109711Y108826D01*
X109701Y108942D01*
Y109059D01*
X109711Y109175D01*
X109732Y109290D01*
X109763Y109402D01*
X109779Y109464D01*
X109783Y109527D01*
X109778Y109589D01*
X109764Y109650D01*
X109739Y109708D01*
X109706Y109762D01*
X109666Y109810D01*
X109618Y109850D01*
X109564Y109883D01*
X109506Y109907D01*
X109445Y109922D01*
X109382Y109926D01*
X109343Y109923D01*
Y114006D01*
G37*
G36*
Y117240D02*X109351Y117237D01*
X109412Y117222D01*
X109475Y117217D01*
X109537Y117222D01*
X109598Y117237D01*
X109710Y117268D01*
X109825Y117289D01*
X109941Y117299D01*
X110000D01*
Y114702D01*
X109941D01*
X109825Y114712D01*
X109710Y114733D01*
X109598Y114764D01*
X109536Y114780D01*
X109473Y114784D01*
X109411Y114779D01*
X109350Y114765D01*
X109343Y114762D01*
Y117240D01*
G37*
G36*
Y119000D02*X110000D01*
Y118098D01*
X109905D01*
X109718Y118081D01*
X109532Y118048D01*
X109351Y117998D01*
X109343Y117995D01*
Y119000D01*
G37*
G36*
X108343D02*X109343D01*
Y117995D01*
X109292Y117973D01*
X109239Y117940D01*
X109191Y117899D01*
X109150Y117852D01*
X109118Y117798D01*
X109094Y117740D01*
X109079Y117679D01*
X109074Y117616D01*
X109079Y117554D01*
X109094Y117493D01*
X109118Y117435D01*
X109151Y117382D01*
X109192Y117334D01*
X109239Y117293D01*
X109293Y117261D01*
X109343Y117240D01*
Y114762D01*
X109292Y114740D01*
X109238Y114707D01*
X109190Y114667D01*
X109150Y114619D01*
X109117Y114565D01*
X109093Y114507D01*
X109078Y114446D01*
X109074Y114383D01*
X109079Y114321D01*
X109093Y114260D01*
X109118Y114202D01*
X109151Y114148D01*
X109191Y114100D01*
X109239Y114060D01*
X109293Y114027D01*
X109343Y114006D01*
Y109923D01*
X109320Y109921D01*
X109259Y109907D01*
X109201Y109882D01*
X109147Y109849D01*
X109099Y109809D01*
X109059Y109761D01*
X109026Y109707D01*
X109002Y109649D01*
X108952Y109468D01*
X108919Y109282D01*
X108902Y109095D01*
Y108906D01*
X108919Y108719D01*
X108952Y108533D01*
X109002Y108352D01*
X109027Y108293D01*
X109060Y108240D01*
X109101Y108192D01*
X109148Y108151D01*
X109202Y108119D01*
X109260Y108095D01*
X109321Y108080D01*
X109343Y108078D01*
Y106000D01*
X108343D01*
Y115078D01*
X108384Y115075D01*
X108446Y115080D01*
X108507Y115095D01*
X108565Y115119D01*
X108618Y115152D01*
X108666Y115193D01*
X108707Y115240D01*
X108739Y115294D01*
X108763Y115352D01*
X108778Y115413D01*
X108783Y115476D01*
X108778Y115538D01*
X108763Y115599D01*
X108732Y115711D01*
X108711Y115826D01*
X108701Y115942D01*
Y116059D01*
X108711Y116175D01*
X108732Y116290D01*
X108763Y116402D01*
X108779Y116464D01*
X108783Y116527D01*
X108778Y116589D01*
X108764Y116650D01*
X108739Y116708D01*
X108706Y116762D01*
X108666Y116810D01*
X108618Y116850D01*
X108564Y116883D01*
X108506Y116907D01*
X108445Y116922D01*
X108382Y116926D01*
X108343Y116923D01*
Y119000D01*
G37*
G36*
X107000Y108168D02*Y119000D01*
X108343D01*
Y116923D01*
X108320Y116921D01*
X108259Y116907D01*
X108201Y116882D01*
X108147Y116849D01*
X108099Y116809D01*
X108059Y116761D01*
X108026Y116707D01*
X108002Y116649D01*
X107952Y116468D01*
X107919Y116282D01*
X107902Y116095D01*
Y115906D01*
X107919Y115719D01*
X107952Y115533D01*
X108002Y115352D01*
X108027Y115293D01*
X108060Y115240D01*
X108101Y115192D01*
X108148Y115151D01*
X108202Y115119D01*
X108260Y115095D01*
X108321Y115080D01*
X108343Y115078D01*
Y106000D01*
X108224D01*
X108220Y107156D01*
X108176Y107339D01*
X108104Y107513D01*
X108006Y107673D01*
X107884Y107817D01*
X107740Y107939D01*
X107580Y108037D01*
X107406Y108109D01*
X107223Y108153D01*
X107035Y108168D01*
X107000D01*
G37*
G36*
X108343Y119000D02*X109000D01*
Y111000D01*
X108343D01*
Y115078D01*
X108384Y115075D01*
X108446Y115080D01*
X108507Y115095D01*
X108565Y115119D01*
X108618Y115152D01*
X108666Y115193D01*
X108707Y115240D01*
X108739Y115294D01*
X108763Y115352D01*
X108778Y115413D01*
X108783Y115476D01*
X108778Y115538D01*
X108763Y115599D01*
X108732Y115711D01*
X108711Y115826D01*
X108701Y115942D01*
Y116059D01*
X108711Y116175D01*
X108732Y116290D01*
X108763Y116402D01*
X108779Y116464D01*
X108783Y116527D01*
X108778Y116589D01*
X108764Y116650D01*
X108739Y116708D01*
X108706Y116762D01*
X108666Y116810D01*
X108618Y116850D01*
X108564Y116883D01*
X108506Y116907D01*
X108445Y116922D01*
X108382Y116926D01*
X108343Y116923D01*
Y119000D01*
G37*
G36*
X107000Y111000D02*Y119000D01*
X108343D01*
Y116923D01*
X108320Y116921D01*
X108259Y116907D01*
X108201Y116882D01*
X108147Y116849D01*
X108099Y116809D01*
X108059Y116761D01*
X108026Y116707D01*
X108002Y116649D01*
X107952Y116468D01*
X107919Y116282D01*
X107902Y116095D01*
Y115906D01*
X107919Y115719D01*
X107952Y115533D01*
X108002Y115352D01*
X108027Y115293D01*
X108060Y115240D01*
X108101Y115192D01*
X108148Y115151D01*
X108202Y115119D01*
X108260Y115095D01*
X108321Y115080D01*
X108343Y115078D01*
Y111000D01*
X107000D01*
G37*
G36*
X87900Y146300D02*X88479Y146346D01*
X89043Y146481D01*
X89580Y146703D01*
X90075Y147007D01*
X90516Y147384D01*
X90893Y147825D01*
X91197Y148320D01*
X91419Y148857D01*
X91554Y149421D01*
X91600Y150000D01*
X91554Y150579D01*
X91453Y151000D01*
X94347D01*
X94246Y150579D01*
X94200Y150000D01*
X94246Y149421D01*
X94381Y148857D01*
X94603Y148320D01*
X94907Y147825D01*
X95284Y147384D01*
X95725Y147007D01*
X96220Y146703D01*
X96757Y146481D01*
X97321Y146346D01*
X97900Y146300D01*
X98479Y146346D01*
X99043Y146481D01*
X99580Y146703D01*
X100075Y147007D01*
X100516Y147384D01*
X100893Y147825D01*
X101197Y148320D01*
X101395Y148800D01*
X138503D01*
X154000Y133303D01*
Y130000D01*
X143200D01*
Y133001D01*
X143185Y133188D01*
X143141Y133371D01*
X143069Y133545D01*
X142971Y133705D01*
X142849Y133849D01*
X142842Y133855D01*
X135855Y140842D01*
X135849Y140849D01*
X135706Y140972D01*
X135545Y141070D01*
X135371Y141142D01*
X135188Y141186D01*
X135000Y141201D01*
X101395D01*
X101197Y141680D01*
X100893Y142175D01*
X100516Y142616D01*
X100075Y142993D01*
X99580Y143297D01*
X99043Y143519D01*
X98479Y143654D01*
X97900Y143700D01*
X97321Y143654D01*
X96757Y143519D01*
X96220Y143297D01*
X95725Y142993D01*
X95284Y142616D01*
X94907Y142175D01*
X94603Y141680D01*
X94381Y141143D01*
X94246Y140579D01*
X94200Y140000D01*
X94246Y139421D01*
X94381Y138857D01*
X94603Y138320D01*
X94907Y137825D01*
X95284Y137384D01*
X95725Y137007D01*
X96220Y136703D01*
X96757Y136481D01*
X97321Y136346D01*
X97900Y136300D01*
X98479Y136346D01*
X99043Y136481D01*
X99580Y136703D01*
X100075Y137007D01*
X100516Y137384D01*
X100893Y137825D01*
X101197Y138320D01*
X101395Y138800D01*
X134503D01*
X140800Y132503D01*
Y130000D01*
X127697D01*
X126855Y130842D01*
X126849Y130849D01*
X126706Y130972D01*
X126545Y131070D01*
X126371Y131142D01*
X126188Y131186D01*
X126000Y131201D01*
X101610D01*
X101609Y131205D01*
X101375Y131771D01*
X101055Y132292D01*
X100658Y132758D01*
X100192Y133155D01*
X99671Y133475D01*
X99105Y133709D01*
X98510Y133852D01*
X97900Y133900D01*
X97290Y133852D01*
X96695Y133709D01*
X96129Y133475D01*
X95608Y133155D01*
X95142Y132758D01*
X94745Y132292D01*
X94425Y131771D01*
X94191Y131205D01*
X94048Y130610D01*
X94000Y130000D01*
X91600D01*
X91554Y130579D01*
X91419Y131143D01*
X91197Y131680D01*
X90893Y132175D01*
X90516Y132616D01*
X90075Y132993D01*
X89580Y133297D01*
X89043Y133519D01*
X88479Y133654D01*
X87900Y133700D01*
Y136300D01*
X88479Y136346D01*
X89043Y136481D01*
X89580Y136703D01*
X90075Y137007D01*
X90516Y137384D01*
X90893Y137825D01*
X91197Y138320D01*
X91419Y138857D01*
X91554Y139421D01*
X91600Y140000D01*
X91554Y140579D01*
X91419Y141143D01*
X91197Y141680D01*
X90893Y142175D01*
X90516Y142616D01*
X90075Y142993D01*
X89580Y143297D01*
X89043Y143519D01*
X88479Y143654D01*
X87900Y143700D01*
Y146300D01*
G37*
G36*
X81000Y151000D02*X84347D01*
X84246Y150579D01*
X84200Y150000D01*
X84246Y149421D01*
X84381Y148857D01*
X84603Y148320D01*
X84907Y147825D01*
X85284Y147384D01*
X85725Y147007D01*
X86220Y146703D01*
X86757Y146481D01*
X87321Y146346D01*
X87900Y146300D01*
Y143700D01*
X87321Y143654D01*
X86757Y143519D01*
X86220Y143297D01*
X85725Y142993D01*
X85284Y142616D01*
X84907Y142175D01*
X84603Y141680D01*
X84381Y141143D01*
X84246Y140579D01*
X84200Y140000D01*
X84246Y139421D01*
X84381Y138857D01*
X84603Y138320D01*
X84907Y137825D01*
X85284Y137384D01*
X85725Y137007D01*
X86220Y136703D01*
X86757Y136481D01*
X87321Y136346D01*
X87900Y136300D01*
Y133700D01*
X87321Y133654D01*
X86757Y133519D01*
X86220Y133297D01*
X85725Y132993D01*
X85284Y132616D01*
X84907Y132175D01*
X84603Y131680D01*
X84381Y131143D01*
X84246Y130579D01*
X84200Y130000D01*
X81000D01*
Y137900D01*
X81329Y137926D01*
X81649Y138003D01*
X81953Y138129D01*
X82234Y138301D01*
X82485Y138515D01*
X82699Y138766D01*
X82871Y139047D01*
X82997Y139351D01*
X83074Y139671D01*
X83100Y140000D01*
X83074Y140329D01*
X82997Y140649D01*
X82871Y140953D01*
X82699Y141234D01*
X82485Y141485D01*
X82234Y141699D01*
X81953Y141871D01*
X81649Y141997D01*
X81329Y142074D01*
X81000Y142100D01*
Y151000D01*
G37*
G36*
X62000D02*X81000D01*
Y142100D01*
X80671Y142074D01*
X80351Y141997D01*
X80047Y141871D01*
X79766Y141699D01*
X79515Y141485D01*
X79301Y141234D01*
X79129Y140953D01*
X79003Y140649D01*
X78926Y140329D01*
X78900Y140000D01*
X78926Y139671D01*
X79003Y139351D01*
X79129Y139047D01*
X79301Y138766D01*
X79515Y138515D01*
X79766Y138301D01*
X80047Y138129D01*
X80351Y138003D01*
X80671Y137926D01*
X81000Y137900D01*
Y130000D01*
X67609D01*
X67537Y130117D01*
X67344Y130344D01*
X67117Y130537D01*
X66863Y130693D01*
X66587Y130807D01*
X66297Y130877D01*
X66000Y130900D01*
X65703Y130877D01*
X65413Y130807D01*
X65137Y130693D01*
X64883Y130537D01*
X64656Y130344D01*
X64463Y130117D01*
X64391Y130000D01*
X62000D01*
Y136100D01*
X62297Y136123D01*
X62587Y136193D01*
X62863Y136307D01*
X63117Y136463D01*
X63344Y136656D01*
X63537Y136883D01*
X63693Y137137D01*
X63807Y137413D01*
X63877Y137703D01*
X63900Y138000D01*
X63877Y138297D01*
X63807Y138587D01*
X63693Y138863D01*
X63537Y139117D01*
X63344Y139344D01*
X63117Y139537D01*
X62863Y139693D01*
X62587Y139807D01*
X62297Y139877D01*
X62000Y139900D01*
Y151000D01*
G37*
G36*
X26987D02*X62000D01*
Y139900D01*
X61703Y139877D01*
X61413Y139807D01*
X61137Y139693D01*
X60883Y139537D01*
X60656Y139344D01*
X60463Y139117D01*
X60307Y138863D01*
X60193Y138587D01*
X60123Y138297D01*
X60100Y138000D01*
X60123Y137703D01*
X60193Y137413D01*
X60307Y137137D01*
X60463Y136883D01*
X60656Y136656D01*
X60883Y136463D01*
X61137Y136307D01*
X61413Y136193D01*
X61703Y136123D01*
X62000Y136100D01*
Y130000D01*
X26987D01*
Y130299D01*
X27047Y130300D01*
X27165Y130290D01*
X27282Y130269D01*
X27396Y130238D01*
X27507Y130197D01*
X27553Y130182D01*
X27599Y130174D01*
X27646D01*
X27693Y130181D01*
X27737Y130195D01*
X27780Y130216D01*
X27818Y130243D01*
X27851Y130276D01*
X27879Y130314D01*
X27901Y130356D01*
X27916Y130401D01*
X27924Y130447D01*
Y130494D01*
X27917Y130541D01*
X27903Y130585D01*
X27882Y130628D01*
X27855Y130666D01*
X27822Y130699D01*
X27784Y130727D01*
X27742Y130749D01*
X27580Y130810D01*
X27413Y130855D01*
X27242Y130885D01*
X27069Y130899D01*
X26987D01*
Y151000D01*
G37*
G36*
X15000Y130000D02*Y151000D01*
X26987D01*
Y130899D01*
X26896Y130898D01*
X26724Y130880D01*
X26554Y130848D01*
X26388Y130799D01*
X26227Y130736D01*
X26186Y130714D01*
X26148Y130685D01*
X26116Y130651D01*
X26089Y130612D01*
X26069Y130569D01*
X26056Y130524D01*
X26049Y130478D01*
X26051Y130431D01*
X26059Y130384D01*
X26075Y130340D01*
X26097Y130299D01*
X26126Y130261D01*
X26160Y130229D01*
X26199Y130202D01*
X26242Y130182D01*
X26287Y130169D01*
X26333Y130162D01*
X26380Y130164D01*
X26427Y130172D01*
X26471Y130188D01*
X26581Y130231D01*
X26695Y130264D01*
X26811Y130287D01*
X26929Y130299D01*
X26987D01*
Y130000D01*
X15000D01*
G37*
G36*
X49000Y2000D02*Y7000D01*
X107000D01*
Y2000D01*
X49000D01*
G37*
G36*
X146000Y128000D02*Y135000D01*
X152303D01*
X157800Y129503D01*
Y128000D01*
X151842D01*
X151699Y128234D01*
X151485Y128485D01*
X151234Y128699D01*
X150953Y128871D01*
X150649Y128997D01*
X150329Y129074D01*
X150000Y129100D01*
X149671Y129074D01*
X149351Y128997D01*
X149047Y128871D01*
X148766Y128699D01*
X148515Y128485D01*
X148301Y128234D01*
X148158Y128000D01*
X146000D01*
G37*
G36*
X134000Y124900D02*X134329Y124926D01*
X134649Y125003D01*
X134953Y125129D01*
X135234Y125301D01*
X135485Y125515D01*
X135699Y125766D01*
X135871Y126047D01*
X135997Y126351D01*
X136074Y126671D01*
X136100Y127000D01*
X140800D01*
Y113000D01*
X140815Y112812D01*
X140859Y112629D01*
X140931Y112455D01*
X141029Y112295D01*
X141151Y112151D01*
X141158Y112145D01*
X142800Y110503D01*
Y106000D01*
X137637D01*
X137329Y106074D01*
X137000Y106100D01*
X136671Y106074D01*
X136363Y106000D01*
X134000D01*
Y112900D01*
X134329Y112926D01*
X134649Y113003D01*
X134953Y113129D01*
X135234Y113301D01*
X135485Y113515D01*
X135699Y113766D01*
X135871Y114047D01*
X135997Y114351D01*
X136074Y114671D01*
X136100Y115000D01*
X136074Y115329D01*
X135997Y115649D01*
X135871Y115953D01*
X135699Y116234D01*
X135485Y116485D01*
X135234Y116699D01*
X134953Y116871D01*
X134649Y116997D01*
X134329Y117074D01*
X134000Y117100D01*
Y124900D01*
G37*
G36*
X130200Y127000D02*X131900D01*
X131926Y126671D01*
X132003Y126351D01*
X132129Y126047D01*
X132301Y125766D01*
X132515Y125515D01*
X132766Y125301D01*
X133047Y125129D01*
X133351Y125003D01*
X133671Y124926D01*
X134000Y124900D01*
Y117100D01*
X133671Y117074D01*
X133351Y116997D01*
X133047Y116871D01*
X132766Y116699D01*
X132515Y116485D01*
X132301Y116234D01*
X132129Y115953D01*
X132003Y115649D01*
X131926Y115329D01*
X131900Y115000D01*
X131926Y114671D01*
X132003Y114351D01*
X132129Y114047D01*
X132301Y113766D01*
X132515Y113515D01*
X132766Y113301D01*
X133047Y113129D01*
X133351Y113003D01*
X133671Y112926D01*
X134000Y112900D01*
Y106000D01*
X130200D01*
Y127000D01*
G37*
G36*
X150000Y130000D02*X157303D01*
X157800Y129503D01*
Y106000D01*
X151637D01*
X151329Y106074D01*
X151000Y106100D01*
X150671Y106074D01*
X150363Y106000D01*
X150000D01*
Y112900D01*
X150329Y112926D01*
X150649Y113003D01*
X150953Y113129D01*
X151234Y113301D01*
X151485Y113515D01*
X151699Y113766D01*
X151871Y114047D01*
X151997Y114351D01*
X152074Y114671D01*
X152100Y115000D01*
X152074Y115329D01*
X151997Y115649D01*
X151871Y115953D01*
X151699Y116234D01*
X151485Y116485D01*
X151234Y116699D01*
X150953Y116871D01*
X150649Y116997D01*
X150329Y117074D01*
X150000Y117100D01*
Y124900D01*
X150329Y124926D01*
X150649Y125003D01*
X150953Y125129D01*
X151234Y125301D01*
X151485Y125515D01*
X151699Y125766D01*
X151871Y126047D01*
X151997Y126351D01*
X152074Y126671D01*
X152100Y127000D01*
X152074Y127329D01*
X151997Y127649D01*
X151871Y127953D01*
X151699Y128234D01*
X151485Y128485D01*
X151234Y128699D01*
X150953Y128871D01*
X150649Y128997D01*
X150329Y129074D01*
X150000Y129100D01*
Y130000D01*
G37*
G36*
X143200Y113497D02*Y130000D01*
X150000D01*
Y129100D01*
X149671Y129074D01*
X149351Y128997D01*
X149047Y128871D01*
X148766Y128699D01*
X148515Y128485D01*
X148301Y128234D01*
X148129Y127953D01*
X148003Y127649D01*
X147926Y127329D01*
X147900Y127000D01*
X147926Y126671D01*
X148003Y126351D01*
X148129Y126047D01*
X148301Y125766D01*
X148515Y125515D01*
X148766Y125301D01*
X149047Y125129D01*
X149351Y125003D01*
X149671Y124926D01*
X150000Y124900D01*
Y117100D01*
X149671Y117074D01*
X149351Y116997D01*
X149047Y116871D01*
X148766Y116699D01*
X148515Y116485D01*
X148301Y116234D01*
X148129Y115953D01*
X148003Y115649D01*
X147926Y115329D01*
X147900Y115000D01*
X147926Y114671D01*
X148003Y114351D01*
X148129Y114047D01*
X148301Y113766D01*
X148515Y113515D01*
X148766Y113301D01*
X149047Y113129D01*
X149351Y113003D01*
X149671Y112926D01*
X150000Y112900D01*
Y106000D01*
X145200D01*
Y111001D01*
X145185Y111188D01*
X145141Y111371D01*
X145069Y111545D01*
X144971Y111705D01*
X144849Y111849D01*
X144842Y111855D01*
X143200Y113497D01*
G37*
G36*
X134000Y134000D02*X139303D01*
X140800Y132503D01*
Y124000D01*
X134000D01*
Y124900D01*
X134329Y124926D01*
X134649Y125003D01*
X134953Y125129D01*
X135234Y125301D01*
X135485Y125515D01*
X135699Y125766D01*
X135871Y126047D01*
X135997Y126351D01*
X136074Y126671D01*
X136100Y127000D01*
X136074Y127329D01*
X135997Y127649D01*
X135871Y127953D01*
X135699Y128234D01*
X135485Y128485D01*
X135234Y128699D01*
X134953Y128871D01*
X134649Y128997D01*
X134329Y129074D01*
X134000Y129100D01*
Y134000D01*
G37*
G36*
X130200Y127001D02*X130185Y127188D01*
X130141Y127371D01*
X130069Y127545D01*
X129971Y127705D01*
X129849Y127849D01*
X129842Y127855D01*
X126855Y130842D01*
X126849Y130849D01*
X126706Y130972D01*
X126545Y131070D01*
X126371Y131142D01*
X126188Y131186D01*
X126000Y131201D01*
X125000D01*
Y134000D01*
X134000D01*
Y129100D01*
X133671Y129074D01*
X133351Y128997D01*
X133047Y128871D01*
X132766Y128699D01*
X132515Y128485D01*
X132301Y128234D01*
X132129Y127953D01*
X132003Y127649D01*
X131926Y127329D01*
X131900Y127000D01*
X131926Y126671D01*
X132003Y126351D01*
X132129Y126047D01*
X132301Y125766D01*
X132515Y125515D01*
X132766Y125301D01*
X133047Y125129D01*
X133351Y125003D01*
X133671Y124926D01*
X134000Y124900D01*
Y124000D01*
X130200D01*
Y127001D01*
G37*
G36*
X188000Y99000D02*X191000D01*
Y45000D01*
X188000D01*
Y54900D01*
X188329Y54926D01*
X188649Y55003D01*
X188953Y55129D01*
X189234Y55301D01*
X189485Y55515D01*
X189699Y55766D01*
X189871Y56047D01*
X189997Y56351D01*
X190074Y56671D01*
X190100Y57000D01*
X190074Y57329D01*
X189997Y57649D01*
X189871Y57953D01*
X189699Y58234D01*
X189485Y58485D01*
X189234Y58699D01*
X188953Y58871D01*
X188649Y58997D01*
X188329Y59074D01*
X188000Y59100D01*
Y60900D01*
X188329Y60926D01*
X188649Y61003D01*
X188953Y61129D01*
X189234Y61301D01*
X189485Y61515D01*
X189699Y61766D01*
X189871Y62047D01*
X189997Y62351D01*
X190074Y62671D01*
X190100Y63000D01*
X190074Y63329D01*
X189997Y63649D01*
X189871Y63953D01*
X189699Y64234D01*
X189485Y64485D01*
X189234Y64699D01*
X188953Y64871D01*
X188649Y64997D01*
X188329Y65074D01*
X188000Y65100D01*
Y87900D01*
X188329Y87926D01*
X188649Y88003D01*
X188953Y88129D01*
X189234Y88301D01*
X189485Y88515D01*
X189699Y88766D01*
X189871Y89047D01*
X189997Y89351D01*
X190074Y89671D01*
X190100Y90000D01*
X190074Y90329D01*
X189997Y90649D01*
X189871Y90953D01*
X189699Y91234D01*
X189485Y91485D01*
X189234Y91699D01*
X188953Y91871D01*
X188649Y91997D01*
X188329Y92074D01*
X188000Y92100D01*
Y92900D01*
X188329Y92926D01*
X188649Y93003D01*
X188953Y93129D01*
X189234Y93301D01*
X189485Y93515D01*
X189699Y93766D01*
X189871Y94047D01*
X189997Y94351D01*
X190074Y94671D01*
X190100Y95000D01*
X190074Y95329D01*
X189997Y95649D01*
X189871Y95953D01*
X189699Y96234D01*
X189485Y96485D01*
X189234Y96699D01*
X188953Y96871D01*
X188649Y96997D01*
X188329Y97074D01*
X188000Y97100D01*
Y99000D01*
G37*
G36*
X177657D02*X188000D01*
Y97100D01*
X187671Y97074D01*
X187351Y96997D01*
X187047Y96871D01*
X186766Y96699D01*
X186515Y96485D01*
X186301Y96234D01*
X186129Y95953D01*
X186003Y95649D01*
X185926Y95329D01*
X185900Y95000D01*
X185926Y94671D01*
X186003Y94351D01*
X186129Y94047D01*
X186301Y93766D01*
X186515Y93515D01*
X186766Y93301D01*
X187047Y93129D01*
X187351Y93003D01*
X187671Y92926D01*
X188000Y92900D01*
Y92100D01*
X187671Y92074D01*
X187351Y91997D01*
X187047Y91871D01*
X186766Y91699D01*
X186515Y91485D01*
X186301Y91234D01*
X186129Y90953D01*
X186003Y90649D01*
X185926Y90329D01*
X185900Y90000D01*
X185926Y89671D01*
X186003Y89351D01*
X186129Y89047D01*
X186301Y88766D01*
X186515Y88515D01*
X186766Y88301D01*
X187047Y88129D01*
X187351Y88003D01*
X187671Y87926D01*
X188000Y87900D01*
Y65100D01*
X187671Y65074D01*
X187351Y64997D01*
X187047Y64871D01*
X186766Y64699D01*
X186515Y64485D01*
X186301Y64234D01*
X186129Y63953D01*
X186003Y63649D01*
X185926Y63329D01*
X185900Y63000D01*
X185926Y62671D01*
X186003Y62351D01*
X186129Y62047D01*
X186301Y61766D01*
X186515Y61515D01*
X186766Y61301D01*
X187047Y61129D01*
X187351Y61003D01*
X187671Y60926D01*
X188000Y60900D01*
Y59100D01*
X187671Y59074D01*
X187351Y58997D01*
X187047Y58871D01*
X186766Y58699D01*
X186515Y58485D01*
X186301Y58234D01*
X186129Y57953D01*
X186003Y57649D01*
X185926Y57329D01*
X185900Y57000D01*
X185926Y56671D01*
X186003Y56351D01*
X186129Y56047D01*
X186301Y55766D01*
X186515Y55515D01*
X186766Y55301D01*
X187047Y55129D01*
X187351Y55003D01*
X187671Y54926D01*
X188000Y54900D01*
Y45000D01*
X177657D01*
Y55717D01*
X177699Y55766D01*
X177871Y56047D01*
X177997Y56351D01*
X178074Y56671D01*
X178100Y57000D01*
X178074Y57329D01*
X177997Y57649D01*
X177871Y57953D01*
X177699Y58234D01*
X177657Y58283D01*
Y62078D01*
X177679Y62080D01*
X177740Y62094D01*
X177798Y62119D01*
X177852Y62152D01*
X177900Y62192D01*
X177940Y62240D01*
X177973Y62294D01*
X177997Y62352D01*
X178047Y62533D01*
X178080Y62719D01*
X178097Y62906D01*
Y63095D01*
X178080Y63282D01*
X178047Y63468D01*
X177997Y63649D01*
X177972Y63708D01*
X177939Y63761D01*
X177898Y63809D01*
X177851Y63850D01*
X177797Y63882D01*
X177739Y63906D01*
X177678Y63921D01*
X177657Y63923D01*
Y88717D01*
X177699Y88766D01*
X177871Y89047D01*
X177997Y89351D01*
X178074Y89671D01*
X178100Y90000D01*
X178074Y90329D01*
X177997Y90649D01*
X177871Y90953D01*
X177699Y91234D01*
X177657Y91283D01*
Y94078D01*
X177679Y94080D01*
X177740Y94094D01*
X177798Y94119D01*
X177852Y94152D01*
X177900Y94192D01*
X177940Y94240D01*
X177973Y94294D01*
X177997Y94352D01*
X178047Y94533D01*
X178080Y94719D01*
X178097Y94906D01*
Y95095D01*
X178080Y95282D01*
X178047Y95468D01*
X177997Y95649D01*
X177972Y95708D01*
X177939Y95761D01*
X177898Y95809D01*
X177851Y95850D01*
X177797Y95882D01*
X177739Y95906D01*
X177678Y95921D01*
X177657Y95923D01*
Y99000D01*
G37*
G36*
Y58283D02*X177485Y58485D01*
X177234Y58699D01*
X176953Y58871D01*
X176649Y58997D01*
X176329Y59074D01*
X176000Y59100D01*
Y60903D01*
X176094D01*
X176281Y60920D01*
X176467Y60953D01*
X176648Y61003D01*
X176707Y61028D01*
X176760Y61061D01*
X176808Y61102D01*
X176849Y61149D01*
X176881Y61203D01*
X176905Y61261D01*
X176920Y61322D01*
X176925Y61385D01*
X176920Y61447D01*
X176905Y61508D01*
X176881Y61566D01*
X176848Y61619D01*
X176807Y61667D01*
X176760Y61708D01*
X176706Y61740D01*
X176648Y61764D01*
X176587Y61779D01*
X176524Y61784D01*
X176462Y61779D01*
X176401Y61764D01*
X176289Y61733D01*
X176174Y61712D01*
X176058Y61702D01*
X176000D01*
Y64299D01*
X176058D01*
X176174Y64289D01*
X176289Y64268D01*
X176401Y64237D01*
X176463Y64221D01*
X176526Y64217D01*
X176588Y64222D01*
X176649Y64236D01*
X176707Y64261D01*
X176761Y64294D01*
X176809Y64334D01*
X176849Y64382D01*
X176882Y64436D01*
X176906Y64494D01*
X176921Y64555D01*
X176925Y64618D01*
X176920Y64680D01*
X176906Y64741D01*
X176881Y64799D01*
X176848Y64853D01*
X176808Y64901D01*
X176760Y64941D01*
X176706Y64974D01*
X176648Y64998D01*
X176467Y65048D01*
X176281Y65081D01*
X176094Y65098D01*
X176000D01*
Y87900D01*
X176329Y87926D01*
X176649Y88003D01*
X176953Y88129D01*
X177234Y88301D01*
X177485Y88515D01*
X177657Y88717D01*
Y63923D01*
X177615Y63926D01*
X177553Y63921D01*
X177492Y63906D01*
X177434Y63882D01*
X177381Y63849D01*
X177333Y63808D01*
X177292Y63761D01*
X177260Y63707D01*
X177236Y63649D01*
X177221Y63588D01*
X177216Y63525D01*
X177221Y63463D01*
X177236Y63402D01*
X177267Y63290D01*
X177288Y63175D01*
X177298Y63059D01*
Y62942D01*
X177288Y62826D01*
X177267Y62711D01*
X177236Y62599D01*
X177220Y62537D01*
X177216Y62474D01*
X177221Y62412D01*
X177235Y62351D01*
X177260Y62293D01*
X177293Y62239D01*
X177333Y62191D01*
X177381Y62151D01*
X177435Y62118D01*
X177493Y62094D01*
X177554Y62079D01*
X177617Y62075D01*
X177657Y62078D01*
Y58283D01*
G37*
G36*
Y45000D02*X176000D01*
Y54900D01*
X176329Y54926D01*
X176649Y55003D01*
X176953Y55129D01*
X177234Y55301D01*
X177485Y55515D01*
X177657Y55717D01*
Y45000D01*
G37*
G36*
X176000Y99000D02*X177657D01*
Y95923D01*
X177615Y95926D01*
X177553Y95921D01*
X177492Y95906D01*
X177434Y95882D01*
X177381Y95849D01*
X177333Y95808D01*
X177292Y95761D01*
X177260Y95707D01*
X177236Y95649D01*
X177221Y95588D01*
X177216Y95525D01*
X177221Y95463D01*
X177236Y95402D01*
X177267Y95290D01*
X177288Y95175D01*
X177298Y95059D01*
Y94942D01*
X177288Y94826D01*
X177267Y94711D01*
X177236Y94599D01*
X177220Y94537D01*
X177216Y94474D01*
X177221Y94412D01*
X177235Y94351D01*
X177260Y94293D01*
X177293Y94239D01*
X177333Y94191D01*
X177381Y94151D01*
X177435Y94118D01*
X177493Y94094D01*
X177554Y94079D01*
X177617Y94075D01*
X177657Y94078D01*
Y91283D01*
X177485Y91485D01*
X177234Y91699D01*
X176953Y91871D01*
X176649Y91997D01*
X176329Y92074D01*
X176000Y92100D01*
Y92903D01*
X176094D01*
X176281Y92920D01*
X176467Y92953D01*
X176648Y93003D01*
X176707Y93028D01*
X176760Y93061D01*
X176808Y93102D01*
X176849Y93149D01*
X176881Y93203D01*
X176905Y93261D01*
X176920Y93322D01*
X176925Y93385D01*
X176920Y93447D01*
X176905Y93508D01*
X176881Y93566D01*
X176848Y93619D01*
X176807Y93667D01*
X176760Y93708D01*
X176706Y93740D01*
X176648Y93764D01*
X176587Y93779D01*
X176524Y93784D01*
X176462Y93779D01*
X176401Y93764D01*
X176289Y93733D01*
X176174Y93712D01*
X176058Y93702D01*
X176000D01*
Y96299D01*
X176058D01*
X176174Y96289D01*
X176289Y96268D01*
X176401Y96237D01*
X176463Y96221D01*
X176526Y96217D01*
X176588Y96222D01*
X176649Y96236D01*
X176707Y96261D01*
X176761Y96294D01*
X176809Y96334D01*
X176849Y96382D01*
X176882Y96436D01*
X176906Y96494D01*
X176921Y96555D01*
X176925Y96618D01*
X176920Y96680D01*
X176906Y96741D01*
X176881Y96799D01*
X176848Y96853D01*
X176808Y96901D01*
X176760Y96941D01*
X176706Y96974D01*
X176648Y96998D01*
X176467Y97048D01*
X176281Y97081D01*
X176094Y97098D01*
X176000D01*
Y99000D01*
G37*
G36*
X174343Y55717D02*X174515Y55515D01*
X174766Y55301D01*
X175047Y55129D01*
X175351Y55003D01*
X175671Y54926D01*
X176000Y54900D01*
Y45000D01*
X174343D01*
Y55717D01*
G37*
G36*
Y88717D02*X174515Y88515D01*
X174766Y88301D01*
X175047Y88129D01*
X175351Y88003D01*
X175671Y87926D01*
X176000Y87900D01*
Y65098D01*
X175905D01*
X175718Y65081D01*
X175532Y65048D01*
X175351Y64998D01*
X175292Y64973D01*
X175239Y64940D01*
X175191Y64899D01*
X175150Y64852D01*
X175118Y64798D01*
X175094Y64740D01*
X175079Y64679D01*
X175074Y64616D01*
X175079Y64554D01*
X175094Y64493D01*
X175118Y64435D01*
X175151Y64382D01*
X175192Y64334D01*
X175239Y64293D01*
X175293Y64261D01*
X175351Y64237D01*
X175412Y64222D01*
X175475Y64217D01*
X175537Y64222D01*
X175598Y64237D01*
X175710Y64268D01*
X175825Y64289D01*
X175941Y64299D01*
X176000D01*
Y61702D01*
X175941D01*
X175825Y61712D01*
X175710Y61733D01*
X175598Y61764D01*
X175536Y61780D01*
X175473Y61784D01*
X175411Y61779D01*
X175350Y61765D01*
X175292Y61740D01*
X175238Y61707D01*
X175190Y61667D01*
X175150Y61619D01*
X175117Y61565D01*
X175093Y61507D01*
X175078Y61446D01*
X175074Y61383D01*
X175079Y61321D01*
X175093Y61260D01*
X175118Y61202D01*
X175151Y61148D01*
X175191Y61100D01*
X175239Y61060D01*
X175293Y61027D01*
X175351Y61003D01*
X175532Y60953D01*
X175718Y60920D01*
X175905Y60903D01*
X176000D01*
Y59100D01*
X175671Y59074D01*
X175351Y58997D01*
X175047Y58871D01*
X174766Y58699D01*
X174515Y58485D01*
X174343Y58283D01*
Y62078D01*
X174384Y62075D01*
X174446Y62080D01*
X174507Y62095D01*
X174565Y62119D01*
X174618Y62152D01*
X174666Y62193D01*
X174707Y62240D01*
X174739Y62294D01*
X174763Y62352D01*
X174778Y62413D01*
X174783Y62476D01*
X174778Y62538D01*
X174763Y62599D01*
X174732Y62711D01*
X174711Y62826D01*
X174701Y62942D01*
Y63059D01*
X174711Y63175D01*
X174732Y63290D01*
X174763Y63402D01*
X174779Y63464D01*
X174783Y63527D01*
X174778Y63589D01*
X174764Y63650D01*
X174739Y63708D01*
X174706Y63762D01*
X174666Y63810D01*
X174618Y63850D01*
X174564Y63883D01*
X174506Y63907D01*
X174445Y63922D01*
X174382Y63926D01*
X174343Y63923D01*
Y88717D01*
G37*
G36*
Y99000D02*X176000D01*
Y97098D01*
X175905D01*
X175718Y97081D01*
X175532Y97048D01*
X175351Y96998D01*
X175292Y96973D01*
X175239Y96940D01*
X175191Y96899D01*
X175150Y96852D01*
X175118Y96798D01*
X175094Y96740D01*
X175079Y96679D01*
X175074Y96616D01*
X175079Y96554D01*
X175094Y96493D01*
X175118Y96435D01*
X175151Y96382D01*
X175192Y96334D01*
X175239Y96293D01*
X175293Y96261D01*
X175351Y96237D01*
X175412Y96222D01*
X175475Y96217D01*
X175537Y96222D01*
X175598Y96237D01*
X175710Y96268D01*
X175825Y96289D01*
X175941Y96299D01*
X176000D01*
Y93702D01*
X175941D01*
X175825Y93712D01*
X175710Y93733D01*
X175598Y93764D01*
X175536Y93780D01*
X175473Y93784D01*
X175411Y93779D01*
X175350Y93765D01*
X175292Y93740D01*
X175238Y93707D01*
X175190Y93667D01*
X175150Y93619D01*
X175117Y93565D01*
X175093Y93507D01*
X175078Y93446D01*
X175074Y93383D01*
X175079Y93321D01*
X175093Y93260D01*
X175118Y93202D01*
X175151Y93148D01*
X175191Y93100D01*
X175239Y93060D01*
X175293Y93027D01*
X175351Y93003D01*
X175532Y92953D01*
X175718Y92920D01*
X175905Y92903D01*
X176000D01*
Y92100D01*
X175671Y92074D01*
X175351Y91997D01*
X175047Y91871D01*
X174766Y91699D01*
X174515Y91485D01*
X174343Y91283D01*
Y94078D01*
X174384Y94075D01*
X174446Y94080D01*
X174507Y94095D01*
X174565Y94119D01*
X174618Y94152D01*
X174666Y94193D01*
X174707Y94240D01*
X174739Y94294D01*
X174763Y94352D01*
X174778Y94413D01*
X174783Y94476D01*
X174778Y94538D01*
X174763Y94599D01*
X174732Y94711D01*
X174711Y94826D01*
X174701Y94942D01*
Y95059D01*
X174711Y95175D01*
X174732Y95290D01*
X174763Y95402D01*
X174779Y95464D01*
X174783Y95527D01*
X174778Y95589D01*
X174764Y95650D01*
X174739Y95708D01*
X174706Y95762D01*
X174666Y95810D01*
X174618Y95850D01*
X174564Y95883D01*
X174506Y95907D01*
X174445Y95922D01*
X174382Y95926D01*
X174343Y95923D01*
Y99000D01*
G37*
G36*
X170000Y45000D02*Y99000D01*
X174343D01*
Y95923D01*
X174320Y95921D01*
X174259Y95907D01*
X174201Y95882D01*
X174147Y95849D01*
X174099Y95809D01*
X174059Y95761D01*
X174026Y95707D01*
X174002Y95649D01*
X173952Y95468D01*
X173919Y95282D01*
X173902Y95095D01*
Y94906D01*
X173919Y94719D01*
X173952Y94533D01*
X174002Y94352D01*
X174027Y94293D01*
X174060Y94240D01*
X174101Y94192D01*
X174148Y94151D01*
X174202Y94119D01*
X174260Y94095D01*
X174321Y94080D01*
X174343Y94078D01*
Y91283D01*
X174301Y91234D01*
X174129Y90953D01*
X174003Y90649D01*
X173926Y90329D01*
X173900Y90000D01*
X173926Y89671D01*
X174003Y89351D01*
X174129Y89047D01*
X174301Y88766D01*
X174343Y88717D01*
Y63923D01*
X174320Y63921D01*
X174259Y63907D01*
X174201Y63882D01*
X174147Y63849D01*
X174099Y63809D01*
X174059Y63761D01*
X174026Y63707D01*
X174002Y63649D01*
X173952Y63468D01*
X173919Y63282D01*
X173902Y63095D01*
Y62906D01*
X173919Y62719D01*
X173952Y62533D01*
X174002Y62352D01*
X174027Y62293D01*
X174060Y62240D01*
X174101Y62192D01*
X174148Y62151D01*
X174202Y62119D01*
X174260Y62095D01*
X174321Y62080D01*
X174343Y62078D01*
Y58283D01*
X174301Y58234D01*
X174129Y57953D01*
X174003Y57649D01*
X173926Y57329D01*
X173900Y57000D01*
X173926Y56671D01*
X174003Y56351D01*
X174129Y56047D01*
X174301Y55766D01*
X174343Y55717D01*
Y45000D01*
X170000D01*
G37*
G36*
X187000Y46000D02*X191000D01*
Y20637D01*
X190926Y20329D01*
X190900Y20000D01*
X190926Y19671D01*
X191000Y19363D01*
Y2000D01*
X187000D01*
Y17900D01*
X187329Y17926D01*
X187649Y18003D01*
X187953Y18129D01*
X188234Y18301D01*
X188485Y18515D01*
X188699Y18766D01*
X188871Y19047D01*
X188997Y19351D01*
X189074Y19671D01*
X189100Y20000D01*
X189074Y20329D01*
X188997Y20649D01*
X188871Y20953D01*
X188699Y21234D01*
X188485Y21485D01*
X188234Y21699D01*
X187953Y21871D01*
X187649Y21997D01*
X187329Y22074D01*
X187000Y22100D01*
Y46000D01*
G37*
G36*
X181000D02*X187000D01*
Y22100D01*
X186671Y22074D01*
X186351Y21997D01*
X186047Y21871D01*
X185766Y21699D01*
X185515Y21485D01*
X185301Y21234D01*
X185129Y20953D01*
X185003Y20649D01*
X184926Y20329D01*
X184900Y20000D01*
X184926Y19671D01*
X185003Y19351D01*
X185129Y19047D01*
X185301Y18766D01*
X185515Y18515D01*
X185766Y18301D01*
X186047Y18129D01*
X186351Y18003D01*
X186671Y17926D01*
X187000Y17900D01*
Y2000D01*
X181000D01*
Y17900D01*
X181329Y17926D01*
X181649Y18003D01*
X181953Y18129D01*
X182234Y18301D01*
X182485Y18515D01*
X182699Y18766D01*
X182871Y19047D01*
X182997Y19351D01*
X183074Y19671D01*
X183100Y20000D01*
X183074Y20329D01*
X182997Y20649D01*
X182871Y20953D01*
X182699Y21234D01*
X182485Y21485D01*
X182234Y21699D01*
X181953Y21871D01*
X181649Y21997D01*
X181329Y22074D01*
X181000Y22100D01*
Y46000D01*
G37*
G36*
X161657D02*X181000D01*
Y22100D01*
X180671Y22074D01*
X180351Y21997D01*
X180047Y21871D01*
X179766Y21699D01*
X179515Y21485D01*
X179301Y21234D01*
X179129Y20953D01*
X179003Y20649D01*
X178926Y20329D01*
X178900Y20000D01*
X178926Y19671D01*
X179003Y19351D01*
X179129Y19047D01*
X179301Y18766D01*
X179515Y18515D01*
X179766Y18301D01*
X180047Y18129D01*
X180351Y18003D01*
X180671Y17926D01*
X181000Y17900D01*
Y2000D01*
X161657D01*
Y25717D01*
X161699Y25766D01*
X161871Y26047D01*
X161997Y26351D01*
X162074Y26671D01*
X162100Y27000D01*
X162074Y27329D01*
X161997Y27649D01*
X161871Y27953D01*
X161699Y28234D01*
X161657Y28283D01*
Y38078D01*
X161679Y38080D01*
X161740Y38094D01*
X161798Y38119D01*
X161852Y38152D01*
X161900Y38192D01*
X161940Y38240D01*
X161973Y38294D01*
X161997Y38352D01*
X162047Y38533D01*
X162080Y38719D01*
X162097Y38906D01*
Y39095D01*
X162080Y39282D01*
X162047Y39468D01*
X161997Y39649D01*
X161972Y39708D01*
X161939Y39761D01*
X161898Y39809D01*
X161851Y39850D01*
X161797Y39882D01*
X161739Y39906D01*
X161678Y39921D01*
X161657Y39923D01*
Y46000D01*
G37*
G36*
Y2000D02*X160000D01*
Y24900D01*
X160329Y24926D01*
X160649Y25003D01*
X160953Y25129D01*
X161234Y25301D01*
X161485Y25515D01*
X161657Y25717D01*
Y2000D01*
G37*
G36*
X160000Y46000D02*X161657D01*
Y39923D01*
X161615Y39926D01*
X161553Y39921D01*
X161492Y39906D01*
X161434Y39882D01*
X161381Y39849D01*
X161333Y39808D01*
X161292Y39761D01*
X161260Y39707D01*
X161236Y39649D01*
X161221Y39588D01*
X161216Y39525D01*
X161221Y39463D01*
X161236Y39402D01*
X161267Y39290D01*
X161288Y39175D01*
X161298Y39059D01*
Y38942D01*
X161288Y38826D01*
X161267Y38711D01*
X161236Y38599D01*
X161220Y38537D01*
X161216Y38474D01*
X161221Y38412D01*
X161235Y38351D01*
X161260Y38293D01*
X161293Y38239D01*
X161333Y38191D01*
X161381Y38151D01*
X161435Y38118D01*
X161493Y38094D01*
X161554Y38079D01*
X161617Y38075D01*
X161657Y38078D01*
Y28283D01*
X161485Y28485D01*
X161234Y28699D01*
X160953Y28871D01*
X160649Y28997D01*
X160329Y29074D01*
X160000Y29100D01*
Y36903D01*
X160094D01*
X160281Y36920D01*
X160467Y36953D01*
X160648Y37003D01*
X160707Y37028D01*
X160760Y37061D01*
X160808Y37102D01*
X160849Y37149D01*
X160881Y37203D01*
X160905Y37261D01*
X160920Y37322D01*
X160925Y37385D01*
X160920Y37447D01*
X160905Y37508D01*
X160881Y37566D01*
X160848Y37619D01*
X160807Y37667D01*
X160760Y37708D01*
X160706Y37740D01*
X160648Y37764D01*
X160587Y37779D01*
X160524Y37784D01*
X160462Y37779D01*
X160401Y37764D01*
X160289Y37733D01*
X160174Y37712D01*
X160058Y37702D01*
X160000D01*
Y40299D01*
X160058D01*
X160174Y40289D01*
X160289Y40268D01*
X160401Y40237D01*
X160463Y40221D01*
X160526Y40217D01*
X160588Y40222D01*
X160649Y40236D01*
X160707Y40261D01*
X160761Y40294D01*
X160809Y40334D01*
X160849Y40382D01*
X160882Y40436D01*
X160906Y40494D01*
X160921Y40555D01*
X160925Y40618D01*
X160920Y40680D01*
X160906Y40741D01*
X160881Y40799D01*
X160848Y40853D01*
X160808Y40901D01*
X160760Y40941D01*
X160706Y40974D01*
X160648Y40998D01*
X160467Y41048D01*
X160281Y41081D01*
X160094Y41098D01*
X160000D01*
Y46000D01*
G37*
G36*
X158343Y25717D02*X158515Y25515D01*
X158766Y25301D01*
X159047Y25129D01*
X159351Y25003D01*
X159671Y24926D01*
X160000Y24900D01*
Y2000D01*
X158343D01*
Y25717D01*
G37*
G36*
Y46000D02*X160000D01*
Y41098D01*
X159905D01*
X159718Y41081D01*
X159532Y41048D01*
X159351Y40998D01*
X159292Y40973D01*
X159239Y40940D01*
X159191Y40899D01*
X159150Y40852D01*
X159118Y40798D01*
X159094Y40740D01*
X159079Y40679D01*
X159074Y40616D01*
X159079Y40554D01*
X159094Y40493D01*
X159118Y40435D01*
X159151Y40382D01*
X159192Y40334D01*
X159239Y40293D01*
X159293Y40261D01*
X159351Y40237D01*
X159412Y40222D01*
X159475Y40217D01*
X159537Y40222D01*
X159598Y40237D01*
X159710Y40268D01*
X159825Y40289D01*
X159941Y40299D01*
X160000D01*
Y37702D01*
X159941D01*
X159825Y37712D01*
X159710Y37733D01*
X159598Y37764D01*
X159536Y37780D01*
X159473Y37784D01*
X159411Y37779D01*
X159350Y37765D01*
X159292Y37740D01*
X159238Y37707D01*
X159190Y37667D01*
X159150Y37619D01*
X159117Y37565D01*
X159093Y37507D01*
X159078Y37446D01*
X159074Y37383D01*
X159079Y37321D01*
X159093Y37260D01*
X159118Y37202D01*
X159151Y37148D01*
X159191Y37100D01*
X159239Y37060D01*
X159293Y37027D01*
X159351Y37003D01*
X159532Y36953D01*
X159718Y36920D01*
X159905Y36903D01*
X160000D01*
Y29100D01*
X159671Y29074D01*
X159351Y28997D01*
X159047Y28871D01*
X158766Y28699D01*
X158515Y28485D01*
X158343Y28283D01*
Y38078D01*
X158384Y38075D01*
X158446Y38080D01*
X158507Y38095D01*
X158565Y38119D01*
X158618Y38152D01*
X158666Y38193D01*
X158707Y38240D01*
X158739Y38294D01*
X158763Y38352D01*
X158778Y38413D01*
X158783Y38476D01*
X158778Y38538D01*
X158763Y38599D01*
X158732Y38711D01*
X158711Y38826D01*
X158701Y38942D01*
Y39059D01*
X158711Y39175D01*
X158732Y39290D01*
X158763Y39402D01*
X158779Y39464D01*
X158783Y39527D01*
X158778Y39589D01*
X158764Y39650D01*
X158739Y39708D01*
X158706Y39762D01*
X158666Y39810D01*
X158618Y39850D01*
X158564Y39883D01*
X158506Y39907D01*
X158445Y39922D01*
X158382Y39926D01*
X158343Y39923D01*
Y46000D01*
G37*
G36*
X154000D02*X158343D01*
Y39923D01*
X158320Y39921D01*
X158259Y39907D01*
X158201Y39882D01*
X158147Y39849D01*
X158099Y39809D01*
X158059Y39761D01*
X158026Y39707D01*
X158002Y39649D01*
X157952Y39468D01*
X157919Y39282D01*
X157902Y39095D01*
Y38906D01*
X157919Y38719D01*
X157952Y38533D01*
X158002Y38352D01*
X158027Y38293D01*
X158060Y38240D01*
X158101Y38192D01*
X158148Y38151D01*
X158202Y38119D01*
X158260Y38095D01*
X158321Y38080D01*
X158343Y38078D01*
Y28283D01*
X158301Y28234D01*
X158129Y27953D01*
X158003Y27649D01*
X157926Y27329D01*
X157900Y27000D01*
X157926Y26671D01*
X158003Y26351D01*
X158129Y26047D01*
X158301Y25766D01*
X158343Y25717D01*
Y2000D01*
X154000D01*
Y24900D01*
X154329Y24926D01*
X154649Y25003D01*
X154953Y25129D01*
X155234Y25301D01*
X155485Y25515D01*
X155699Y25766D01*
X155871Y26047D01*
X155997Y26351D01*
X156074Y26671D01*
X156100Y27000D01*
X156074Y27329D01*
X155997Y27649D01*
X155871Y27953D01*
X155699Y28234D01*
X155485Y28485D01*
X155234Y28699D01*
X154953Y28871D01*
X154649Y28997D01*
X154329Y29074D01*
X154000Y29100D01*
Y36900D01*
X154329Y36926D01*
X154649Y37003D01*
X154953Y37129D01*
X155234Y37301D01*
X155485Y37515D01*
X155699Y37766D01*
X155871Y38047D01*
X155997Y38351D01*
X156074Y38671D01*
X156100Y39000D01*
X156074Y39329D01*
X155997Y39649D01*
X155871Y39953D01*
X155699Y40234D01*
X155485Y40485D01*
X155234Y40699D01*
X154953Y40871D01*
X154649Y40997D01*
X154329Y41074D01*
X154000Y41100D01*
Y46000D01*
G37*
G36*
X149530D02*X154000D01*
Y41100D01*
X153671Y41074D01*
X153351Y40997D01*
X153047Y40871D01*
X152766Y40699D01*
X152515Y40485D01*
X152301Y40234D01*
X152129Y39953D01*
X152003Y39649D01*
X151926Y39329D01*
X151900Y39000D01*
X151926Y38671D01*
X152003Y38351D01*
X152129Y38047D01*
X152301Y37766D01*
X152515Y37515D01*
X152766Y37301D01*
X153047Y37129D01*
X153351Y37003D01*
X153671Y36926D01*
X154000Y36900D01*
Y29100D01*
X153671Y29074D01*
X153351Y28997D01*
X153047Y28871D01*
X152766Y28699D01*
X152515Y28485D01*
X152301Y28234D01*
X152129Y27953D01*
X152003Y27649D01*
X151926Y27329D01*
X151900Y27000D01*
X151926Y26671D01*
X152003Y26351D01*
X152129Y26047D01*
X152301Y25766D01*
X152515Y25515D01*
X152766Y25301D01*
X153047Y25129D01*
X153351Y25003D01*
X153671Y24926D01*
X154000Y24900D01*
Y2000D01*
X149530D01*
Y25568D01*
X149699Y25766D01*
X149871Y26047D01*
X149997Y26351D01*
X150074Y26671D01*
X150100Y27000D01*
X150074Y27329D01*
X149997Y27649D01*
X149871Y27953D01*
X149699Y28234D01*
X149530Y28432D01*
Y38082D01*
X149540Y38083D01*
X149584Y38097D01*
X149627Y38118D01*
X149665Y38145D01*
X149698Y38178D01*
X149726Y38216D01*
X149748Y38258D01*
X149809Y38420D01*
X149854Y38587D01*
X149884Y38758D01*
X149898Y38931D01*
X149897Y39104D01*
X149879Y39276D01*
X149847Y39446D01*
X149798Y39612D01*
X149735Y39773D01*
X149713Y39814D01*
X149684Y39852D01*
X149650Y39884D01*
X149611Y39911D01*
X149568Y39931D01*
X149530Y39942D01*
Y46000D01*
G37*
G36*
Y2000D02*X148000D01*
Y24900D01*
X148329Y24926D01*
X148649Y25003D01*
X148953Y25129D01*
X149234Y25301D01*
X149485Y25515D01*
X149530Y25568D01*
Y2000D01*
G37*
G36*
X148000Y46000D02*X149530D01*
Y39942D01*
X149523Y39944D01*
X149477Y39951D01*
X149430Y39949D01*
X149383Y39941D01*
X149339Y39925D01*
X149298Y39903D01*
X149260Y39874D01*
X149228Y39840D01*
X149201Y39801D01*
X149181Y39758D01*
X149168Y39713D01*
X149161Y39667D01*
X149163Y39620D01*
X149171Y39573D01*
X149187Y39529D01*
X149230Y39419D01*
X149263Y39305D01*
X149286Y39189D01*
X149298Y39071D01*
X149299Y38953D01*
X149289Y38835D01*
X149268Y38718D01*
X149237Y38604D01*
X149196Y38493D01*
X149181Y38447D01*
X149173Y38401D01*
Y38354D01*
X149180Y38307D01*
X149194Y38263D01*
X149215Y38220D01*
X149242Y38182D01*
X149275Y38149D01*
X149313Y38121D01*
X149355Y38099D01*
X149400Y38084D01*
X149446Y38076D01*
X149493D01*
X149530Y38082D01*
Y28432D01*
X149485Y28485D01*
X149234Y28699D01*
X148953Y28871D01*
X148649Y28997D01*
X148329Y29074D01*
X148000Y29100D01*
Y37102D01*
X148103Y37103D01*
X148275Y37121D01*
X148445Y37153D01*
X148611Y37202D01*
X148772Y37265D01*
X148813Y37287D01*
X148851Y37316D01*
X148883Y37350D01*
X148910Y37389D01*
X148930Y37432D01*
X148943Y37477D01*
X148950Y37523D01*
X148948Y37570D01*
X148940Y37617D01*
X148924Y37661D01*
X148902Y37702D01*
X148873Y37740D01*
X148839Y37772D01*
X148800Y37799D01*
X148757Y37819D01*
X148712Y37832D01*
X148666Y37839D01*
X148619Y37837D01*
X148572Y37829D01*
X148528Y37813D01*
X148418Y37770D01*
X148304Y37737D01*
X148188Y37714D01*
X148070Y37702D01*
X148000Y37701D01*
Y40300D01*
X148047D01*
X148165Y40290D01*
X148282Y40269D01*
X148396Y40238D01*
X148507Y40197D01*
X148553Y40182D01*
X148599Y40174D01*
X148646D01*
X148693Y40181D01*
X148737Y40195D01*
X148780Y40216D01*
X148818Y40243D01*
X148851Y40276D01*
X148879Y40314D01*
X148901Y40356D01*
X148916Y40401D01*
X148924Y40447D01*
Y40494D01*
X148917Y40541D01*
X148903Y40585D01*
X148882Y40628D01*
X148855Y40666D01*
X148822Y40699D01*
X148784Y40727D01*
X148742Y40749D01*
X148580Y40810D01*
X148413Y40855D01*
X148242Y40885D01*
X148069Y40899D01*
X148000D01*
Y46000D01*
G37*
G36*
X146470Y25568D02*X146515Y25515D01*
X146766Y25301D01*
X147047Y25129D01*
X147351Y25003D01*
X147671Y24926D01*
X148000Y24900D01*
Y2000D01*
X146470D01*
Y25568D01*
G37*
G36*
Y46000D02*X148000D01*
Y40899D01*
X147896Y40898D01*
X147724Y40880D01*
X147554Y40848D01*
X147388Y40799D01*
X147227Y40736D01*
X147186Y40714D01*
X147148Y40685D01*
X147116Y40651D01*
X147089Y40612D01*
X147069Y40569D01*
X147056Y40524D01*
X147049Y40478D01*
X147051Y40431D01*
X147059Y40384D01*
X147075Y40340D01*
X147097Y40299D01*
X147126Y40261D01*
X147160Y40229D01*
X147199Y40202D01*
X147242Y40182D01*
X147287Y40169D01*
X147333Y40162D01*
X147380Y40164D01*
X147427Y40172D01*
X147471Y40188D01*
X147581Y40231D01*
X147695Y40264D01*
X147811Y40287D01*
X147929Y40299D01*
X148000Y40300D01*
Y37701D01*
X147952D01*
X147834Y37711D01*
X147717Y37732D01*
X147603Y37763D01*
X147492Y37804D01*
X147446Y37819D01*
X147400Y37827D01*
X147353D01*
X147306Y37820D01*
X147262Y37806D01*
X147219Y37785D01*
X147181Y37758D01*
X147148Y37725D01*
X147120Y37687D01*
X147098Y37645D01*
X147083Y37600D01*
X147075Y37554D01*
Y37507D01*
X147082Y37460D01*
X147096Y37416D01*
X147117Y37373D01*
X147144Y37335D01*
X147177Y37302D01*
X147215Y37274D01*
X147257Y37252D01*
X147419Y37191D01*
X147586Y37146D01*
X147757Y37116D01*
X147930Y37102D01*
X148000D01*
Y29100D01*
X147671Y29074D01*
X147351Y28997D01*
X147047Y28871D01*
X146766Y28699D01*
X146515Y28485D01*
X146470Y28432D01*
Y38059D01*
X146476Y38057D01*
X146522Y38050D01*
X146569Y38052D01*
X146616Y38060D01*
X146660Y38076D01*
X146701Y38098D01*
X146739Y38127D01*
X146771Y38161D01*
X146798Y38200D01*
X146818Y38243D01*
X146831Y38288D01*
X146838Y38334D01*
X146836Y38381D01*
X146828Y38428D01*
X146812Y38472D01*
X146769Y38582D01*
X146736Y38696D01*
X146713Y38812D01*
X146701Y38930D01*
X146700Y39048D01*
X146710Y39166D01*
X146731Y39283D01*
X146762Y39397D01*
X146803Y39508D01*
X146818Y39554D01*
X146826Y39600D01*
Y39647D01*
X146819Y39694D01*
X146805Y39738D01*
X146784Y39781D01*
X146757Y39819D01*
X146724Y39852D01*
X146686Y39880D01*
X146644Y39902D01*
X146599Y39917D01*
X146553Y39925D01*
X146506D01*
X146470Y39920D01*
Y46000D01*
G37*
G36*
X142000D02*X146470D01*
Y39920D01*
X146459Y39918D01*
X146415Y39904D01*
X146372Y39883D01*
X146334Y39856D01*
X146301Y39823D01*
X146273Y39785D01*
X146251Y39743D01*
X146190Y39581D01*
X146145Y39414D01*
X146115Y39243D01*
X146101Y39070D01*
X146102Y38897D01*
X146120Y38725D01*
X146152Y38555D01*
X146201Y38389D01*
X146264Y38228D01*
X146286Y38187D01*
X146315Y38149D01*
X146349Y38117D01*
X146388Y38090D01*
X146431Y38070D01*
X146470Y38059D01*
Y28432D01*
X146301Y28234D01*
X146129Y27953D01*
X146003Y27649D01*
X145926Y27329D01*
X145900Y27000D01*
X145926Y26671D01*
X146003Y26351D01*
X146129Y26047D01*
X146301Y25766D01*
X146470Y25568D01*
Y2000D01*
X142000D01*
Y24900D01*
X142329Y24926D01*
X142649Y25003D01*
X142953Y25129D01*
X143234Y25301D01*
X143485Y25515D01*
X143699Y25766D01*
X143871Y26047D01*
X143997Y26351D01*
X144074Y26671D01*
X144100Y27000D01*
X144074Y27329D01*
X143997Y27649D01*
X143871Y27953D01*
X143699Y28234D01*
X143485Y28485D01*
X143234Y28699D01*
X142953Y28871D01*
X142649Y28997D01*
X142329Y29074D01*
X142000Y29100D01*
Y37100D01*
X142297Y37123D01*
X142587Y37193D01*
X142863Y37307D01*
X143117Y37463D01*
X143344Y37656D01*
X143537Y37883D01*
X143693Y38137D01*
X143807Y38413D01*
X143877Y38703D01*
X143900Y39000D01*
X143877Y39297D01*
X143807Y39587D01*
X143693Y39863D01*
X143537Y40117D01*
X143344Y40344D01*
X143117Y40537D01*
X142863Y40693D01*
X142587Y40807D01*
X142297Y40877D01*
X142000Y40900D01*
Y46000D01*
G37*
G36*
X135000D02*X142000D01*
Y40900D01*
X141703Y40877D01*
X141413Y40807D01*
X141137Y40693D01*
X140883Y40537D01*
X140656Y40344D01*
X140463Y40117D01*
X140307Y39863D01*
X140193Y39587D01*
X140123Y39297D01*
X140100Y39000D01*
X140123Y38703D01*
X140193Y38413D01*
X140307Y38137D01*
X140463Y37883D01*
X140656Y37656D01*
X140883Y37463D01*
X141137Y37307D01*
X141413Y37193D01*
X141703Y37123D01*
X142000Y37100D01*
Y29100D01*
X141671Y29074D01*
X141351Y28997D01*
X141047Y28871D01*
X140766Y28699D01*
X140515Y28485D01*
X140301Y28234D01*
X140129Y27953D01*
X140003Y27649D01*
X139926Y27329D01*
X139900Y27000D01*
X139926Y26671D01*
X140003Y26351D01*
X140129Y26047D01*
X140301Y25766D01*
X140515Y25515D01*
X140766Y25301D01*
X141047Y25129D01*
X141351Y25003D01*
X141671Y24926D01*
X142000Y24900D01*
Y2000D01*
X135000D01*
Y24900D01*
X135329Y24926D01*
X135649Y25003D01*
X135953Y25129D01*
X136234Y25301D01*
X136485Y25515D01*
X136699Y25766D01*
X136871Y26047D01*
X136997Y26351D01*
X137074Y26671D01*
X137100Y27000D01*
X137074Y27329D01*
X136997Y27649D01*
X136871Y27953D01*
X136699Y28234D01*
X136485Y28485D01*
X136234Y28699D01*
X135953Y28871D01*
X135649Y28997D01*
X135329Y29074D01*
X135000Y29100D01*
Y37100D01*
X135297Y37123D01*
X135587Y37193D01*
X135863Y37307D01*
X136117Y37463D01*
X136344Y37656D01*
X136537Y37883D01*
X136693Y38137D01*
X136807Y38413D01*
X136877Y38703D01*
X136900Y39000D01*
X136877Y39297D01*
X136807Y39587D01*
X136693Y39863D01*
X136537Y40117D01*
X136344Y40344D01*
X136117Y40537D01*
X135863Y40693D01*
X135587Y40807D01*
X135297Y40877D01*
X135000Y40900D01*
Y46000D01*
G37*
G36*
X132000Y2000D02*Y46000D01*
X135000D01*
Y40900D01*
X134703Y40877D01*
X134413Y40807D01*
X134137Y40693D01*
X133883Y40537D01*
X133656Y40344D01*
X133463Y40117D01*
X133307Y39863D01*
X133193Y39587D01*
X133123Y39297D01*
X133100Y39000D01*
X133123Y38703D01*
X133193Y38413D01*
X133307Y38137D01*
X133463Y37883D01*
X133656Y37656D01*
X133883Y37463D01*
X134137Y37307D01*
X134413Y37193D01*
X134703Y37123D01*
X135000Y37100D01*
Y29100D01*
X134671Y29074D01*
X134351Y28997D01*
X134047Y28871D01*
X133766Y28699D01*
X133515Y28485D01*
X133301Y28234D01*
X133129Y27953D01*
X133003Y27649D01*
X132926Y27329D01*
X132900Y27000D01*
X132926Y26671D01*
X133003Y26351D01*
X133129Y26047D01*
X133301Y25766D01*
X133515Y25515D01*
X133766Y25301D01*
X134047Y25129D01*
X134351Y25003D01*
X134671Y24926D01*
X135000Y24900D01*
Y2000D01*
X132000D01*
G37*
G36*
X105000D02*Y7000D01*
X120499D01*
Y6000D01*
X120531Y5609D01*
X120622Y5227D01*
X120772Y4865D01*
X120977Y4531D01*
X121232Y4232D01*
X121531Y3977D01*
X121865Y3772D01*
X122227Y3622D01*
X122609Y3531D01*
X123000Y3500D01*
X123391Y3531D01*
X123773Y3622D01*
X124135Y3772D01*
X124469Y3977D01*
X124768Y4232D01*
X125023Y4531D01*
X125228Y4865D01*
X125378Y5227D01*
X125469Y5609D01*
X125500Y6000D01*
Y7000D01*
X164000D01*
Y2000D01*
X105000D01*
G37*
G54D13*X140000Y160000D02*X97900D01*
X129000Y127000D02*X126000Y130000D01*
X97900D01*
X135000Y140000D02*X97900D01*
X139000Y150000D02*X97900D01*
X142000Y113000D02*Y133000D01*
X167000D02*X140000Y160000D01*
X142000Y133000D02*X135000Y140000D01*
X159000Y130000D02*X139000Y150000D01*
X167000Y90000D02*Y133000D01*
X173000Y112000D02*X179000Y106000D01*
X170000Y111000D02*X179000Y102000D01*
X151000Y82000D02*X159000Y90000D01*
Y82000D02*X167000Y90000D01*
X159000D02*Y130000D01*
X179000Y106000D02*X183000D01*
X179000Y102000D02*X183000D01*
X188000Y200000D02*Y199000D01*
X178000Y190000D02*X173000Y185000D01*
X178000Y200000D02*X170000Y192000D01*
X188000Y200000D02*X183000Y195000D01*
X173000Y185000D02*Y112000D01*
X170000Y192000D02*Y111000D01*
X183000Y195000D02*Y110000D01*
G54D14*X71000Y99000D02*X75543D01*
X68559Y107000D02*X75543D01*
X60000D02*X63441D01*
X67441Y82000D02*X57000D01*
X75543Y99000D02*X76000Y99457D01*
X79000Y67000D02*Y71457D01*
X72559Y82000D02*X79000D01*
Y78543D01*
X75543Y107000D02*X76000Y106543D01*
X88543D01*
X79000Y78543D02*X82457D01*
X88000Y73000D01*
G54D13*X147000Y50000D02*Y86000D01*
X144000Y89000D01*
G54D14*X137000Y108559D02*X138000Y109559D01*
X137000Y95441D02*Y92000D01*
Y100559D02*Y108559D01*
G54D13*X129000Y73000D02*Y127000D01*
X141000Y50000D02*Y61000D01*
X132000Y70000D01*
X133000Y69000D02*X129000Y73000D01*
G54D14*X151000Y95441D02*Y92000D01*
Y108370D02*X149811Y109559D01*
X151000Y100559D02*Y108370D01*
G54D13*X144000Y89000D02*Y111000D01*
X142000Y113000D01*
X151000Y50000D02*Y82000D01*
X159000Y50000D02*Y82000D01*
G54D14*X124000Y27441D02*Y19543D01*
X123000Y6000D02*Y11457D01*
X115000Y17559D02*X122016D01*
X124000Y19543D02*X122016Y17559D01*
X99000Y23559D02*X106984D01*
X115000Y12441D02*Y5000D01*
X107000Y23543D02*X113102D01*
X107000Y11000D02*Y16457D01*
X106984Y23559D02*X107000Y23543D01*
X113102D02*X117000Y27441D01*
Y32559D02*Y36000D01*
X124000Y32559D02*Y36000D01*
X89441Y18441D02*X86000Y15000D01*
X99000Y18441D02*X89441D01*
X88543Y106543D02*X89000Y107000D01*
X111000Y109000D02*X109559D01*
X105559Y105000D01*
X100441D02*X96000D01*
X90941Y88000D02*X87000D01*
X100000D02*X96059D01*
X110500Y82500D02*X108382D01*
X105441Y79559D01*
X110500Y75000D02*X106000D01*
X105441Y74441D01*
Y67158D01*
X91000Y63000D02*Y66941D01*
X95000Y50000D02*Y60000D01*
X91000Y66941D02*X90941Y67000D01*
X100000D02*X96059D01*
G54D15*X87900Y190000D03*
Y180000D03*
Y170000D03*
X97900Y190000D03*
Y180000D03*
Y170000D03*
Y160000D03*
Y150000D03*
Y140000D03*
X87900Y160000D03*
Y150000D03*
Y140000D03*
Y130000D03*
X97900D03*
X87900Y120000D03*
X97900D03*
X87900Y220000D03*
X97900D03*
X87900Y210000D03*
X97900D03*
G54D11*G36*
X84900Y243000D02*Y237000D01*
X90900D01*
Y243000D01*
X84900D01*
G37*
G54D15*X97900Y240000D03*
X87900Y230000D03*
X97900D03*
X87900Y200000D03*
X97900D03*
G54D11*G36*
X42000Y198000D02*Y192000D01*
X48000D01*
Y198000D01*
X42000D01*
G37*
G54D15*X35000Y195000D03*
G54D16*X36377Y227000D03*
G54D17*X60000D03*
G54D11*G36*
X175000Y243000D02*Y237000D01*
X181000D01*
Y243000D01*
X175000D01*
G37*
G54D15*X188000Y240000D03*
X178000Y230000D03*
X188000D03*
X178000Y220000D03*
X188000D03*
X178000Y210000D03*
X188000D03*
Y200000D03*
Y190000D03*
X178000Y200000D03*
Y190000D03*
Y180000D03*
Y170000D03*
Y160000D03*
Y150000D03*
X188000Y180000D03*
Y170000D03*
Y160000D03*
Y150000D03*
X178000Y140000D03*
X188000D03*
Y130000D03*
Y120000D03*
X178000Y130000D03*
Y120000D03*
G54D11*G36*
X81000Y51000D02*Y45000D01*
X87000D01*
Y51000D01*
X81000D01*
G37*
G54D15*X64000Y48000D03*
G54D18*X13000Y33000D03*
X33000D03*
X23000Y23000D03*
X13000Y13000D03*
X33000D03*
G54D19*X27000Y155000D03*
Y164000D03*
X62000Y138000D03*
Y173000D03*
X66000Y129000D03*
Y164000D03*
X81000Y140000D03*
Y190000D03*
X15000Y95500D03*
X27000Y129000D03*
Y120000D03*
X15000Y105500D03*
X71000Y99000D03*
X83000Y96000D03*
Y102000D03*
X60000Y107000D03*
X55500Y89500D03*
X91000Y79000D03*
X87000Y88000D03*
X84000Y31000D03*
X79000Y67000D03*
X91000Y63000D03*
X55500Y72500D03*
X64000Y82000D03*
X37000Y46000D03*
X33500Y42000D03*
Y60000D03*
Y51000D03*
X37000Y56000D03*
X41000Y60000D03*
X64000Y31000D03*
X41000Y51000D03*
Y42000D03*
X37000Y64000D03*
X33500Y78000D03*
Y69000D03*
X41000D03*
Y78000D03*
X37000Y74000D03*
X12500Y78000D03*
Y69000D03*
X9000Y74000D03*
X5000Y78000D03*
Y69000D03*
X12500Y51000D03*
X9000Y46000D03*
X12500Y42000D03*
X9000Y56000D03*
X12500Y60000D03*
X9000Y64000D03*
X5000Y51000D03*
Y60000D03*
Y42000D03*
X150000Y127000D03*
X193000Y135500D03*
X151000Y104000D03*
X150000Y115000D03*
X137000Y104000D03*
X135000Y39000D03*
Y27000D03*
X137000Y92000D03*
G54D20*X138000Y77000D03*
G54D19*X159000Y50000D03*
X154000Y39000D03*
X151000Y50000D03*
X160000Y39000D03*
X142000D03*
X148000D03*
X147000Y50000D03*
X141000D03*
X121000Y39000D03*
X142000Y27000D03*
X160000D03*
X154000D03*
X148000D03*
X117000Y36000D03*
X124000D03*
X134000Y115000D03*
X116000Y117000D03*
X134000Y127000D03*
X100000Y60000D03*
Y80000D03*
Y88000D03*
Y67000D03*
X95000Y50000D03*
X104000Y46000D03*
X100000Y96000D03*
X96000Y101000D03*
Y97000D03*
X110000Y116000D03*
X110500Y88500D03*
Y75000D03*
Y82500D03*
X107000Y11000D03*
X123000Y6000D03*
X111000Y109000D03*
X96000D03*
Y105000D03*
X195000Y190000D03*
X188000Y63000D03*
Y57000D03*
X176000Y63000D03*
Y57000D03*
Y90000D03*
Y95000D03*
X151000Y92000D03*
X188000Y90000D03*
Y95000D03*
X183000Y110000D03*
Y106000D03*
Y102000D03*
X181000Y20000D03*
X187000D03*
X193000D03*
G54D23*X90941Y88492D02*Y87508D01*
X96059Y88492D02*Y87508D01*
X100441Y105492D02*Y104508D01*
X105559Y105492D02*Y104508D01*
G54D24*X75607Y99457D02*X76393D01*
X75607Y106543D02*X76393D01*
G54D23*X63441Y107492D02*Y106508D01*
X68559Y107492D02*Y106508D01*
X123508Y32559D02*X124492D01*
X136508Y95441D02*X137492D01*
X136508Y100559D02*X137492D01*
X150508Y95441D02*X151492D01*
X150508Y100559D02*X151492D01*
G54D24*X78607Y71457D02*X79393D01*
X78607Y78543D02*X79393D01*
G54D23*X67441Y82492D02*Y81508D01*
X72559Y82492D02*Y81508D01*
G54D24*X106607Y16457D02*X107393D01*
X106607Y23543D02*X107393D01*
G54D23*X98508Y23559D02*X99492D01*
X98508Y18441D02*X99492D01*
X116508Y27441D02*X117492D01*
G54D24*X122607Y11457D02*X123393D01*
X122607Y18543D02*X123393D01*
G54D23*X123508Y27441D02*X124492D01*
X114508Y12441D02*X115492D01*
X114508Y17559D02*X115492D01*
X104949Y79559D02*X105933D01*
X104949Y74441D02*X105933D01*
X90941Y67492D02*Y66508D01*
X96059Y67492D02*Y66508D01*
X116508Y32559D02*X117492D01*
G54D28*G54D14*G54D29*G54D30*G54D28*G54D31*G54D32*G54D33*G54D34*G54D33*M02*
