G04 start of page 13 for group -4015 idx -4015 *
G04 Title: (unknown), toppaste *
G04 Creator: pcb 1.99z *
G04 CreationDate: Sun 01 Aug 2010 05:53:12 AM GMT UTC *
G04 For: jensen *
G04 Format: Gerber/RS-274X *
G04 PCB-Dimensions: 200000 250000 *
G04 PCB-Coordinate-Origin: lower left *
%MOIN*%
%FSLAX25Y25*%
%LNFRONTPASTE*%
%ADD11C,0.0200*%
%ADD21R,0.0560X0.0560*%
%ADD22R,0.1220X0.1220*%
%ADD23R,0.0295X0.0295*%
%ADD24R,0.0512X0.0512*%
%ADD25R,0.0110X0.0110*%
%ADD26R,0.0650X0.0650*%
%ADD27R,0.0240X0.0240*%
G54D23*X186508Y23441D02*X187492D01*
X186508Y28559D02*X187492D01*
X192508Y38559D02*X193492D01*
X192508Y33441D02*X193492D01*
X180508D02*X181492D01*
X180508Y38559D02*X181492D01*
X180508Y28559D02*X181492D01*
X180508Y23441D02*X181492D01*
X186508Y33441D02*X187492D01*
X186508Y38559D02*X187492D01*
X192508Y23441D02*X193492D01*
X192508Y28559D02*X193492D01*
G54D27*X22200Y61800D02*X23800D01*
X22200Y58200D02*X23800D01*
G54D26*X21250Y105500D02*X24750D01*
X21250Y95500D02*X24750D01*
X21250Y85500D02*X24750D01*
X41250D02*X44750D01*
X41250Y95500D02*X44750D01*
X41250Y105500D02*X44750D01*
G54D23*X12441Y46492D02*Y45508D01*
X17559Y46492D02*Y45508D01*
X147508Y30441D02*X148492D01*
X147508Y35559D02*X148492D01*
X12441Y74492D02*Y73508D01*
X17559Y74492D02*Y73508D01*
X159508Y30441D02*X160492D01*
X159508Y35559D02*X160492D01*
X99882Y110492D02*Y109508D01*
X105000Y110492D02*Y109508D01*
X100559Y38492D02*Y37508D01*
X95441Y38492D02*Y37508D01*
X106441Y38492D02*Y37508D01*
X111559Y38492D02*Y37508D01*
G54D11*G36*
X128157Y86843D02*Y67158D01*
X147842D01*
Y86843D01*
X128157D01*
G37*
G54D23*X86441Y102492D02*Y101508D01*
X91559Y102492D02*Y101508D01*
X55008Y92941D02*X55992D01*
X55008Y98059D02*X55992D01*
X22508Y71559D02*X23492D01*
X22508Y66441D02*X23492D01*
X12441Y64492D02*Y63508D01*
X17559Y64492D02*Y63508D01*
X12441Y56492D02*Y55508D01*
X17559Y56492D02*Y55508D01*
X86441Y96492D02*Y95508D01*
X91559Y96492D02*Y95508D01*
X55008Y81059D02*X55992D01*
X55008Y75941D02*X55992D01*
X100559Y46492D02*Y45508D01*
X95441Y46492D02*Y45508D01*
X28441Y46492D02*Y45508D01*
X33559Y46492D02*Y45508D01*
X76559Y59492D02*Y58508D01*
X71441Y59492D02*Y58508D01*
X22508Y53559D02*X23492D01*
X22508Y48441D02*X23492D01*
X83508Y63441D02*X84492D01*
X83508Y68559D02*X84492D01*
G54D21*X35700Y155172D02*X42300D01*
X35700Y164172D02*X42300D01*
X35700Y173272D02*X42300D01*
G54D22*X14600Y168672D02*Y159672D01*
G54D23*X63508Y39559D02*X64492D01*
X63508Y34441D02*X64492D01*
X149508Y123559D02*X150492D01*
X149508Y118441D02*X150492D01*
G54D24*X61543Y129393D02*Y128607D01*
X54457Y129393D02*Y128607D01*
G54D23*X28441Y74492D02*Y73508D01*
X33559Y74492D02*Y73508D01*
X134508Y30441D02*X135492D01*
X134508Y35559D02*X135492D01*
X106559Y31492D02*Y30508D01*
X101441Y31492D02*Y30508D01*
X83508Y39559D02*X84492D01*
X83508Y34441D02*X84492D01*
G54D24*X61543Y164393D02*Y163607D01*
X54457Y164393D02*Y163607D01*
G54D23*X184559Y57492D02*Y56508D01*
X179441Y57492D02*Y56508D01*
X153508Y30441D02*X154492D01*
X153508Y35559D02*X154492D01*
X28441Y64492D02*Y63508D01*
X33559Y64492D02*Y63508D01*
X28441Y56492D02*Y55508D01*
X33559Y56492D02*Y55508D01*
G54D25*X114378Y46890D02*Y41992D01*
X116346Y46890D02*Y41992D01*
X118315Y46890D02*Y41992D01*
X120283Y46890D02*Y41992D01*
X122252Y46890D02*Y41992D01*
X124220Y46890D02*Y41992D01*
X126189Y46890D02*Y41992D01*
X128157Y46890D02*Y41992D01*
X130126Y46890D02*Y41992D01*
X132094Y46890D02*Y41992D01*
X134063Y46890D02*Y41992D01*
X136031Y46890D02*Y41992D01*
X138000Y46890D02*Y41992D01*
X139968Y46890D02*Y41992D01*
X141937Y46890D02*Y41992D01*
X143905Y46890D02*Y41992D01*
X145874Y46890D02*Y41992D01*
X147842Y46890D02*Y41992D01*
X149811Y46890D02*Y41992D01*
X151779Y46890D02*Y41992D01*
X153748Y46890D02*Y41992D01*
X155716Y46890D02*Y41992D01*
X157685Y46890D02*Y41992D01*
X159653Y46890D02*Y41992D01*
X161622Y46890D02*Y41992D01*
X168110Y53378D02*X173008D01*
X168110Y55346D02*X173008D01*
X168110Y57315D02*X173008D01*
X168110Y59283D02*X173008D01*
X168110Y61252D02*X173008D01*
X168110Y63220D02*X173008D01*
X168110Y65189D02*X173008D01*
X168110Y67157D02*X173008D01*
X168110Y69126D02*X173008D01*
X168110Y71094D02*X173008D01*
X168110Y73063D02*X173008D01*
X168110Y75031D02*X173008D01*
X168110Y77000D02*X173008D01*
X168110Y78968D02*X173008D01*
X168110Y80937D02*X173008D01*
X168110Y82905D02*X173008D01*
X168110Y84874D02*X173008D01*
X168110Y86842D02*X173008D01*
X168110Y88811D02*X173008D01*
X168110Y90779D02*X173008D01*
X168110Y92748D02*X173008D01*
X168110Y94716D02*X173008D01*
X168110Y96685D02*X173008D01*
X168110Y98653D02*X173008D01*
X168110Y100622D02*X173008D01*
X161622Y112008D02*Y107110D01*
X159654Y112008D02*Y107110D01*
X157685Y112008D02*Y107110D01*
X155717Y112008D02*Y107110D01*
X153748Y112008D02*Y107110D01*
X151780Y112008D02*Y107110D01*
X149811Y112008D02*Y107110D01*
X147843Y112008D02*Y107110D01*
X145874Y112008D02*Y107110D01*
X143906Y112008D02*Y107110D01*
X141937Y112008D02*Y107110D01*
X139969Y112008D02*Y107110D01*
X138000Y112008D02*Y107110D01*
X136032Y112008D02*Y107110D01*
X134063Y112008D02*Y107110D01*
X132095Y112008D02*Y107110D01*
X130126Y112008D02*Y107110D01*
X128158Y112008D02*Y107110D01*
X126189Y112008D02*Y107110D01*
X124221Y112008D02*Y107110D01*
X122252Y112008D02*Y107110D01*
X120284Y112008D02*Y107110D01*
X118315Y112008D02*Y107110D01*
X116347Y112008D02*Y107110D01*
X114378Y112008D02*Y107110D01*
X102992Y100622D02*X107890D01*
X102992Y98654D02*X107890D01*
X102992Y96685D02*X107890D01*
X102992Y94717D02*X107890D01*
X102992Y92748D02*X107890D01*
X102992Y90780D02*X107890D01*
X102992Y88811D02*X107890D01*
X102992Y86843D02*X107890D01*
X102992Y84874D02*X107890D01*
X102992Y82906D02*X107890D01*
X102992Y80937D02*X107890D01*
X102992Y78969D02*X107890D01*
X102992Y77000D02*X107890D01*
X102992Y75032D02*X107890D01*
X102992Y73063D02*X107890D01*
X102992Y71095D02*X107890D01*
X102992Y69126D02*X107890D01*
X102992Y67158D02*X107890D01*
X102992Y65189D02*X107890D01*
X102992Y63221D02*X107890D01*
X102992Y61252D02*X107890D01*
X102992Y59284D02*X107890D01*
X102992Y57315D02*X107890D01*
X102992Y55347D02*X107890D01*
X102992Y53378D02*X107890D01*
G54D23*X63508Y63441D02*X64492D01*
X63508Y68559D02*X64492D01*
X133508Y123559D02*X134492D01*
X133508Y118441D02*X134492D01*
X184559Y90492D02*Y89508D01*
X179441Y90492D02*Y89508D01*
X58559Y138492D02*Y137508D01*
X53441Y138492D02*Y137508D01*
X58559Y173492D02*Y172508D01*
X53441Y173492D02*Y172508D01*
X184559Y95492D02*Y94508D01*
X179441Y95492D02*Y94508D01*
X94508Y83559D02*X95492D01*
X94508Y78441D02*X95492D01*
X184559Y63492D02*Y62508D01*
X179441Y63492D02*Y62508D01*
G54D21*X35700Y120000D02*X42300D01*
X35700Y129000D02*X42300D01*
X35700Y138100D02*X42300D01*
G54D22*X14600Y133500D02*Y124500D01*
G54D23*X141508Y30441D02*X142492D01*
X141508Y35559D02*X142492D01*
M02*
