G04 start of page 9 for group -4062 idx -4062 *
G04 Title: (unknown), soldermask *
G04 Creator: pcb 1.99z *
G04 CreationDate: Sun 01 Aug 2010 05:53:12 AM GMT UTC *
G04 For: jensen *
G04 Format: Gerber/RS-274X *
G04 PCB-Dimensions: 200000 250000 *
G04 PCB-Coordinate-Origin: lower left *
%MOIN*%
%FSLAX25Y25*%
%LNBACKMASK*%
%ADD11C,0.0200*%
%ADD38C,0.0660*%
%ADD39C,0.1871*%
%ADD40C,0.2068*%
%ADD41C,0.1060*%
%ADD42C,0.0320*%
%ADD45R,0.0355X0.0355*%
%ADD46R,0.0572X0.0572*%
G54D38*X87900Y190000D03*
Y180000D03*
Y170000D03*
X97900Y190000D03*
Y180000D03*
Y170000D03*
Y160000D03*
Y150000D03*
Y140000D03*
X87900Y160000D03*
Y150000D03*
Y140000D03*
Y130000D03*
X97900D03*
X87900Y120000D03*
X97900D03*
X87900Y220000D03*
X97900D03*
X87900Y210000D03*
X97900D03*
G54D11*G36*
X84600Y243300D02*Y236700D01*
X91200D01*
Y243300D01*
X84600D01*
G37*
G54D38*X97900Y240000D03*
X87900Y230000D03*
X97900D03*
X87900Y200000D03*
X97900D03*
G54D11*G36*
X41700Y198300D02*Y191700D01*
X48300D01*
Y198300D01*
X41700D01*
G37*
G54D38*X35000Y195000D03*
G54D39*X36377Y227000D03*
G54D40*X60000D03*
G54D11*G36*
X174700Y243300D02*Y236700D01*
X181300D01*
Y243300D01*
X174700D01*
G37*
G54D38*X188000Y240000D03*
X178000Y230000D03*
X188000D03*
X178000Y220000D03*
X188000D03*
X178000Y210000D03*
X188000D03*
Y200000D03*
Y190000D03*
X178000Y200000D03*
Y190000D03*
Y180000D03*
Y170000D03*
Y160000D03*
Y150000D03*
X188000Y180000D03*
Y170000D03*
Y160000D03*
Y150000D03*
X178000Y140000D03*
X188000D03*
Y130000D03*
Y120000D03*
X178000Y130000D03*
Y120000D03*
G54D11*G36*
X80700Y51300D02*Y44700D01*
X87300D01*
Y51300D01*
X80700D01*
G37*
G54D38*X64000Y48000D03*
G54D41*X13000Y33000D03*
X33000D03*
X23000Y23000D03*
X13000Y13000D03*
X33000D03*
G54D42*X62000Y138000D03*
Y173000D03*
X66000Y129000D03*
Y164000D03*
X15000Y95500D03*
Y105500D03*
X71000Y99000D03*
X83000Y96000D03*
Y102000D03*
X60000Y107000D03*
X55500Y89500D03*
X91000Y79000D03*
X87000Y88000D03*
X84000Y31000D03*
X79000Y67000D03*
X91000Y63000D03*
X55500Y72500D03*
X64000Y82000D03*
Y31000D03*
X150000Y127000D03*
Y115000D03*
X135000Y39000D03*
Y27000D03*
X154000Y39000D03*
X160000D03*
X142000D03*
X148000D03*
X121000D03*
X142000Y27000D03*
X160000D03*
X154000D03*
X148000D03*
X117000Y36000D03*
X124000D03*
X134000Y115000D03*
X116000Y117000D03*
X134000Y127000D03*
X100000Y60000D03*
Y80000D03*
Y88000D03*
Y67000D03*
X95000Y50000D03*
X104000Y46000D03*
X100000Y96000D03*
X96000Y101000D03*
Y97000D03*
X110000Y116000D03*
X107000Y11000D03*
X123000Y6000D03*
X111000Y109000D03*
X96000D03*
Y105000D03*
X188000Y63000D03*
Y57000D03*
X176000Y63000D03*
Y57000D03*
Y90000D03*
Y95000D03*
X188000Y90000D03*
Y95000D03*
G54D45*X90941Y88492D02*Y87508D01*
X96059Y88492D02*Y87508D01*
X100441Y105492D02*Y104508D01*
X105559Y105492D02*Y104508D01*
G54D46*X75607Y99457D02*X76393D01*
X75607Y106543D02*X76393D01*
G54D45*X63441Y107492D02*Y106508D01*
X68559Y107492D02*Y106508D01*
X123508Y32559D02*X124492D01*
X136508Y95441D02*X137492D01*
X136508Y100559D02*X137492D01*
X150508Y95441D02*X151492D01*
X150508Y100559D02*X151492D01*
G54D46*X78607Y71457D02*X79393D01*
X78607Y78543D02*X79393D01*
G54D45*X67441Y82492D02*Y81508D01*
X72559Y82492D02*Y81508D01*
G54D46*X106607Y16457D02*X107393D01*
X106607Y23543D02*X107393D01*
G54D45*X98508Y23559D02*X99492D01*
X98508Y18441D02*X99492D01*
X116508Y27441D02*X117492D01*
G54D46*X122607Y11457D02*X123393D01*
X122607Y18543D02*X123393D01*
G54D45*X123508Y27441D02*X124492D01*
X114508Y12441D02*X115492D01*
X114508Y17559D02*X115492D01*
X104949Y79559D02*X105933D01*
X104949Y74441D02*X105933D01*
X90941Y67492D02*Y66508D01*
X96059Y67492D02*Y66508D01*
X116508Y32559D02*X117492D01*
M02*
