G04 start of page 12 for group -4014 idx -4014 *
G04 Title: (unknown), bottompaste *
G04 Creator: pcb 1.99z *
G04 CreationDate: Sun 01 Aug 2010 05:53:12 AM GMT UTC *
G04 For: jensen *
G04 Format: Gerber/RS-274X *
G04 PCB-Dimensions: 200000 250000 *
G04 PCB-Coordinate-Origin: lower left *
%MOIN*%
%FSLAX25Y25*%
%LNBACKPASTE*%
%ADD23R,0.0295X0.0295*%
%ADD24R,0.0512X0.0512*%
G54D23*X150508Y95441D02*X151492D01*
X150508Y100559D02*X151492D01*
X114508Y12441D02*X115492D01*
X114508Y17559D02*X115492D01*
X136508Y95441D02*X137492D01*
X136508Y100559D02*X137492D01*
X123508Y27441D02*X124492D01*
X123508Y32559D02*X124492D01*
G54D24*X122607Y11457D02*X123393D01*
X122607Y18543D02*X123393D01*
G54D23*X100441Y105492D02*Y104508D01*
X105559Y105492D02*Y104508D01*
G54D24*X75607Y99457D02*X76393D01*
X75607Y106543D02*X76393D01*
G54D23*X90941Y88492D02*Y87508D01*
X96059Y88492D02*Y87508D01*
X67441Y82492D02*Y81508D01*
X72559Y82492D02*Y81508D01*
X63441Y107492D02*Y106508D01*
X68559Y107492D02*Y106508D01*
X116508Y27441D02*X117492D01*
X116508Y32559D02*X117492D01*
X104949Y79559D02*X105933D01*
X104949Y74441D02*X105933D01*
X90941Y67492D02*Y66508D01*
X96059Y67492D02*Y66508D01*
X98508Y23559D02*X99492D01*
X98508Y18441D02*X99492D01*
G54D24*X78607Y71457D02*X79393D01*
X78607Y78543D02*X79393D01*
X106607Y16457D02*X107393D01*
X106607Y23543D02*X107393D01*
M02*
