G04 start of page 14 for group -3984 idx -3984 *
G04 Title: (unknown), fab *
G04 Creator: pcb 1.99z *
G04 CreationDate: Sun 01 Aug 2010 05:53:12 AM GMT UTC *
G04 For: jensen *
G04 Format: Gerber/RS-274X *
G04 PCB-Dimensions: 200000 250000 *
G04 PCB-Coordinate-Origin: lower left *
%MOIN*%
%FSLAX25Y25*%
%LNFAB*%
%ADD11C,0.0200*%
%ADD35C,0.0100*%
%ADD51R,0.0080X0.0080*%
%ADD52C,0.0060*%
G54D11*G36*
X57600Y229966D02*X62965Y224600D01*
X62400Y224035D01*
X57034Y229400D01*
X57600Y229966D01*
G37*
G36*
X57034Y224600D02*X62400Y229966D01*
X62965Y229400D01*
X57600Y224035D01*
X57034Y224600D01*
G37*
G54D51*X58400Y228600D02*X61600D01*
X58400D02*Y225400D01*
X61600D01*
Y228600D02*Y225400D01*
G54D11*G36*
X12600Y264215D02*X17965Y258850D01*
X17400Y258284D01*
X12034Y263650D01*
X12600Y264215D01*
G37*
G36*
X12034Y258850D02*X17400Y264215D01*
X17965Y263650D01*
X12600Y258284D01*
X12034Y258850D01*
G37*
G54D51*X13400Y262850D02*X16600D01*
X13400D02*Y259650D01*
X16600D01*
Y262850D02*Y259650D01*
G54D52*X135000Y263500D02*Y262750D01*
X136500Y261250D01*
X138000Y262750D01*
Y263500D02*Y262750D01*
X136500Y261250D02*Y257500D01*
X139801Y260500D02*X142051D01*
X139801Y257500D02*X142801D01*
X139801Y263500D02*Y257500D01*
Y263500D02*X142801D01*
X147603D02*X148353Y262750D01*
X145353Y263500D02*X147603D01*
X144603Y262750D02*X145353Y263500D01*
X144603Y262750D02*Y261250D01*
X145353Y260500D01*
X147603D01*
X148353Y259750D01*
Y258250D01*
X147603Y257500D02*X148353Y258250D01*
X145353Y257500D02*X147603D01*
X144603Y258250D02*X145353Y257500D01*
X135000Y254249D02*X150154D01*
X98750Y257500D02*X100250D01*
X99500Y263500D02*Y257500D01*
X98000Y262000D02*X99500Y263500D01*
X98000Y254249D02*X102051D01*
X45000Y258250D02*X45750Y257500D01*
X45000Y262750D02*Y258250D01*
Y262750D02*X45750Y263500D01*
X47250D01*
X48000Y262750D01*
Y258250D01*
X47250Y257500D02*X48000Y258250D01*
X45750Y257500D02*X47250D01*
X45000Y259000D02*X48000Y262000D01*
X49801Y257500D02*X50551D01*
X53103D02*X54603D01*
X53853Y263500D02*Y257500D01*
X52353Y262000D02*X53853Y263500D01*
X56404Y262750D02*X57154Y263500D01*
X59404D01*
X60154Y262750D01*
Y261250D01*
X56404Y257500D02*X60154Y261250D01*
X56404Y257500D02*X60154D01*
X61956Y262750D02*X62706Y263500D01*
X64956D01*
X65706Y262750D01*
Y261250D01*
X61956Y257500D02*X65706Y261250D01*
X61956Y257500D02*X65706D01*
X45000Y254249D02*X67507D01*
X36377Y230200D02*Y223800D01*
X33177Y227000D02*X39577D01*
X34777Y228600D02*X37977D01*
X34777D02*Y225400D01*
X37977D01*
Y228600D02*Y225400D01*
X15000Y279450D02*Y273050D01*
X11800Y276250D02*X18200D01*
X13400Y277850D02*X16600D01*
X13400D02*Y274650D01*
X16600D01*
Y277850D02*Y274650D01*
X135000Y278500D02*Y277750D01*
X136500Y276250D01*
X138000Y277750D01*
Y278500D02*Y277750D01*
X136500Y276250D02*Y272500D01*
X139801Y275500D02*X142051D01*
X139801Y272500D02*X142801D01*
X139801Y278500D02*Y272500D01*
Y278500D02*X142801D01*
X147603D02*X148353Y277750D01*
X145353Y278500D02*X147603D01*
X144603Y277750D02*X145353Y278500D01*
X144603Y277750D02*Y276250D01*
X145353Y275500D01*
X147603D01*
X148353Y274750D01*
Y273250D01*
X147603Y272500D02*X148353Y273250D01*
X145353Y272500D02*X147603D01*
X144603Y273250D02*X145353Y272500D01*
X135000Y269249D02*X150154D01*
X98750Y272500D02*X100250D01*
X99500Y278500D02*Y272500D01*
X98000Y277000D02*X99500Y278500D01*
X98000Y269249D02*X102051D01*
X45000Y273250D02*X45750Y272500D01*
X45000Y277750D02*Y273250D01*
Y277750D02*X45750Y278500D01*
X47250D01*
X48000Y277750D01*
Y273250D01*
X47250Y272500D02*X48000Y273250D01*
X45750Y272500D02*X47250D01*
X45000Y274000D02*X48000Y277000D01*
X49801Y272500D02*X50551D01*
X53103D02*X54603D01*
X53853Y278500D02*Y272500D01*
X52353Y277000D02*X53853Y278500D01*
X56404Y273250D02*X57154Y272500D01*
X56404Y277750D02*Y273250D01*
Y277750D02*X57154Y278500D01*
X58654D01*
X59404Y277750D01*
Y273250D01*
X58654Y272500D02*X59404Y273250D01*
X57154Y272500D02*X58654D01*
X56404Y274000D02*X59404Y277000D01*
X61206Y277750D02*X61956Y278500D01*
X64206D01*
X64956Y277750D01*
Y276250D01*
X61206Y272500D02*X64956Y276250D01*
X61206Y272500D02*X64956D01*
X45000Y269249D02*X66757D01*
X138000Y77000D02*Y73800D01*
Y77000D02*X140773Y78600D01*
X138000Y77000D02*X135227Y78600D01*
X136400Y77000D02*G75*G03X139600Y77000I1600J0D01*G01*
G75*G03X136400Y77000I-1600J0D01*G01*
X15000Y291250D02*Y288050D01*
Y291250D02*X17773Y292850D01*
X15000Y291250D02*X12227Y292850D01*
X13400Y291250D02*G75*G03X16600Y291250I1600J0D01*G01*
G75*G03X13400Y291250I-1600J0D01*G01*
X135000Y293500D02*Y292750D01*
X136500Y291250D01*
X138000Y292750D01*
Y293500D02*Y292750D01*
X136500Y291250D02*Y287500D01*
X139801Y290500D02*X142051D01*
X139801Y287500D02*X142801D01*
X139801Y293500D02*Y287500D01*
Y293500D02*X142801D01*
X147603D02*X148353Y292750D01*
X145353Y293500D02*X147603D01*
X144603Y292750D02*X145353Y293500D01*
X144603Y292750D02*Y291250D01*
X145353Y290500D01*
X147603D01*
X148353Y289750D01*
Y288250D01*
X147603Y287500D02*X148353Y288250D01*
X145353Y287500D02*X147603D01*
X144603Y288250D02*X145353Y287500D01*
X135000Y284249D02*X150154D01*
X98750Y287500D02*X100250D01*
X99500Y293500D02*Y287500D01*
X98000Y292000D02*X99500Y293500D01*
X98000Y284249D02*X102051D01*
X45000Y288250D02*X45750Y287500D01*
X45000Y292750D02*Y288250D01*
Y292750D02*X45750Y293500D01*
X47250D01*
X48000Y292750D01*
Y288250D01*
X47250Y287500D02*X48000Y288250D01*
X45750Y287500D02*X47250D01*
X45000Y289000D02*X48000Y292000D01*
X49801Y287500D02*X50551D01*
X53103D02*X54603D01*
X53853Y293500D02*Y287500D01*
X52353Y292000D02*X53853Y293500D01*
X56404Y288250D02*X57154Y287500D01*
X56404Y292750D02*Y288250D01*
Y292750D02*X57154Y293500D01*
X58654D01*
X59404Y292750D01*
Y288250D01*
X58654Y287500D02*X59404Y288250D01*
X57154Y287500D02*X58654D01*
X56404Y289000D02*X59404Y292000D01*
X61206Y288250D02*X61956Y287500D01*
X61206Y292750D02*Y288250D01*
Y292750D02*X61956Y293500D01*
X63456D01*
X64206Y292750D01*
Y288250D01*
X63456Y287500D02*X64206Y288250D01*
X61956Y287500D02*X63456D01*
X61206Y289000D02*X64206Y292000D01*
X45000Y284249D02*X66007D01*
X11400Y34600D02*X14600D01*
X11400D02*Y31400D01*
X14600D01*
Y34600D02*Y31400D01*
X31400Y34600D02*X34600D01*
X31400D02*Y31400D01*
X34600D01*
Y34600D02*Y31400D01*
X21400Y24600D02*X24600D01*
X21400D02*Y21400D01*
X24600D01*
Y24600D02*Y21400D01*
X11400Y14600D02*X14600D01*
X11400D02*Y11400D01*
X14600D01*
Y14600D02*Y11400D01*
X31400Y14600D02*X34600D01*
X31400D02*Y11400D01*
X34600D01*
Y14600D02*Y11400D01*
X13400Y307850D02*X16600D01*
X13400D02*Y304650D01*
X16600D01*
Y307850D02*Y304650D01*
X135000Y308500D02*Y307750D01*
X136500Y306250D01*
X138000Y307750D01*
Y308500D02*Y307750D01*
X136500Y306250D02*Y302500D01*
X139801Y305500D02*X142051D01*
X139801Y302500D02*X142801D01*
X139801Y308500D02*Y302500D01*
Y308500D02*X142801D01*
X147603D02*X148353Y307750D01*
X145353Y308500D02*X147603D01*
X144603Y307750D02*X145353Y308500D01*
X144603Y307750D02*Y306250D01*
X145353Y305500D01*
X147603D01*
X148353Y304750D01*
Y303250D01*
X147603Y302500D02*X148353Y303250D01*
X145353Y302500D02*X147603D01*
X144603Y303250D02*X145353Y302500D01*
X135000Y299249D02*X150154D01*
X98000Y308500D02*X101000D01*
X98000D02*Y305500D01*
X98750Y306250D01*
X100250D01*
X101000Y305500D01*
Y303250D01*
X100250Y302500D02*X101000Y303250D01*
X98750Y302500D02*X100250D01*
X98000Y303250D02*X98750Y302500D01*
X98000Y299249D02*X102801D01*
X45000Y303250D02*X45750Y302500D01*
X45000Y307750D02*Y303250D01*
Y307750D02*X45750Y308500D01*
X47250D01*
X48000Y307750D01*
Y303250D01*
X47250Y302500D02*X48000Y303250D01*
X45750Y302500D02*X47250D01*
X45000Y304000D02*X48000Y307000D01*
X49801Y302500D02*X50551D01*
X52353Y303250D02*X53103Y302500D01*
X52353Y307750D02*Y303250D01*
Y307750D02*X53103Y308500D01*
X54603D01*
X55353Y307750D01*
Y303250D01*
X54603Y302500D02*X55353Y303250D01*
X53103Y302500D02*X54603D01*
X52353Y304000D02*X55353Y307000D01*
X59404Y308500D02*X60154Y307750D01*
X57904Y308500D02*X59404D01*
X57154Y307750D02*X57904Y308500D01*
X57154Y307750D02*Y303250D01*
X57904Y302500D01*
X59404Y305500D02*X60154Y304750D01*
X57154Y305500D02*X59404D01*
X57904Y302500D02*X59404D01*
X60154Y303250D01*
Y304750D02*Y303250D01*
X61956D02*X62706Y302500D01*
X61956Y307750D02*Y303250D01*
Y307750D02*X62706Y308500D01*
X64206D01*
X64956Y307750D01*
Y303250D01*
X64206Y302500D02*X64956Y303250D01*
X62706Y302500D02*X64206D01*
X61956Y304000D02*X64956Y307000D01*
X45000Y299249D02*X66757D01*
X177200Y240000D02*G75*G03X178800Y240000I800J0D01*G01*
G75*G03X177200Y240000I-800J0D01*G01*
X187200D02*G75*G03X188800Y240000I800J0D01*G01*
G75*G03X187200Y240000I-800J0D01*G01*
X177200Y230000D02*G75*G03X178800Y230000I800J0D01*G01*
G75*G03X177200Y230000I-800J0D01*G01*
X187200D02*G75*G03X188800Y230000I800J0D01*G01*
G75*G03X187200Y230000I-800J0D01*G01*
X177200Y220000D02*G75*G03X178800Y220000I800J0D01*G01*
G75*G03X177200Y220000I-800J0D01*G01*
X187200D02*G75*G03X188800Y220000I800J0D01*G01*
G75*G03X187200Y220000I-800J0D01*G01*
X177200Y210000D02*G75*G03X178800Y210000I800J0D01*G01*
G75*G03X177200Y210000I-800J0D01*G01*
X187200D02*G75*G03X188800Y210000I800J0D01*G01*
G75*G03X187200Y210000I-800J0D01*G01*
X177200Y200000D02*G75*G03X178800Y200000I800J0D01*G01*
G75*G03X177200Y200000I-800J0D01*G01*
X187200D02*G75*G03X188800Y200000I800J0D01*G01*
G75*G03X187200Y200000I-800J0D01*G01*
X177200Y190000D02*G75*G03X178800Y190000I800J0D01*G01*
G75*G03X177200Y190000I-800J0D01*G01*
X187200D02*G75*G03X188800Y190000I800J0D01*G01*
G75*G03X187200Y190000I-800J0D01*G01*
X177200Y180000D02*G75*G03X178800Y180000I800J0D01*G01*
G75*G03X177200Y180000I-800J0D01*G01*
X187200D02*G75*G03X188800Y180000I800J0D01*G01*
G75*G03X187200Y180000I-800J0D01*G01*
X177200Y170000D02*G75*G03X178800Y170000I800J0D01*G01*
G75*G03X177200Y170000I-800J0D01*G01*
X187200D02*G75*G03X188800Y170000I800J0D01*G01*
G75*G03X187200Y170000I-800J0D01*G01*
X177200Y160000D02*G75*G03X178800Y160000I800J0D01*G01*
G75*G03X177200Y160000I-800J0D01*G01*
X187200D02*G75*G03X188800Y160000I800J0D01*G01*
G75*G03X187200Y160000I-800J0D01*G01*
X177200Y150000D02*G75*G03X178800Y150000I800J0D01*G01*
G75*G03X177200Y150000I-800J0D01*G01*
X187200D02*G75*G03X188800Y150000I800J0D01*G01*
G75*G03X187200Y150000I-800J0D01*G01*
X177200Y140000D02*G75*G03X178800Y140000I800J0D01*G01*
G75*G03X177200Y140000I-800J0D01*G01*
X187200D02*G75*G03X188800Y140000I800J0D01*G01*
G75*G03X187200Y140000I-800J0D01*G01*
X177200Y130000D02*G75*G03X178800Y130000I800J0D01*G01*
G75*G03X177200Y130000I-800J0D01*G01*
X187200D02*G75*G03X188800Y130000I800J0D01*G01*
G75*G03X187200Y130000I-800J0D01*G01*
X177200Y120000D02*G75*G03X178800Y120000I800J0D01*G01*
G75*G03X177200Y120000I-800J0D01*G01*
X187200D02*G75*G03X188800Y120000I800J0D01*G01*
G75*G03X187200Y120000I-800J0D01*G01*
X87100Y240000D02*G75*G03X88700Y240000I800J0D01*G01*
G75*G03X87100Y240000I-800J0D01*G01*
X97100D02*G75*G03X98700Y240000I800J0D01*G01*
G75*G03X97100Y240000I-800J0D01*G01*
X87100Y230000D02*G75*G03X88700Y230000I800J0D01*G01*
G75*G03X87100Y230000I-800J0D01*G01*
X97100D02*G75*G03X98700Y230000I800J0D01*G01*
G75*G03X97100Y230000I-800J0D01*G01*
X87100Y220000D02*G75*G03X88700Y220000I800J0D01*G01*
G75*G03X87100Y220000I-800J0D01*G01*
X97100D02*G75*G03X98700Y220000I800J0D01*G01*
G75*G03X97100Y220000I-800J0D01*G01*
X87100Y210000D02*G75*G03X88700Y210000I800J0D01*G01*
G75*G03X87100Y210000I-800J0D01*G01*
X97100D02*G75*G03X98700Y210000I800J0D01*G01*
G75*G03X97100Y210000I-800J0D01*G01*
X87100Y200000D02*G75*G03X88700Y200000I800J0D01*G01*
G75*G03X87100Y200000I-800J0D01*G01*
X97100D02*G75*G03X98700Y200000I800J0D01*G01*
G75*G03X97100Y200000I-800J0D01*G01*
X87100Y190000D02*G75*G03X88700Y190000I800J0D01*G01*
G75*G03X87100Y190000I-800J0D01*G01*
X97100D02*G75*G03X98700Y190000I800J0D01*G01*
G75*G03X97100Y190000I-800J0D01*G01*
X87100Y180000D02*G75*G03X88700Y180000I800J0D01*G01*
G75*G03X87100Y180000I-800J0D01*G01*
X97100D02*G75*G03X98700Y180000I800J0D01*G01*
G75*G03X97100Y180000I-800J0D01*G01*
X87100Y170000D02*G75*G03X88700Y170000I800J0D01*G01*
G75*G03X87100Y170000I-800J0D01*G01*
X97100D02*G75*G03X98700Y170000I800J0D01*G01*
G75*G03X97100Y170000I-800J0D01*G01*
X87100Y160000D02*G75*G03X88700Y160000I800J0D01*G01*
G75*G03X87100Y160000I-800J0D01*G01*
X97100D02*G75*G03X98700Y160000I800J0D01*G01*
G75*G03X97100Y160000I-800J0D01*G01*
X87100Y150000D02*G75*G03X88700Y150000I800J0D01*G01*
G75*G03X87100Y150000I-800J0D01*G01*
X97100D02*G75*G03X98700Y150000I800J0D01*G01*
G75*G03X97100Y150000I-800J0D01*G01*
X87100Y140000D02*G75*G03X88700Y140000I800J0D01*G01*
G75*G03X87100Y140000I-800J0D01*G01*
X97100D02*G75*G03X98700Y140000I800J0D01*G01*
G75*G03X97100Y140000I-800J0D01*G01*
X87100Y130000D02*G75*G03X88700Y130000I800J0D01*G01*
G75*G03X87100Y130000I-800J0D01*G01*
X97100D02*G75*G03X98700Y130000I800J0D01*G01*
G75*G03X97100Y130000I-800J0D01*G01*
X87100Y120000D02*G75*G03X88700Y120000I800J0D01*G01*
G75*G03X87100Y120000I-800J0D01*G01*
X97100D02*G75*G03X98700Y120000I800J0D01*G01*
G75*G03X97100Y120000I-800J0D01*G01*
X14200Y321250D02*G75*G03X15800Y321250I800J0D01*G01*
G75*G03X14200Y321250I-800J0D01*G01*
X135000Y323500D02*Y322750D01*
X136500Y321250D01*
X138000Y322750D01*
Y323500D02*Y322750D01*
X136500Y321250D02*Y317500D01*
X139801Y320500D02*X142051D01*
X139801Y317500D02*X142801D01*
X139801Y323500D02*Y317500D01*
Y323500D02*X142801D01*
X147603D02*X148353Y322750D01*
X145353Y323500D02*X147603D01*
X144603Y322750D02*X145353Y323500D01*
X144603Y322750D02*Y321250D01*
X145353Y320500D01*
X147603D01*
X148353Y319750D01*
Y318250D01*
X147603Y317500D02*X148353Y318250D01*
X145353Y317500D02*X147603D01*
X144603Y318250D02*X145353Y317500D01*
X135000Y314249D02*X150154D01*
X98000Y323500D02*X101000D01*
X98000D02*Y320500D01*
X98750Y321250D01*
X100250D01*
X101000Y320500D01*
Y318250D01*
X100250Y317500D02*X101000Y318250D01*
X98750Y317500D02*X100250D01*
X98000Y318250D02*X98750Y317500D01*
X102801Y322750D02*X103551Y323500D01*
X105801D01*
X106551Y322750D01*
Y321250D01*
X102801Y317500D02*X106551Y321250D01*
X102801Y317500D02*X106551D01*
X98000Y314249D02*X108353D01*
X45000Y318250D02*X45750Y317500D01*
X45000Y322750D02*Y318250D01*
Y322750D02*X45750Y323500D01*
X47250D01*
X48000Y322750D01*
Y318250D01*
X47250Y317500D02*X48000Y318250D01*
X45750Y317500D02*X47250D01*
X45000Y319000D02*X48000Y322000D01*
X49801Y317500D02*X50551D01*
X52353Y318250D02*X53103Y317500D01*
X52353Y322750D02*Y318250D01*
Y322750D02*X53103Y323500D01*
X54603D01*
X55353Y322750D01*
Y318250D01*
X54603Y317500D02*X55353Y318250D01*
X53103Y317500D02*X54603D01*
X52353Y319000D02*X55353Y322000D01*
X57154Y322750D02*X57904Y323500D01*
X59404D01*
X60154Y322750D01*
Y318250D01*
X59404Y317500D02*X60154Y318250D01*
X57904Y317500D02*X59404D01*
X57154Y318250D02*X57904Y317500D01*
Y320500D02*X60154D01*
X61956Y318250D02*X62706Y317500D01*
X61956Y319750D02*Y318250D01*
Y319750D02*X62706Y320500D01*
X64206D01*
X64956Y319750D01*
Y318250D01*
X64206Y317500D02*X64956Y318250D01*
X62706Y317500D02*X64206D01*
X61956Y321250D02*X62706Y320500D01*
X61956Y322750D02*Y321250D01*
Y322750D02*X62706Y323500D01*
X64206D01*
X64956Y322750D01*
Y321250D01*
X64206Y320500D02*X64956Y321250D01*
X45000Y314249D02*X66757D01*
X43800Y196200D02*X46200Y193800D01*
X43800D02*X46200Y196200D01*
X33800D02*X36200Y193800D01*
X33800D02*X36200Y196200D01*
X13800Y337450D02*X16200Y335050D01*
X13800D02*X16200Y337450D01*
X135000Y338500D02*Y337750D01*
X136500Y336250D01*
X138000Y337750D01*
Y338500D02*Y337750D01*
X136500Y336250D02*Y332500D01*
X139801Y335500D02*X142051D01*
X139801Y332500D02*X142801D01*
X139801Y338500D02*Y332500D01*
Y338500D02*X142801D01*
X147603D02*X148353Y337750D01*
X145353Y338500D02*X147603D01*
X144603Y337750D02*X145353Y338500D01*
X144603Y337750D02*Y336250D01*
X145353Y335500D01*
X147603D01*
X148353Y334750D01*
Y333250D01*
X147603Y332500D02*X148353Y333250D01*
X145353Y332500D02*X147603D01*
X144603Y333250D02*X145353Y332500D01*
X135000Y329249D02*X150154D01*
X98000Y337750D02*X98750Y338500D01*
X101000D01*
X101750Y337750D01*
Y336250D01*
X98000Y332500D02*X101750Y336250D01*
X98000Y332500D02*X101750D01*
X98000Y329249D02*X103551D01*
X45000Y333250D02*X45750Y332500D01*
X45000Y337750D02*Y333250D01*
Y337750D02*X45750Y338500D01*
X47250D01*
X48000Y337750D01*
Y333250D01*
X47250Y332500D02*X48000Y333250D01*
X45750Y332500D02*X47250D01*
X45000Y334000D02*X48000Y337000D01*
X49801Y332500D02*X50551D01*
X52353Y333250D02*X53103Y332500D01*
X52353Y337750D02*Y333250D01*
Y337750D02*X53103Y338500D01*
X54603D01*
X55353Y337750D01*
Y333250D01*
X54603Y332500D02*X55353Y333250D01*
X53103Y332500D02*X54603D01*
X52353Y334000D02*X55353Y337000D01*
X57154Y337750D02*X57904Y338500D01*
X59404D01*
X60154Y337750D01*
Y333250D01*
X59404Y332500D02*X60154Y333250D01*
X57904Y332500D02*X59404D01*
X57154Y333250D02*X57904Y332500D01*
Y335500D02*X60154D01*
X61956Y333250D02*X62706Y332500D01*
X61956Y337750D02*Y333250D01*
Y337750D02*X62706Y338500D01*
X64206D01*
X64956Y337750D01*
Y333250D01*
X64206Y332500D02*X64956Y333250D01*
X62706Y332500D02*X64206D01*
X61956Y334000D02*X64956Y337000D01*
X45000Y329249D02*X66757D01*
X84000Y49600D02*Y46400D01*
X82400Y48000D02*X85600D01*
X64000Y49600D02*Y46400D01*
X62400Y48000D02*X65600D01*
X15000Y352850D02*Y349650D01*
X13400Y351250D02*X16600D01*
X135000Y353500D02*Y352750D01*
X136500Y351250D01*
X138000Y352750D01*
Y353500D02*Y352750D01*
X136500Y351250D02*Y347500D01*
X139801Y350500D02*X142051D01*
X139801Y347500D02*X142801D01*
X139801Y353500D02*Y347500D01*
Y353500D02*X142801D01*
X147603D02*X148353Y352750D01*
X145353Y353500D02*X147603D01*
X144603Y352750D02*X145353Y353500D01*
X144603Y352750D02*Y351250D01*
X145353Y350500D01*
X147603D01*
X148353Y349750D01*
Y348250D01*
X147603Y347500D02*X148353Y348250D01*
X145353Y347500D02*X147603D01*
X144603Y348250D02*X145353Y347500D01*
X135000Y344249D02*X150154D01*
X98000Y352750D02*X98750Y353500D01*
X101000D01*
X101750Y352750D01*
Y351250D01*
X98000Y347500D02*X101750Y351250D01*
X98000Y347500D02*X101750D01*
X98000Y344249D02*X103551D01*
X45000Y348250D02*X45750Y347500D01*
X45000Y352750D02*Y348250D01*
Y352750D02*X45750Y353500D01*
X47250D01*
X48000Y352750D01*
Y348250D01*
X47250Y347500D02*X48000Y348250D01*
X45750Y347500D02*X47250D01*
X45000Y349000D02*X48000Y352000D01*
X49801Y347500D02*X50551D01*
X52353Y348250D02*X53103Y347500D01*
X52353Y352750D02*Y348250D01*
Y352750D02*X53103Y353500D01*
X54603D01*
X55353Y352750D01*
Y348250D01*
X54603Y347500D02*X55353Y348250D01*
X53103Y347500D02*X54603D01*
X52353Y349000D02*X55353Y352000D01*
X57154Y352750D02*X57904Y353500D01*
X60154D01*
X60904Y352750D01*
Y351250D01*
X57154Y347500D02*X60904Y351250D01*
X57154Y347500D02*X60904D01*
X62706Y348250D02*X63456Y347500D01*
X62706Y349750D02*Y348250D01*
Y349750D02*X63456Y350500D01*
X64956D01*
X65706Y349750D01*
Y348250D01*
X64956Y347500D02*X65706Y348250D01*
X63456Y347500D02*X64956D01*
X62706Y351250D02*X63456Y350500D01*
X62706Y352750D02*Y351250D01*
Y352750D02*X63456Y353500D01*
X64956D01*
X65706Y352750D01*
Y351250D01*
X64956Y350500D02*X65706Y351250D01*
X45000Y344249D02*X67507D01*
X15000Y95500D02*Y93900D01*
Y95500D02*X16386Y96300D01*
X15000Y95500D02*X13614Y96300D01*
X27000Y155000D02*Y153400D01*
Y155000D02*X28386Y155800D01*
X27000Y155000D02*X25614Y155800D01*
X27000Y164000D02*Y162400D01*
Y164000D02*X28386Y164800D01*
X27000Y164000D02*X25614Y164800D01*
X27000Y129000D02*Y127400D01*
Y129000D02*X28386Y129800D01*
X27000Y129000D02*X25614Y129800D01*
X62000Y138000D02*Y136400D01*
Y138000D02*X63386Y138800D01*
X62000Y138000D02*X60614Y138800D01*
X62000Y173000D02*Y171400D01*
Y173000D02*X63386Y173800D01*
X62000Y173000D02*X60614Y173800D01*
X66000Y129000D02*Y127400D01*
Y129000D02*X67386Y129800D01*
X66000Y129000D02*X64614Y129800D01*
X66000Y164000D02*Y162400D01*
Y164000D02*X67386Y164800D01*
X66000Y164000D02*X64614Y164800D01*
X27000Y120000D02*Y118400D01*
Y120000D02*X28386Y120800D01*
X27000Y120000D02*X25614Y120800D01*
X150000Y127000D02*Y125400D01*
Y127000D02*X151386Y127800D01*
X150000Y127000D02*X148614Y127800D01*
X137000Y104000D02*Y102400D01*
Y104000D02*X138386Y104800D01*
X137000Y104000D02*X135614Y104800D01*
X81000Y140000D02*Y138400D01*
Y140000D02*X82386Y140800D01*
X81000Y140000D02*X79614Y140800D01*
X159000Y50000D02*Y48400D01*
Y50000D02*X160386Y50800D01*
X159000Y50000D02*X157614Y50800D01*
X135000Y39000D02*Y37400D01*
Y39000D02*X136386Y39800D01*
X135000Y39000D02*X133614Y39800D01*
X135000Y27000D02*Y25400D01*
Y27000D02*X136386Y27800D01*
X135000Y27000D02*X133614Y27800D01*
X142000Y39000D02*Y37400D01*
Y39000D02*X143386Y39800D01*
X142000Y39000D02*X140614Y39800D01*
X148000Y39000D02*Y37400D01*
Y39000D02*X149386Y39800D01*
X148000Y39000D02*X146614Y39800D01*
X154000Y39000D02*Y37400D01*
Y39000D02*X155386Y39800D01*
X154000Y39000D02*X152614Y39800D01*
X147000Y50000D02*Y48400D01*
Y50000D02*X148386Y50800D01*
X147000Y50000D02*X145614Y50800D01*
X151000Y50000D02*Y48400D01*
Y50000D02*X152386Y50800D01*
X151000Y50000D02*X149614Y50800D01*
X141000Y50000D02*Y48400D01*
Y50000D02*X142386Y50800D01*
X141000Y50000D02*X139614Y50800D01*
X142000Y27000D02*Y25400D01*
Y27000D02*X143386Y27800D01*
X142000Y27000D02*X140614Y27800D01*
X71000Y99000D02*Y97400D01*
Y99000D02*X72386Y99800D01*
X71000Y99000D02*X69614Y99800D01*
X188000Y63000D02*Y61400D01*
Y63000D02*X189386Y63800D01*
X188000Y63000D02*X186614Y63800D01*
X188000Y57000D02*Y55400D01*
Y57000D02*X189386Y57800D01*
X188000Y57000D02*X186614Y57800D01*
X176000Y63000D02*Y61400D01*
Y63000D02*X177386Y63800D01*
X176000Y63000D02*X174614Y63800D01*
X176000Y57000D02*Y55400D01*
Y57000D02*X177386Y57800D01*
X176000Y57000D02*X174614Y57800D01*
X160000Y39000D02*Y37400D01*
Y39000D02*X161386Y39800D01*
X160000Y39000D02*X158614Y39800D01*
X160000Y27000D02*Y25400D01*
Y27000D02*X161386Y27800D01*
X160000Y27000D02*X158614Y27800D01*
X176000Y90000D02*Y88400D01*
Y90000D02*X177386Y90800D01*
X176000Y90000D02*X174614Y90800D01*
X188000Y90000D02*Y88400D01*
Y90000D02*X189386Y90800D01*
X188000Y90000D02*X186614Y90800D01*
X176000Y95000D02*Y93400D01*
Y95000D02*X177386Y95800D01*
X176000Y95000D02*X174614Y95800D01*
X188000Y95000D02*Y93400D01*
Y95000D02*X189386Y95800D01*
X188000Y95000D02*X186614Y95800D01*
X151000Y104000D02*Y102400D01*
Y104000D02*X152386Y104800D01*
X151000Y104000D02*X149614Y104800D01*
X150000Y115000D02*Y113400D01*
Y115000D02*X151386Y115800D01*
X150000Y115000D02*X148614Y115800D01*
X134000Y115000D02*Y113400D01*
Y115000D02*X135386Y115800D01*
X134000Y115000D02*X132614Y115800D01*
X134000Y127000D02*Y125400D01*
Y127000D02*X135386Y127800D01*
X134000Y127000D02*X132614Y127800D01*
X91000Y79000D02*Y77400D01*
Y79000D02*X92386Y79800D01*
X91000Y79000D02*X89614Y79800D01*
X137000Y92000D02*Y90400D01*
Y92000D02*X138386Y92800D01*
X137000Y92000D02*X135614Y92800D01*
X116000Y117000D02*Y115400D01*
Y117000D02*X117386Y117800D01*
X116000Y117000D02*X114614Y117800D01*
X121000Y39000D02*Y37400D01*
Y39000D02*X122386Y39800D01*
X121000Y39000D02*X119614Y39800D01*
X100000Y60000D02*Y58400D01*
Y60000D02*X101386Y60800D01*
X100000Y60000D02*X98614Y60800D01*
X100000Y80000D02*Y78400D01*
Y80000D02*X101386Y80800D01*
X100000Y80000D02*X98614Y80800D01*
X100000Y96000D02*Y94400D01*
Y96000D02*X101386Y96800D01*
X100000Y96000D02*X98614Y96800D01*
X154000Y27000D02*Y25400D01*
Y27000D02*X155386Y27800D01*
X154000Y27000D02*X152614Y27800D01*
X148000Y27000D02*Y25400D01*
Y27000D02*X149386Y27800D01*
X148000Y27000D02*X146614Y27800D01*
X151000Y92000D02*Y90400D01*
Y92000D02*X152386Y92800D01*
X151000Y92000D02*X149614Y92800D01*
X60000Y107000D02*Y105400D01*
Y107000D02*X61386Y107800D01*
X60000Y107000D02*X58614Y107800D01*
X110000Y116000D02*Y114400D01*
Y116000D02*X111386Y116800D01*
X110000Y116000D02*X108614Y116800D01*
X111000Y109000D02*Y107400D01*
Y109000D02*X112386Y109800D01*
X111000Y109000D02*X109614Y109800D01*
X96000Y109000D02*Y107400D01*
Y109000D02*X97386Y109800D01*
X96000Y109000D02*X94614Y109800D01*
X96000Y105000D02*Y103400D01*
Y105000D02*X97386Y105800D01*
X96000Y105000D02*X94614Y105800D01*
X96000Y101000D02*Y99400D01*
Y101000D02*X97386Y101800D01*
X96000Y101000D02*X94614Y101800D01*
X96000Y97000D02*Y95400D01*
Y97000D02*X97386Y97800D01*
X96000Y97000D02*X94614Y97800D01*
X83000Y96000D02*Y94400D01*
Y96000D02*X84386Y96800D01*
X83000Y96000D02*X81614Y96800D01*
X83000Y102000D02*Y100400D01*
Y102000D02*X84386Y102800D01*
X83000Y102000D02*X81614Y102800D01*
X110500Y88500D02*Y86900D01*
Y88500D02*X111886Y89300D01*
X110500Y88500D02*X109114Y89300D01*
X100000Y88000D02*Y86400D01*
Y88000D02*X101386Y88800D01*
X100000Y88000D02*X98614Y88800D01*
X87000Y88000D02*Y86400D01*
Y88000D02*X88386Y88800D01*
X87000Y88000D02*X85614Y88800D01*
X55500Y72500D02*Y70900D01*
Y72500D02*X56886Y73300D01*
X55500Y72500D02*X54114Y73300D01*
X37000Y46000D02*Y44400D01*
Y46000D02*X38386Y46800D01*
X37000Y46000D02*X35614Y46800D01*
X55500Y89500D02*Y87900D01*
Y89500D02*X56886Y90300D01*
X55500Y89500D02*X54114Y90300D01*
X33500Y42000D02*Y40400D01*
Y42000D02*X34886Y42800D01*
X33500Y42000D02*X32114Y42800D01*
X33500Y78000D02*Y76400D01*
Y78000D02*X34886Y78800D01*
X33500Y78000D02*X32114Y78800D01*
X12500Y78000D02*Y76400D01*
Y78000D02*X13886Y78800D01*
X12500Y78000D02*X11114Y78800D01*
X33500Y69000D02*Y67400D01*
Y69000D02*X34886Y69800D01*
X33500Y69000D02*X32114Y69800D01*
X33500Y60000D02*Y58400D01*
Y60000D02*X34886Y60800D01*
X33500Y60000D02*X32114Y60800D01*
X33500Y51000D02*Y49400D01*
Y51000D02*X34886Y51800D01*
X33500Y51000D02*X32114Y51800D01*
X12500Y69000D02*Y67400D01*
Y69000D02*X13886Y69800D01*
X12500Y69000D02*X11114Y69800D01*
X12500Y51000D02*Y49400D01*
Y51000D02*X13886Y51800D01*
X12500Y51000D02*X11114Y51800D01*
X9000Y46000D02*Y44400D01*
Y46000D02*X10386Y46800D01*
X9000Y46000D02*X7614Y46800D01*
X100000Y67000D02*Y65400D01*
Y67000D02*X101386Y67800D01*
X100000Y67000D02*X98614Y67800D01*
X41000Y69000D02*Y67400D01*
Y69000D02*X42386Y69800D01*
X41000Y69000D02*X39614Y69800D01*
X41000Y60000D02*Y58400D01*
Y60000D02*X42386Y60800D01*
X41000Y60000D02*X39614Y60800D01*
X41000Y78000D02*Y76400D01*
Y78000D02*X42386Y78800D01*
X41000Y78000D02*X39614Y78800D01*
X37000Y64000D02*Y62400D01*
Y64000D02*X38386Y64800D01*
X37000Y64000D02*X35614Y64800D01*
X9000Y56000D02*Y54400D01*
Y56000D02*X10386Y56800D01*
X9000Y56000D02*X7614Y56800D01*
X9000Y74000D02*Y72400D01*
Y74000D02*X10386Y74800D01*
X9000Y74000D02*X7614Y74800D01*
X12500Y60000D02*Y58400D01*
Y60000D02*X13886Y60800D01*
X12500Y60000D02*X11114Y60800D01*
X9000Y64000D02*Y62400D01*
Y64000D02*X10386Y64800D01*
X9000Y64000D02*X7614Y64800D01*
X64000Y31000D02*Y29400D01*
Y31000D02*X65386Y31800D01*
X64000Y31000D02*X62614Y31800D01*
X84000Y31000D02*Y29400D01*
Y31000D02*X85386Y31800D01*
X84000Y31000D02*X82614Y31800D01*
X64000Y82000D02*Y80400D01*
Y82000D02*X65386Y82800D01*
X64000Y82000D02*X62614Y82800D01*
X79000Y67000D02*Y65400D01*
Y67000D02*X80386Y67800D01*
X79000Y67000D02*X77614Y67800D01*
X110500Y75000D02*Y73400D01*
Y75000D02*X111886Y75800D01*
X110500Y75000D02*X109114Y75800D01*
X110500Y82500D02*Y80900D01*
Y82500D02*X111886Y83300D01*
X110500Y82500D02*X109114Y83300D01*
X91000Y63000D02*Y61400D01*
Y63000D02*X92386Y63800D01*
X91000Y63000D02*X89614Y63800D01*
X95000Y50000D02*Y48400D01*
Y50000D02*X96386Y50800D01*
X95000Y50000D02*X93614Y50800D01*
X104000Y46000D02*Y44400D01*
Y46000D02*X105386Y46800D01*
X104000Y46000D02*X102614Y46800D01*
X117000Y36000D02*Y34400D01*
Y36000D02*X118386Y36800D01*
X117000Y36000D02*X115614Y36800D01*
X124000Y36000D02*Y34400D01*
Y36000D02*X125386Y36800D01*
X124000Y36000D02*X122614Y36800D01*
X107000Y11000D02*Y9400D01*
Y11000D02*X108386Y11800D01*
X107000Y11000D02*X105614Y11800D01*
X123000Y6000D02*Y4400D01*
Y6000D02*X124386Y6800D01*
X123000Y6000D02*X121614Y6800D01*
X12500Y42000D02*Y40400D01*
Y42000D02*X13886Y42800D01*
X12500Y42000D02*X11114Y42800D01*
X5000Y78000D02*Y76400D01*
Y78000D02*X6386Y78800D01*
X5000Y78000D02*X3614Y78800D01*
X5000Y69000D02*Y67400D01*
Y69000D02*X6386Y69800D01*
X5000Y69000D02*X3614Y69800D01*
X5000Y51000D02*Y49400D01*
Y51000D02*X6386Y51800D01*
X5000Y51000D02*X3614Y51800D01*
X5000Y60000D02*Y58400D01*
Y60000D02*X6386Y60800D01*
X5000Y60000D02*X3614Y60800D01*
X5000Y42000D02*Y40400D01*
Y42000D02*X6386Y42800D01*
X5000Y42000D02*X3614Y42800D01*
X41000Y51000D02*Y49400D01*
Y51000D02*X42386Y51800D01*
X41000Y51000D02*X39614Y51800D01*
X37000Y56000D02*Y54400D01*
Y56000D02*X38386Y56800D01*
X37000Y56000D02*X35614Y56800D01*
X37000Y74000D02*Y72400D01*
Y74000D02*X38386Y74800D01*
X37000Y74000D02*X35614Y74800D01*
X41000Y42000D02*Y40400D01*
Y42000D02*X42386Y42800D01*
X41000Y42000D02*X39614Y42800D01*
X15000Y105500D02*Y103900D01*
Y105500D02*X16386Y106300D01*
X15000Y105500D02*X13614Y106300D01*
X193000Y135500D02*Y133900D01*
Y135500D02*X194386Y136300D01*
X193000Y135500D02*X191614Y136300D01*
X195000Y190000D02*Y188400D01*
Y190000D02*X196386Y190800D01*
X195000Y190000D02*X193614Y190800D01*
X81000Y190000D02*Y188400D01*
Y190000D02*X82386Y190800D01*
X81000Y190000D02*X79614Y190800D01*
X183000Y110000D02*Y108400D01*
Y110000D02*X184386Y110800D01*
X183000Y110000D02*X181614Y110800D01*
X183000Y106000D02*Y104400D01*
Y106000D02*X184386Y106800D01*
X183000Y106000D02*X181614Y106800D01*
X183000Y102000D02*Y100400D01*
Y102000D02*X184386Y102800D01*
X183000Y102000D02*X181614Y102800D01*
X181000Y20000D02*Y18400D01*
Y20000D02*X182386Y20800D01*
X181000Y20000D02*X179614Y20800D01*
X187000Y20000D02*Y18400D01*
Y20000D02*X188386Y20800D01*
X187000Y20000D02*X185614Y20800D01*
X193000Y20000D02*Y18400D01*
Y20000D02*X194386Y20800D01*
X193000Y20000D02*X191614Y20800D01*
X15000Y366250D02*Y364650D01*
Y366250D02*X16386Y367050D01*
X15000Y366250D02*X13614Y367050D01*
X135000Y368500D02*Y367750D01*
X136500Y366250D01*
X138000Y367750D01*
Y368500D02*Y367750D01*
X136500Y366250D02*Y362500D01*
X139801Y365500D02*X142051D01*
X139801Y362500D02*X142801D01*
X139801Y368500D02*Y362500D01*
Y368500D02*X142801D01*
X147603D02*X148353Y367750D01*
X145353Y368500D02*X147603D01*
X144603Y367750D02*X145353Y368500D01*
X144603Y367750D02*Y366250D01*
X145353Y365500D01*
X147603D01*
X148353Y364750D01*
Y363250D01*
X147603Y362500D02*X148353Y363250D01*
X145353Y362500D02*X147603D01*
X144603Y363250D02*X145353Y362500D01*
X135000Y359249D02*X150154D01*
X98750Y362500D02*X100250D01*
X99500Y368500D02*Y362500D01*
X98000Y367000D02*X99500Y368500D01*
X102801Y362500D02*X104301D01*
X103551Y368500D02*Y362500D01*
X102051Y367000D02*X103551Y368500D01*
X106103Y367750D02*X106853Y368500D01*
X108353D01*
X109103Y367750D01*
Y363250D01*
X108353Y362500D02*X109103Y363250D01*
X106853Y362500D02*X108353D01*
X106103Y363250D02*X106853Y362500D01*
Y365500D02*X109103D01*
X98000Y359249D02*X110904D01*
X45000Y363250D02*X45750Y362500D01*
X45000Y367750D02*Y363250D01*
Y367750D02*X45750Y368500D01*
X47250D01*
X48000Y367750D01*
Y363250D01*
X47250Y362500D02*X48000Y363250D01*
X45750Y362500D02*X47250D01*
X45000Y364000D02*X48000Y367000D01*
X49801Y362500D02*X50551D01*
X52353Y363250D02*X53103Y362500D01*
X52353Y367750D02*Y363250D01*
Y367750D02*X53103Y368500D01*
X54603D01*
X55353Y367750D01*
Y363250D01*
X54603Y362500D02*X55353Y363250D01*
X53103Y362500D02*X54603D01*
X52353Y364000D02*X55353Y367000D01*
X57904Y362500D02*X59404D01*
X58654Y368500D02*Y362500D01*
X57154Y367000D02*X58654Y368500D01*
X61206Y365500D02*X64206Y368500D01*
X61206Y365500D02*X64956D01*
X64206Y368500D02*Y362500D01*
X45000Y359249D02*X66757D01*
X3000Y383500D02*X3750Y382750D01*
X750Y383500D02*X3000D01*
X0Y382750D02*X750Y383500D01*
X0Y382750D02*Y381250D01*
X750Y380500D01*
X3000D01*
X3750Y379750D01*
Y378250D01*
X3000Y377500D02*X3750Y378250D01*
X750Y377500D02*X3000D01*
X0Y378250D02*X750Y377500D01*
X5551Y380500D02*Y378250D01*
X6301Y377500D01*
X8551Y380500D02*Y376000D01*
X7801Y375250D02*X8551Y376000D01*
X6301Y375250D02*X7801D01*
X5551Y376000D02*X6301Y375250D01*
Y377500D02*X7801D01*
X8551Y378250D01*
X11103Y379750D02*Y377500D01*
Y379750D02*X11853Y380500D01*
X12603D01*
X13353Y379750D01*
Y377500D01*
Y379750D02*X14103Y380500D01*
X14853D01*
X15603Y379750D01*
Y377500D01*
X10353Y380500D02*X11103Y379750D01*
X17404Y383500D02*Y377500D01*
Y378250D02*X18154Y377500D01*
X19654D01*
X20404Y378250D01*
Y379750D02*Y378250D01*
X19654Y380500D02*X20404Y379750D01*
X18154Y380500D02*X19654D01*
X17404Y379750D02*X18154Y380500D01*
X22206Y379750D02*Y378250D01*
Y379750D02*X22956Y380500D01*
X24456D01*
X25206Y379750D01*
Y378250D01*
X24456Y377500D02*X25206Y378250D01*
X22956Y377500D02*X24456D01*
X22206Y378250D02*X22956Y377500D01*
X27007Y383500D02*Y378250D01*
X27757Y377500D01*
X41750Y383500D02*Y377500D01*
X44000Y383500D02*X44750Y382750D01*
Y378250D01*
X44000Y377500D02*X44750Y378250D01*
X41000Y377500D02*X44000D01*
X41000Y383500D02*X44000D01*
X46551Y382000D02*Y381250D01*
Y379750D02*Y377500D01*
X50303Y380500D02*X51053Y379750D01*
X48803Y380500D02*X50303D01*
X48053Y379750D02*X48803Y380500D01*
X48053Y379750D02*Y378250D01*
X48803Y377500D01*
X51053Y380500D02*Y378250D01*
X51803Y377500D01*
X48803D02*X50303D01*
X51053Y378250D01*
X54354Y379750D02*Y377500D01*
Y379750D02*X55104Y380500D01*
X55854D01*
X56604Y379750D01*
Y377500D01*
Y379750D02*X57354Y380500D01*
X58104D01*
X58854Y379750D01*
Y377500D01*
X53604Y380500D02*X54354Y379750D01*
X60656Y377500D02*X61406D01*
X65907Y378250D02*X66657Y377500D01*
X65907Y382750D02*X66657Y383500D01*
X65907Y382750D02*Y378250D01*
X68459Y383500D02*X69959D01*
X69209D02*Y377500D01*
X68459D02*X69959D01*
X72510Y379750D02*Y377500D01*
Y379750D02*X73260Y380500D01*
X74010D01*
X74760Y379750D01*
Y377500D01*
X71760Y380500D02*X72510Y379750D01*
X77312Y380500D02*X79562D01*
X76562Y379750D02*X77312Y380500D01*
X76562Y379750D02*Y378250D01*
X77312Y377500D01*
X79562D01*
X81363Y383500D02*Y377500D01*
Y379750D02*X82113Y380500D01*
X83613D01*
X84363Y379750D01*
Y377500D01*
X86165Y383500D02*X86915Y382750D01*
Y378250D01*
X86165Y377500D02*X86915Y378250D01*
X95750Y377500D02*X98000D01*
X95000Y378250D02*X95750Y377500D01*
X95000Y382750D02*Y378250D01*
Y382750D02*X95750Y383500D01*
X98000D01*
X99801Y379750D02*Y378250D01*
Y379750D02*X100551Y380500D01*
X102051D01*
X102801Y379750D01*
Y378250D01*
X102051Y377500D02*X102801Y378250D01*
X100551Y377500D02*X102051D01*
X99801Y378250D02*X100551Y377500D01*
X104603Y380500D02*Y378250D01*
X105353Y377500D01*
X106853D01*
X107603Y378250D01*
Y380500D02*Y378250D01*
X110154Y379750D02*Y377500D01*
Y379750D02*X110904Y380500D01*
X111654D01*
X112404Y379750D01*
Y377500D01*
X109404Y380500D02*X110154Y379750D01*
X114956Y383500D02*Y378250D01*
X115706Y377500D01*
X114206Y381250D02*X115706D01*
X130750Y383500D02*Y377500D01*
X130000Y383500D02*X133000D01*
X133750Y382750D01*
Y381250D01*
X133000Y380500D02*X133750Y381250D01*
X130750Y380500D02*X133000D01*
X135551Y383500D02*Y378250D01*
X136301Y377500D01*
X140053Y380500D02*X140803Y379750D01*
X138553Y380500D02*X140053D01*
X137803Y379750D02*X138553Y380500D01*
X137803Y379750D02*Y378250D01*
X138553Y377500D01*
X140803Y380500D02*Y378250D01*
X141553Y377500D01*
X138553D02*X140053D01*
X140803Y378250D01*
X144104Y383500D02*Y378250D01*
X144854Y377500D01*
X143354Y381250D02*X144854D01*
X147106Y377500D02*X149356D01*
X146356Y378250D02*X147106Y377500D01*
X146356Y379750D02*Y378250D01*
Y379750D02*X147106Y380500D01*
X148606D01*
X149356Y379750D01*
X146356Y379000D02*X149356D01*
Y379750D02*Y379000D01*
X154157Y383500D02*Y377500D01*
X153407D02*X154157Y378250D01*
X151907Y377500D02*X153407D01*
X151157Y378250D02*X151907Y377500D01*
X151157Y379750D02*Y378250D01*
Y379750D02*X151907Y380500D01*
X153407D01*
X154157Y379750D01*
X157459Y380500D02*Y379750D01*
Y378250D02*Y377500D01*
X155959Y382750D02*Y382000D01*
Y382750D02*X156709Y383500D01*
X158209D01*
X158959Y382750D01*
Y382000D01*
X157459Y380500D02*X158959Y382000D01*
X0Y398500D02*X3000D01*
X1500D02*Y392500D01*
X4801Y398500D02*Y392500D01*
Y394750D02*X5551Y395500D01*
X7051D01*
X7801Y394750D01*
Y392500D01*
X10353D02*X12603D01*
X9603Y393250D02*X10353Y392500D01*
X9603Y394750D02*Y393250D01*
Y394750D02*X10353Y395500D01*
X11853D01*
X12603Y394750D01*
X9603Y394000D02*X12603D01*
Y394750D02*Y394000D01*
X15154Y394750D02*Y392500D01*
Y394750D02*X15904Y395500D01*
X17404D01*
X14404D02*X15154Y394750D01*
X19956Y392500D02*X22206D01*
X19206Y393250D02*X19956Y392500D01*
X19206Y394750D02*Y393250D01*
Y394750D02*X19956Y395500D01*
X21456D01*
X22206Y394750D01*
X19206Y394000D02*X22206D01*
Y394750D02*Y394000D01*
X28957Y395500D02*X29707Y394750D01*
X27457Y395500D02*X28957D01*
X26707Y394750D02*X27457Y395500D01*
X26707Y394750D02*Y393250D01*
X27457Y392500D01*
X29707Y395500D02*Y393250D01*
X30457Y392500D01*
X27457D02*X28957D01*
X29707Y393250D01*
X33009Y394750D02*Y392500D01*
Y394750D02*X33759Y395500D01*
X35259D01*
X32259D02*X33009Y394750D01*
X37810Y392500D02*X40060D01*
X37060Y393250D02*X37810Y392500D01*
X37060Y394750D02*Y393250D01*
Y394750D02*X37810Y395500D01*
X39310D01*
X40060Y394750D01*
X37060Y394000D02*X40060D01*
Y394750D02*Y394000D01*
X44562Y393250D02*X45312Y392500D01*
X44562Y394750D02*Y393250D01*
Y394750D02*X45312Y395500D01*
X46812D01*
X47562Y394750D01*
Y393250D01*
X46812Y392500D02*X47562Y393250D01*
X45312Y392500D02*X46812D01*
X44562Y396250D02*X45312Y395500D01*
X44562Y397750D02*Y396250D01*
Y397750D02*X45312Y398500D01*
X46812D01*
X47562Y397750D01*
Y396250D01*
X46812Y395500D02*X47562Y396250D01*
X55063Y398500D02*Y392500D01*
X54313D02*X55063Y393250D01*
X52813Y392500D02*X54313D01*
X52063Y393250D02*X52813Y392500D01*
X52063Y394750D02*Y393250D01*
Y394750D02*X52813Y395500D01*
X54313D01*
X55063Y394750D01*
X56865Y397000D02*Y396250D01*
Y394750D02*Y392500D01*
X59116Y397750D02*Y392500D01*
Y397750D02*X59866Y398500D01*
X60616D01*
X58366Y395500D02*X59866D01*
X62868Y397750D02*Y392500D01*
Y397750D02*X63618Y398500D01*
X64368D01*
X62118Y395500D02*X63618D01*
X66619Y392500D02*X68869D01*
X65869Y393250D02*X66619Y392500D01*
X65869Y394750D02*Y393250D01*
Y394750D02*X66619Y395500D01*
X68119D01*
X68869Y394750D01*
X65869Y394000D02*X68869D01*
Y394750D02*Y394000D01*
X71421Y394750D02*Y392500D01*
Y394750D02*X72171Y395500D01*
X73671D01*
X70671D02*X71421Y394750D01*
X76222Y392500D02*X78472D01*
X75472Y393250D02*X76222Y392500D01*
X75472Y394750D02*Y393250D01*
Y394750D02*X76222Y395500D01*
X77722D01*
X78472Y394750D01*
X75472Y394000D02*X78472D01*
Y394750D02*Y394000D01*
X81024Y394750D02*Y392500D01*
Y394750D02*X81774Y395500D01*
X82524D01*
X83274Y394750D01*
Y392500D01*
X80274Y395500D02*X81024Y394750D01*
X85825Y398500D02*Y393250D01*
X86575Y392500D01*
X85075Y396250D02*X86575D01*
X93777Y398500D02*Y392500D01*
X93027D02*X93777Y393250D01*
X91527Y392500D02*X93027D01*
X90777Y393250D02*X91527Y392500D01*
X90777Y394750D02*Y393250D01*
Y394750D02*X91527Y395500D01*
X93027D01*
X93777Y394750D01*
X96328D02*Y392500D01*
Y394750D02*X97078Y395500D01*
X98578D01*
X95578D02*X96328Y394750D01*
X100380Y397000D02*Y396250D01*
Y394750D02*Y392500D01*
X101881Y398500D02*Y393250D01*
X102631Y392500D01*
X104133Y398500D02*Y393250D01*
X104883Y392500D01*
X109834D02*X112084D01*
X112834Y393250D01*
X112084Y394000D02*X112834Y393250D01*
X109834Y394000D02*X112084D01*
X109084Y394750D02*X109834Y394000D01*
X109084Y394750D02*X109834Y395500D01*
X112084D01*
X112834Y394750D01*
X109084Y393250D02*X109834Y392500D01*
X114636Y397000D02*Y396250D01*
Y394750D02*Y392500D01*
X116137Y395500D02*X119137D01*
X116137Y392500D02*X119137Y395500D01*
X116137Y392500D02*X119137D01*
X121689D02*X123939D01*
X120939Y393250D02*X121689Y392500D01*
X120939Y394750D02*Y393250D01*
Y394750D02*X121689Y395500D01*
X123189D01*
X123939Y394750D01*
X120939Y394000D02*X123939D01*
Y394750D02*Y394000D01*
X126490Y392500D02*X128740D01*
X129490Y393250D01*
X128740Y394000D02*X129490Y393250D01*
X126490Y394000D02*X128740D01*
X125740Y394750D02*X126490Y394000D01*
X125740Y394750D02*X126490Y395500D01*
X128740D01*
X129490Y394750D01*
X125740Y393250D02*X126490Y392500D01*
X133992Y395500D02*Y393250D01*
X134742Y392500D01*
X136242D01*
X136992Y393250D01*
Y395500D02*Y393250D01*
X139543Y392500D02*X141793D01*
X142543Y393250D01*
X141793Y394000D02*X142543Y393250D01*
X139543Y394000D02*X141793D01*
X138793Y394750D02*X139543Y394000D01*
X138793Y394750D02*X139543Y395500D01*
X141793D01*
X142543Y394750D01*
X138793Y393250D02*X139543Y392500D01*
X145095D02*X147345D01*
X144345Y393250D02*X145095Y392500D01*
X144345Y394750D02*Y393250D01*
Y394750D02*X145095Y395500D01*
X146595D01*
X147345Y394750D01*
X144345Y394000D02*X147345D01*
Y394750D02*Y394000D01*
X152146Y398500D02*Y392500D01*
X151396D02*X152146Y393250D01*
X149896Y392500D02*X151396D01*
X149146Y393250D02*X149896Y392500D01*
X149146Y394750D02*Y393250D01*
Y394750D02*X149896Y395500D01*
X151396D01*
X152146Y394750D01*
X156648Y397000D02*Y396250D01*
Y394750D02*Y392500D01*
X158899Y394750D02*Y392500D01*
Y394750D02*X159649Y395500D01*
X160399D01*
X161149Y394750D01*
Y392500D01*
X158149Y395500D02*X158899Y394750D01*
X166401Y398500D02*Y393250D01*
X167151Y392500D01*
X165651Y396250D02*X167151D01*
X168652Y398500D02*Y392500D01*
Y394750D02*X169402Y395500D01*
X170902D01*
X171652Y394750D01*
Y392500D01*
X173454Y397000D02*Y396250D01*
Y394750D02*Y392500D01*
X175705D02*X177955D01*
X178705Y393250D01*
X177955Y394000D02*X178705Y393250D01*
X175705Y394000D02*X177955D01*
X174955Y394750D02*X175705Y394000D01*
X174955Y394750D02*X175705Y395500D01*
X177955D01*
X178705Y394750D01*
X174955Y393250D02*X175705Y392500D01*
X183207Y398500D02*Y393250D01*
X183957Y392500D01*
X187708Y395500D02*X188458Y394750D01*
X186208Y395500D02*X187708D01*
X185458Y394750D02*X186208Y395500D01*
X185458Y394750D02*Y393250D01*
X186208Y392500D01*
X188458Y395500D02*Y393250D01*
X189208Y392500D01*
X186208D02*X187708D01*
X188458Y393250D01*
X191010Y395500D02*Y393250D01*
X191760Y392500D01*
X194010Y395500D02*Y391000D01*
X193260Y390250D02*X194010Y391000D01*
X191760Y390250D02*X193260D01*
X191010Y391000D02*X191760Y390250D01*
Y392500D02*X193260D01*
X194010Y393250D01*
X195811Y394750D02*Y393250D01*
Y394750D02*X196561Y395500D01*
X198061D01*
X198811Y394750D01*
Y393250D01*
X198061Y392500D02*X198811Y393250D01*
X196561Y392500D02*X198061D01*
X195811Y393250D02*X196561Y392500D01*
X200613Y395500D02*Y393250D01*
X201363Y392500D01*
X202863D01*
X203613Y393250D01*
Y395500D02*Y393250D01*
X206164Y398500D02*Y393250D01*
X206914Y392500D01*
X205414Y396250D02*X206914D01*
X208416Y391000D02*X209916Y392500D01*
X215167D02*X216667D01*
X215917Y398500D02*Y392500D01*
X214417Y397000D02*X215917Y398500D01*
X218469Y392500D02*X222219Y396250D01*
Y398500D02*Y396250D01*
X218469Y398500D02*X222219D01*
X224020Y392500D02*X227770Y396250D01*
Y398500D02*Y396250D01*
X224020Y398500D02*X227770D01*
X232272D02*Y392500D01*
Y394750D02*X233022Y395500D01*
X234522D01*
X235272Y394750D01*
Y392500D01*
X237073Y394750D02*Y393250D01*
Y394750D02*X237823Y395500D01*
X239323D01*
X240073Y394750D01*
Y393250D01*
X239323Y392500D02*X240073Y393250D01*
X237823Y392500D02*X239323D01*
X237073Y393250D02*X237823Y392500D01*
X241875Y398500D02*Y393250D01*
X242625Y392500D01*
X244876D02*X247126D01*
X244126Y393250D02*X244876Y392500D01*
X244126Y394750D02*Y393250D01*
Y394750D02*X244876Y395500D01*
X246376D01*
X247126Y394750D01*
X244126Y394000D02*X247126D01*
Y394750D02*Y394000D01*
X249678Y392500D02*X251928D01*
X252678Y393250D01*
X251928Y394000D02*X252678Y393250D01*
X249678Y394000D02*X251928D01*
X248928Y394750D02*X249678Y394000D01*
X248928Y394750D02*X249678Y395500D01*
X251928D01*
X252678Y394750D01*
X248928Y393250D02*X249678Y392500D01*
X257929Y398500D02*Y393250D01*
X258679Y392500D01*
X257179Y396250D02*X258679D01*
X260181Y394750D02*Y393250D01*
Y394750D02*X260931Y395500D01*
X262431D01*
X263181Y394750D01*
Y393250D01*
X262431Y392500D02*X263181Y393250D01*
X260931Y392500D02*X262431D01*
X260181Y393250D02*X260931Y392500D01*
X265732Y398500D02*Y393250D01*
X266482Y392500D01*
X264982Y396250D02*X266482D01*
X270234Y395500D02*X270984Y394750D01*
X268734Y395500D02*X270234D01*
X267984Y394750D02*X268734Y395500D01*
X267984Y394750D02*Y393250D01*
X268734Y392500D01*
X270984Y395500D02*Y393250D01*
X271734Y392500D01*
X268734D02*X270234D01*
X270984Y393250D01*
X273535Y398500D02*Y393250D01*
X274285Y392500D01*
G54D35*X199000Y1000D02*Y11000D01*
X189000Y1000D02*X199000D01*
Y2000D02*Y249000D01*
X1000D01*
Y1000D02*X198000D01*
X1000Y249000D02*Y1000D01*
G54D52*X13648Y-9500D02*X16648D01*
X17398Y-8750D01*
Y-7250D02*Y-8750D01*
X16648Y-6500D02*X17398Y-7250D01*
X14398Y-6500D02*X16648D01*
X14398Y-3500D02*Y-9500D01*
X13648Y-3500D02*X16648D01*
X17398Y-4250D01*
Y-5750D01*
X16648Y-6500D02*X17398Y-5750D01*
X19199Y-7250D02*Y-8750D01*
Y-7250D02*X19949Y-6500D01*
X21449D01*
X22199Y-7250D01*
Y-8750D01*
X21449Y-9500D02*X22199Y-8750D01*
X19949Y-9500D02*X21449D01*
X19199Y-8750D02*X19949Y-9500D01*
X26251Y-6500D02*X27001Y-7250D01*
X24751Y-6500D02*X26251D01*
X24001Y-7250D02*X24751Y-6500D01*
X24001Y-7250D02*Y-8750D01*
X24751Y-9500D01*
X27001Y-6500D02*Y-8750D01*
X27751Y-9500D01*
X24751D02*X26251D01*
X27001Y-8750D01*
X30302Y-7250D02*Y-9500D01*
Y-7250D02*X31052Y-6500D01*
X32552D01*
X29552D02*X30302Y-7250D01*
X37354Y-3500D02*Y-9500D01*
X36604D02*X37354Y-8750D01*
X35104Y-9500D02*X36604D01*
X34354Y-8750D02*X35104Y-9500D01*
X34354Y-7250D02*Y-8750D01*
Y-7250D02*X35104Y-6500D01*
X36604D01*
X37354Y-7250D01*
X41855D02*Y-8750D01*
Y-7250D02*X42605Y-6500D01*
X44105D01*
X44855Y-7250D01*
Y-8750D01*
X44105Y-9500D02*X44855Y-8750D01*
X42605Y-9500D02*X44105D01*
X41855Y-8750D02*X42605Y-9500D01*
X46657Y-6500D02*Y-8750D01*
X47407Y-9500D01*
X48907D01*
X49657Y-8750D01*
Y-6500D02*Y-8750D01*
X52208Y-3500D02*Y-8750D01*
X52958Y-9500D01*
X51458Y-5750D02*X52958D01*
X54460Y-3500D02*Y-8750D01*
X55210Y-9500D01*
X56711Y-5000D02*Y-5750D01*
Y-7250D02*Y-9500D01*
X58963Y-7250D02*Y-9500D01*
Y-7250D02*X59713Y-6500D01*
X60463D01*
X61213Y-7250D01*
Y-9500D01*
X58213Y-6500D02*X58963Y-7250D01*
X63764Y-9500D02*X66014D01*
X63014Y-8750D02*X63764Y-9500D01*
X63014Y-7250D02*Y-8750D01*
Y-7250D02*X63764Y-6500D01*
X65264D01*
X66014Y-7250D01*
X63014Y-8000D02*X66014D01*
Y-7250D02*Y-8000D01*
X70516Y-5000D02*Y-5750D01*
Y-7250D02*Y-9500D01*
X72767D02*X75017D01*
X75767Y-8750D01*
X75017Y-8000D02*X75767Y-8750D01*
X72767Y-8000D02*X75017D01*
X72017Y-7250D02*X72767Y-8000D01*
X72017Y-7250D02*X72767Y-6500D01*
X75017D01*
X75767Y-7250D01*
X72017Y-8750D02*X72767Y-9500D01*
X81019Y-3500D02*Y-8750D01*
X81769Y-9500D01*
X80269Y-5750D02*X81769D01*
X83270Y-3500D02*Y-9500D01*
Y-7250D02*X84020Y-6500D01*
X85520D01*
X86270Y-7250D01*
Y-9500D01*
X88822D02*X91072D01*
X88072Y-8750D02*X88822Y-9500D01*
X88072Y-7250D02*Y-8750D01*
Y-7250D02*X88822Y-6500D01*
X90322D01*
X91072Y-7250D01*
X88072Y-8000D02*X91072D01*
Y-7250D02*Y-8000D01*
X96323Y-6500D02*X98573D01*
X95573Y-7250D02*X96323Y-6500D01*
X95573Y-7250D02*Y-8750D01*
X96323Y-9500D01*
X98573D01*
X101125D02*X103375D01*
X100375Y-8750D02*X101125Y-9500D01*
X100375Y-7250D02*Y-8750D01*
Y-7250D02*X101125Y-6500D01*
X102625D01*
X103375Y-7250D01*
X100375Y-8000D02*X103375D01*
Y-7250D02*Y-8000D01*
X105926Y-7250D02*Y-9500D01*
Y-7250D02*X106676Y-6500D01*
X107426D01*
X108176Y-7250D01*
Y-9500D01*
X105176Y-6500D02*X105926Y-7250D01*
X110728Y-3500D02*Y-8750D01*
X111478Y-9500D01*
X109978Y-5750D02*X111478D01*
X113729Y-9500D02*X115979D01*
X112979Y-8750D02*X113729Y-9500D01*
X112979Y-7250D02*Y-8750D01*
Y-7250D02*X113729Y-6500D01*
X115229D01*
X115979Y-7250D01*
X112979Y-8000D02*X115979D01*
Y-7250D02*Y-8000D01*
X118531Y-7250D02*Y-9500D01*
Y-7250D02*X119281Y-6500D01*
X120781D01*
X117781D02*X118531Y-7250D01*
X122582Y-3500D02*Y-8750D01*
X123332Y-9500D01*
X124834Y-5000D02*Y-5750D01*
Y-7250D02*Y-9500D01*
X127085Y-7250D02*Y-9500D01*
Y-7250D02*X127835Y-6500D01*
X128585D01*
X129335Y-7250D01*
Y-9500D01*
X126335Y-6500D02*X127085Y-7250D01*
X131887Y-9500D02*X134137D01*
X131137Y-8750D02*X131887Y-9500D01*
X131137Y-7250D02*Y-8750D01*
Y-7250D02*X131887Y-6500D01*
X133387D01*
X134137Y-7250D01*
X131137Y-8000D02*X134137D01*
Y-7250D02*Y-8000D01*
X138638Y-7250D02*Y-8750D01*
Y-7250D02*X139388Y-6500D01*
X140888D01*
X141638Y-7250D01*
Y-8750D01*
X140888Y-9500D02*X141638Y-8750D01*
X139388Y-9500D02*X140888D01*
X138638Y-8750D02*X139388Y-9500D01*
X144190Y-4250D02*Y-9500D01*
Y-4250D02*X144940Y-3500D01*
X145690D01*
X143440Y-6500D02*X144940D01*
X150641Y-3500D02*Y-8750D01*
X151391Y-9500D01*
X149891Y-5750D02*X151391D01*
X152893Y-3500D02*Y-9500D01*
Y-7250D02*X153643Y-6500D01*
X155143D01*
X155893Y-7250D01*
Y-9500D01*
X157694Y-5000D02*Y-5750D01*
Y-7250D02*Y-9500D01*
X159946D02*X162196D01*
X162946Y-8750D01*
X162196Y-8000D02*X162946Y-8750D01*
X159946Y-8000D02*X162196D01*
X159196Y-7250D02*X159946Y-8000D01*
X159196Y-7250D02*X159946Y-6500D01*
X162196D01*
X162946Y-7250D01*
X159196Y-8750D02*X159946Y-9500D01*
X168197Y-7250D02*Y-11750D01*
X167447Y-6500D02*X168197Y-7250D01*
X168947Y-6500D01*
X170447D01*
X171197Y-7250D01*
Y-8750D01*
X170447Y-9500D02*X171197Y-8750D01*
X168947Y-9500D02*X170447D01*
X168197Y-8750D02*X168947Y-9500D01*
X175249Y-6500D02*X175999Y-7250D01*
X173749Y-6500D02*X175249D01*
X172999Y-7250D02*X173749Y-6500D01*
X172999Y-7250D02*Y-8750D01*
X173749Y-9500D01*
X175999Y-6500D02*Y-8750D01*
X176749Y-9500D01*
X173749D02*X175249D01*
X175999Y-8750D01*
X179300Y-3500D02*Y-8750D01*
X180050Y-9500D01*
X178550Y-5750D02*X180050D01*
X181552Y-3500D02*Y-9500D01*
Y-7250D02*X182302Y-6500D01*
X183802D01*
X184552Y-7250D01*
Y-9500D01*
X200750Y278500D02*Y272500D01*
X203000Y278500D02*X203750Y277750D01*
Y273250D01*
X203000Y272500D02*X203750Y273250D01*
X200000Y272500D02*X203000D01*
X200000Y278500D02*X203000D01*
X207801Y275500D02*X208551Y274750D01*
X206301Y275500D02*X207801D01*
X205551Y274750D02*X206301Y275500D01*
X205551Y274750D02*Y273250D01*
X206301Y272500D01*
X208551Y275500D02*Y273250D01*
X209301Y272500D01*
X206301D02*X207801D01*
X208551Y273250D01*
X211853Y278500D02*Y273250D01*
X212603Y272500D01*
X211103Y276250D02*X212603D01*
X214854Y272500D02*X217104D01*
X214104Y273250D02*X214854Y272500D01*
X214104Y274750D02*Y273250D01*
Y274750D02*X214854Y275500D01*
X216354D01*
X217104Y274750D01*
X214104Y274000D02*X217104D01*
Y274750D02*Y274000D01*
X218906Y276250D02*X219656D01*
X218906Y274750D02*X219656D01*
X227157Y278500D02*X227907Y277750D01*
X224907Y278500D02*X227157D01*
X224157Y277750D02*X224907Y278500D01*
X224157Y277750D02*Y276250D01*
X224907Y275500D01*
X227157D01*
X227907Y274750D01*
Y273250D01*
X227157Y272500D02*X227907Y273250D01*
X224907Y272500D02*X227157D01*
X224157Y273250D02*X224907Y272500D01*
X229709Y275500D02*Y273250D01*
X230459Y272500D01*
X231959D01*
X232709Y273250D01*
Y275500D02*Y273250D01*
X235260Y274750D02*Y272500D01*
Y274750D02*X236010Y275500D01*
X236760D01*
X237510Y274750D01*
Y272500D01*
X234510Y275500D02*X235260Y274750D01*
X242012Y273250D02*X242762Y272500D01*
X242012Y277750D02*Y273250D01*
Y277750D02*X242762Y278500D01*
X244262D01*
X245012Y277750D01*
Y273250D01*
X244262Y272500D02*X245012Y273250D01*
X242762Y272500D02*X244262D01*
X242012Y274000D02*X245012Y277000D01*
X247563Y272500D02*X249063D01*
X248313Y278500D02*Y272500D01*
X246813Y277000D02*X248313Y278500D01*
X253565Y277750D02*Y272500D01*
Y277750D02*X254315Y278500D01*
X256565D01*
X257315Y277750D01*
Y272500D01*
X253565Y275500D02*X257315D01*
X259116D02*Y273250D01*
X259866Y272500D01*
X261366D01*
X262116Y273250D01*
Y275500D02*Y273250D01*
X266168Y275500D02*X266918Y274750D01*
X264668Y275500D02*X266168D01*
X263918Y274750D02*X264668Y275500D01*
X263918Y274750D02*Y273250D01*
X264668Y272500D01*
X266168D01*
X266918Y273250D01*
X263918Y271000D02*X264668Y270250D01*
X266168D01*
X266918Y271000D01*
Y275500D02*Y271000D01*
X271419Y277750D02*X272169Y278500D01*
X274419D01*
X275169Y277750D01*
Y276250D01*
X271419Y272500D02*X275169Y276250D01*
X271419Y272500D02*X275169D01*
X276971Y273250D02*X277721Y272500D01*
X276971Y277750D02*Y273250D01*
Y277750D02*X277721Y278500D01*
X279221D01*
X279971Y277750D01*
Y273250D01*
X279221Y272500D02*X279971Y273250D01*
X277721Y272500D02*X279221D01*
X276971Y274000D02*X279971Y277000D01*
X282522Y272500D02*X284022D01*
X283272Y278500D02*Y272500D01*
X281772Y277000D02*X283272Y278500D01*
X285824Y273250D02*X286574Y272500D01*
X285824Y277750D02*Y273250D01*
Y277750D02*X286574Y278500D01*
X288074D01*
X288824Y277750D01*
Y273250D01*
X288074Y272500D02*X288824Y273250D01*
X286574Y272500D02*X288074D01*
X285824Y274000D02*X288824Y277000D01*
X293325Y273250D02*X294075Y272500D01*
X293325Y277750D02*Y273250D01*
Y277750D02*X294075Y278500D01*
X295575D01*
X296325Y277750D01*
Y273250D01*
X295575Y272500D02*X296325Y273250D01*
X294075Y272500D02*X295575D01*
X293325Y274000D02*X296325Y277000D01*
X298127Y278500D02*X301127D01*
X298127D02*Y275500D01*
X298877Y276250D01*
X300377D01*
X301127Y275500D01*
Y273250D01*
X300377Y272500D02*X301127Y273250D01*
X298877Y272500D02*X300377D01*
X298127Y273250D02*X298877Y272500D01*
X302928Y276250D02*X303678D01*
X302928Y274750D02*X303678D01*
X305480Y278500D02*X308480D01*
X305480D02*Y275500D01*
X306230Y276250D01*
X307730D01*
X308480Y275500D01*
Y273250D01*
X307730Y272500D02*X308480Y273250D01*
X306230Y272500D02*X307730D01*
X305480Y273250D02*X306230Y272500D01*
X310281Y277750D02*X311031Y278500D01*
X312531D01*
X313281Y277750D01*
Y273250D01*
X312531Y272500D02*X313281Y273250D01*
X311031Y272500D02*X312531D01*
X310281Y273250D02*X311031Y272500D01*
Y275500D02*X313281D01*
X315083Y276250D02*X315833D01*
X315083Y274750D02*X315833D01*
X318384Y272500D02*X319884D01*
X319134Y278500D02*Y272500D01*
X317634Y277000D02*X319134Y278500D01*
X321686Y277750D02*X322436Y278500D01*
X324686D01*
X325436Y277750D01*
Y276250D01*
X321686Y272500D02*X325436Y276250D01*
X321686Y272500D02*X325436D01*
X329937Y277750D02*Y272500D01*
Y277750D02*X330687Y278500D01*
X332937D01*
X333687Y277750D01*
Y272500D01*
X329937Y275500D02*X333687D01*
X335489Y278500D02*Y272500D01*
Y278500D02*X337739Y276250D01*
X339989Y278500D01*
Y272500D01*
X347490Y278500D02*X348240Y277750D01*
X345240Y278500D02*X347490D01*
X344490Y277750D02*X345240Y278500D01*
X344490Y277750D02*Y273250D01*
X345240Y272500D01*
X347490D01*
X348240Y273250D01*
Y274750D02*Y273250D01*
X347490Y275500D02*X348240Y274750D01*
X345990Y275500D02*X347490D01*
X350042Y278500D02*Y272500D01*
Y278500D02*X352292Y276250D01*
X354542Y278500D01*
Y272500D01*
X356343Y278500D02*X359343D01*
X357843D02*Y272500D01*
X363845Y278500D02*Y273250D01*
X364595Y272500D01*
X366095D01*
X366845Y273250D01*
Y278500D02*Y273250D01*
X368646Y278500D02*X371646D01*
X370146D02*Y272500D01*
X374198D02*X376448D01*
X373448Y273250D02*X374198Y272500D01*
X373448Y277750D02*Y273250D01*
Y277750D02*X374198Y278500D01*
X376448D01*
X200000Y292750D02*Y287500D01*
Y292750D02*X200750Y293500D01*
X203000D01*
X203750Y292750D01*
Y287500D01*
X200000Y290500D02*X203750D01*
X205551D02*Y288250D01*
X206301Y287500D01*
X207801D01*
X208551Y288250D01*
Y290500D02*Y288250D01*
X211103Y293500D02*Y288250D01*
X211853Y287500D01*
X210353Y291250D02*X211853D01*
X213354Y293500D02*Y287500D01*
Y289750D02*X214104Y290500D01*
X215604D01*
X216354Y289750D01*
Y287500D01*
X218156Y289750D02*Y288250D01*
Y289750D02*X218906Y290500D01*
X220406D01*
X221156Y289750D01*
Y288250D01*
X220406Y287500D02*X221156Y288250D01*
X218906Y287500D02*X220406D01*
X218156Y288250D02*X218906Y287500D01*
X223707Y289750D02*Y287500D01*
Y289750D02*X224457Y290500D01*
X225957D01*
X222957D02*X223707Y289750D01*
X227759Y291250D02*X228509D01*
X227759Y289750D02*X228509D01*
X233760Y292000D02*Y291250D01*
Y289750D02*Y286000D01*
X233010Y285250D02*X233760Y286000D01*
X236012Y287500D02*X238262D01*
X235262Y288250D02*X236012Y287500D01*
X235262Y289750D02*Y288250D01*
Y289750D02*X236012Y290500D01*
X237512D01*
X238262Y289750D01*
X235262Y289000D02*X238262D01*
Y289750D02*Y289000D01*
X240813Y289750D02*Y287500D01*
Y289750D02*X241563Y290500D01*
X242313D01*
X243063Y289750D01*
Y287500D01*
X240063Y290500D02*X240813Y289750D01*
X245615Y287500D02*X247865D01*
X248615Y288250D01*
X247865Y289000D02*X248615Y288250D01*
X245615Y289000D02*X247865D01*
X244865Y289750D02*X245615Y289000D01*
X244865Y289750D02*X245615Y290500D01*
X247865D01*
X248615Y289750D01*
X244865Y288250D02*X245615Y287500D01*
X251166D02*X253416D01*
X250416Y288250D02*X251166Y287500D01*
X250416Y289750D02*Y288250D01*
Y289750D02*X251166Y290500D01*
X252666D01*
X253416Y289750D01*
X250416Y289000D02*X253416D01*
Y289750D02*Y289000D01*
X255968Y289750D02*Y287500D01*
Y289750D02*X256718Y290500D01*
X257468D01*
X258218Y289750D01*
Y287500D01*
X255218Y290500D02*X255968Y289750D01*
X200000Y308500D02*X203000D01*
X201500D02*Y302500D01*
X204801Y307000D02*Y306250D01*
Y304750D02*Y302500D01*
X207053Y308500D02*Y303250D01*
X207803Y302500D01*
X206303Y306250D02*X207803D01*
X209304Y308500D02*Y303250D01*
X210054Y302500D01*
X212306D02*X214556D01*
X211556Y303250D02*X212306Y302500D01*
X211556Y304750D02*Y303250D01*
Y304750D02*X212306Y305500D01*
X213806D01*
X214556Y304750D01*
X211556Y304000D02*X214556D01*
Y304750D02*Y304000D01*
X216357Y306250D02*X217107D01*
X216357Y304750D02*X217107D01*
X221609Y303250D02*X222359Y302500D01*
X221609Y307750D02*X222359Y308500D01*
X221609Y307750D02*Y303250D01*
X224160Y305500D02*Y303250D01*
X224910Y302500D01*
X226410D01*
X227160Y303250D01*
Y305500D02*Y303250D01*
X229712Y304750D02*Y302500D01*
Y304750D02*X230462Y305500D01*
X231212D01*
X231962Y304750D01*
Y302500D01*
X228962Y305500D02*X229712Y304750D01*
X233763Y308500D02*Y302500D01*
Y304750D02*X236013Y302500D01*
X233763Y304750D02*X235263Y306250D01*
X238565Y304750D02*Y302500D01*
Y304750D02*X239315Y305500D01*
X240065D01*
X240815Y304750D01*
Y302500D01*
X237815Y305500D02*X238565Y304750D01*
X242616D02*Y303250D01*
Y304750D02*X243366Y305500D01*
X244866D01*
X245616Y304750D01*
Y303250D01*
X244866Y302500D02*X245616Y303250D01*
X243366Y302500D02*X244866D01*
X242616Y303250D02*X243366Y302500D01*
X247418Y305500D02*Y303250D01*
X248168Y302500D01*
X248918D01*
X249668Y303250D01*
Y305500D02*Y303250D01*
X250418Y302500D01*
X251168D01*
X251918Y303250D01*
Y305500D02*Y303250D01*
X254469Y304750D02*Y302500D01*
Y304750D02*X255219Y305500D01*
X255969D01*
X256719Y304750D01*
Y302500D01*
X253719Y305500D02*X254469Y304750D01*
X258521Y308500D02*X259271Y307750D01*
Y303250D01*
X258521Y302500D02*X259271Y303250D01*
X263772Y305500D02*X266772D01*
X271274Y308500D02*Y302500D01*
Y308500D02*X274274D01*
X271274Y305500D02*X273524D01*
X278325D02*X279075Y304750D01*
X276825Y305500D02*X278325D01*
X276075Y304750D02*X276825Y305500D01*
X276075Y304750D02*Y303250D01*
X276825Y302500D01*
X279075Y305500D02*Y303250D01*
X279825Y302500D01*
X276825D02*X278325D01*
X279075Y303250D01*
X281627Y308500D02*Y302500D01*
Y303250D02*X282377Y302500D01*
X283877D01*
X284627Y303250D01*
Y304750D02*Y303250D01*
X283877Y305500D02*X284627Y304750D01*
X282377Y305500D02*X283877D01*
X281627Y304750D02*X282377Y305500D01*
X287178Y304750D02*Y302500D01*
Y304750D02*X287928Y305500D01*
X289428D01*
X286428D02*X287178Y304750D01*
X291230Y307000D02*Y306250D01*
Y304750D02*Y302500D01*
X293481Y305500D02*X295731D01*
X292731Y304750D02*X293481Y305500D01*
X292731Y304750D02*Y303250D01*
X293481Y302500D01*
X295731D01*
X299783Y305500D02*X300533Y304750D01*
X298283Y305500D02*X299783D01*
X297533Y304750D02*X298283Y305500D01*
X297533Y304750D02*Y303250D01*
X298283Y302500D01*
X300533Y305500D02*Y303250D01*
X301283Y302500D01*
X298283D02*X299783D01*
X300533Y303250D01*
X303834Y308500D02*Y303250D01*
X304584Y302500D01*
X303084Y306250D02*X304584D01*
X306086Y307000D02*Y306250D01*
Y304750D02*Y302500D01*
X307587Y304750D02*Y303250D01*
Y304750D02*X308337Y305500D01*
X309837D01*
X310587Y304750D01*
Y303250D01*
X309837Y302500D02*X310587Y303250D01*
X308337Y302500D02*X309837D01*
X307587Y303250D02*X308337Y302500D01*
X313139Y304750D02*Y302500D01*
Y304750D02*X313889Y305500D01*
X314639D01*
X315389Y304750D01*
Y302500D01*
X312389Y305500D02*X313139Y304750D01*
X320640Y308500D02*Y302500D01*
X322890Y308500D02*X323640Y307750D01*
Y303250D01*
X322890Y302500D02*X323640Y303250D01*
X319890Y302500D02*X322890D01*
X319890Y308500D02*X322890D01*
X326192Y304750D02*Y302500D01*
Y304750D02*X326942Y305500D01*
X328442D01*
X325442D02*X326192Y304750D01*
X332493Y305500D02*X333243Y304750D01*
X330993Y305500D02*X332493D01*
X330243Y304750D02*X330993Y305500D01*
X330243Y304750D02*Y303250D01*
X330993Y302500D01*
X333243Y305500D02*Y303250D01*
X333993Y302500D01*
X330993D02*X332493D01*
X333243Y303250D01*
X335795Y305500D02*Y303250D01*
X336545Y302500D01*
X337295D01*
X338045Y303250D01*
Y305500D02*Y303250D01*
X338795Y302500D01*
X339545D01*
X340295Y303250D01*
Y305500D02*Y303250D01*
X342096Y307000D02*Y306250D01*
Y304750D02*Y302500D01*
X344348Y304750D02*Y302500D01*
Y304750D02*X345098Y305500D01*
X345848D01*
X346598Y304750D01*
Y302500D01*
X343598Y305500D02*X344348Y304750D01*
X350649Y305500D02*X351399Y304750D01*
X349149Y305500D02*X350649D01*
X348399Y304750D02*X349149Y305500D01*
X348399Y304750D02*Y303250D01*
X349149Y302500D01*
X350649D01*
X351399Y303250D01*
X348399Y301000D02*X349149Y300250D01*
X350649D01*
X351399Y301000D01*
Y305500D02*Y301000D01*
M02*
